<?xml version="1.0" encoding="UTF-8" standalone="no"?>
<!DOCTYPE svg PUBLIC "-//W3C//DTD SVG 1.1//EN" "http://www.w3.org/Graphics/SVG/1.1/DTD/svg11.dtd">
<svg width="100%" height="100%" viewBox="0 0 2276 2275" version="1.1" xmlns="http://www.w3.org/2000/svg" xmlns:xlink="http://www.w3.org/1999/xlink" xml:space="preserve" xmlns:serif="http://www.serif.com/" style="fill-rule:evenodd;clip-rule:evenodd;stroke-linejoin:round;stroke-miterlimit:2;">
    <g transform="matrix(1,0,0,1,-2839,0)">
        <g id="_2" serif:id="2" transform="matrix(1,0,0,1,4274.04,-3215.91)">
            <rect x="-1434.93" y="3215.91" width="2274.98" height="2274.98" style="fill:none;"/>
            <g transform="matrix(4.65762,0,0,4.65762,-1109.88,3352.84)">
                <path d="M82.98,0C84.74,0.44 86.54,0.78 88.26,1.35C92.05,2.6 95.74,4.13 99.57,5.25C106.54,7.29 113.57,9.01 120.9,9.39C125.59,9.63 130.24,10.57 134.92,11.07C140.16,11.62 145.41,12.11 150.66,12.47C162.11,13.26 173.52,14.45 184.63,17.36C189.46,18.63 194.09,20.75 198.7,22.72C205.06,25.44 211.79,26.79 218.48,28.3C225.37,29.86 232.1,31.9 238.75,34.36C242.53,35.76 246.62,36.39 250.6,37.18C258.11,38.68 265.68,39.9 273.16,41.56C276.67,42.34 279.99,43.98 283.45,45.06C290.79,47.37 298.2,49.46 305.51,51.88C308.95,53.02 312.26,53.24 315.69,52.14C316.21,51.97 316.76,51.93 317.44,51.81C317.15,52.4 316.92,52.85 316.62,53.46C317.91,53.71 319.12,53.87 320.29,54.2C320.94,54.38 321.5,54.84 322.11,55.18L322.11,55.9C321.52,55.97 320.9,56.18 320.33,56.08C319.15,55.88 318.01,55.48 316.84,55.25C315.93,55.07 315.37,55.48 315.36,56.47C315.36,56.67 315.34,56.87 315.35,57.07C315.53,70.38 314.9,83.68 313.84,96.94C312.71,111.02 312.72,125.12 312.43,139.21C312.26,147.39 311.77,155.57 311.25,163.74C311.01,167.52 310.28,171.26 309.91,175.03C309.16,182.74 308.51,190.46 307.81,198.18C307.55,201.08 307.22,203.98 307,206.89C306.96,207.43 307.16,208.08 307.46,208.54C308.05,209.46 308.17,210.26 307.51,211.19C307.32,211.46 307.21,211.97 307.33,212.26C309.52,217.49 309.23,222.89 308.91,228.4C308.48,235.57 306.19,242.33 304.98,249.32C304.53,251.92 302.92,254 301.04,255.77C296.62,259.93 292.32,264.27 287.57,268.02C284.49,270.46 280.71,272.03 277.2,273.91C274.42,275.4 271.52,276.66 268.77,278.2C265.3,280.15 261.66,281.18 257.68,281.1C256.49,281.08 255.3,281.3 254.1,281.35C253.43,281.38 252.75,281.29 251.85,281.24C249.24,283.98 245.69,284.83 241.76,285.08C239.55,285.22 237.34,286.03 235.21,286.77C233.49,287.37 231.9,288.34 230.21,289.07C229.25,289.49 228.63,290.03 228.64,291.16C228.64,291.75 228.5,292.34 228.4,293.07C229.05,292.73 229.58,292.45 230.26,292.1C228.89,297.05 231.27,301.61 231.12,306.4C229.98,306.1 229.52,305.2 229.33,304.22C228.94,302.14 228.67,300.05 228.36,297.96C228.32,297.66 228.29,297.37 228.07,297.07C227.98,298.17 227.86,299.28 227.81,300.38C227.77,301.34 227.39,301.96 226.3,302.15C225.66,298.32 227,294.62 226.97,290.83C225.66,290.75 224.41,290.67 223.05,290.58C222.79,291.4 222.14,291.38 221.31,291.26C212.49,289.91 203.61,289.27 194.7,289.14C191.25,289.09 187.74,289.46 184.35,290.09C174.1,292.02 164.18,290.53 154.29,287.85C151.76,287.17 149.05,287.12 146.56,286.37C142.47,285.13 138.05,284.8 134.4,282.25C134.25,282.14 134.07,282.08 133.73,281.91C133.73,284.33 133.68,286.6 133.74,288.86C133.92,295.09 134.05,301.32 134.37,307.54C134.7,314.04 135.27,320.53 135.66,327.03C135.98,332.25 136.16,337.48 136.45,342.7C136.92,351.07 137.44,359.44 137.9,367.82C138.05,370.49 138.1,373.17 138.13,375.84C138.15,377.09 138.65,377.98 139.69,378.61C140.51,379.1 141.3,379.66 142.16,380.07C151.8,384.6 161.45,389.1 171.11,393.59C171.96,393.98 172.89,394.19 173.79,394.48L173.98,394.2C173.58,393.69 173.22,393.15 172.78,392.68C168.52,388.14 165.93,382.73 164.29,376.78C163.69,374.6 162.95,372.43 162.04,370.36C160.94,367.85 161.13,365.29 161.31,362.7C161.9,354.17 165.57,347.52 173.24,343.35C174.07,342.9 174.99,342.58 175.9,342.31C176.77,342.05 177.69,341.93 178.79,341.71C178.48,340.44 178.26,339.19 177.88,338C176.44,333.56 177.42,329.83 181.01,326.8C182.2,325.8 183.34,324.73 184.51,323.7C186.14,322.27 187.93,321.14 189.94,320.27C191.87,319.43 193.75,318.37 195.42,317.1C198.24,314.97 201.38,314.11 204.83,313.71C209.47,313.17 214.07,312.32 218.67,311.55C219.45,311.42 220.22,311.14 220.94,310.81C227.22,307.88 233.82,307.25 240.6,308.11C242.6,308.36 244.55,309.02 246.53,309.44C246.9,309.52 247.39,309.45 247.71,309.26C249.11,308.41 250.47,307.5 251.84,306.6C253.9,305.26 256.07,305.58 258.15,306.42C258.68,306.63 259.14,307.6 259.21,308.27C259.43,310.37 259.64,312.51 259.5,314.61C259.17,319.55 260.71,323.57 264.53,326.81C266.63,328.59 268.52,330.65 269.65,333.23C270.16,334.39 270.53,335.63 270.79,336.86C271.23,339 271.4,341.21 271.94,343.32C272.12,344.03 272.96,344.74 273.67,345.14C277.2,347.09 280.79,348.92 284.34,350.83C286.9,352.21 289.44,353.64 291.97,355.08C294.16,356.33 296.5,357.07 298.99,357.3C301.87,357.57 304.09,358.97 305.97,361.07C308.61,364.02 309.64,367.59 310.37,371.38C311.1,375.17 311.55,378.93 311.04,383.17C312.18,382.48 313.02,381.97 313.86,381.47C314.59,382.6 314.42,383.33 313.4,384.01C304.69,389.77 295.94,395.47 287.3,401.34C284.2,403.44 281.48,406.1 278.41,408.23C273.36,411.73 268.23,415.13 263.01,418.36C257.72,421.64 252.31,424.73 246.87,427.75C245.26,428.64 243.37,429.02 241.61,429.63C241.35,429.72 241.06,429.76 240.81,429.89C234.22,433.28 227.12,435.11 219.97,436.83C215.43,437.92 210.93,439.2 206.89,441.65C206.16,442.09 205.73,441.83 205.55,441.13C205.07,439.31 203.73,438.43 202.14,437.71C198.14,435.9 194.2,433.98 190.19,432.19C188.53,431.45 186.76,430.92 185.05,430.3C184.79,430.2 184.5,430.15 184.27,430.01C178.65,426.57 172.57,424.26 166.27,422.41C160.62,420.75 155.04,418.86 149.4,417.17C145.12,415.89 140.78,414.82 136.5,413.56C125.83,410.41 115.17,407.2 104.51,404C103.65,403.74 102.82,403.37 101.97,403.05C101.98,402.92 102,402.8 102.01,402.67C102.46,402.67 102.95,402.57 103.37,402.69C110.86,404.77 118.37,406.82 125.83,409C139.88,413.12 153.91,417.28 167.93,421.5C175.48,423.77 182.53,427.29 189.69,430.53C194.09,432.52 198.47,434.54 202.85,436.57C204.25,437.22 205.62,437.78 206.85,436.05C207.1,437.08 207.29,437.89 207.58,439.08C208.13,438.4 208.69,437.97 208.85,437.42C209.12,436.52 209.25,435.54 209.25,434.59C209.25,430.28 209.32,425.97 209.11,421.67C208.94,418.17 208.44,414.68 208.05,411.2C207.94,410.2 207.83,409.23 208.87,408.12C209.23,409.15 209.65,409.95 209.78,410.79C210.47,415.4 211.23,419.98 210.92,424.72C210.64,428.92 211.06,433.17 211.18,437.55C211.71,437.49 212.21,437.48 212.69,437.36C223.28,434.63 233.9,431.92 243.84,427.27C249.46,424.64 254.82,421.41 260.19,418.27C264.57,415.72 268.83,412.97 273.07,410.18C275.6,408.52 278.09,406.75 280.41,404.81C287.43,398.96 295.22,394.23 302.72,389.06C304.17,388.06 305.63,387.09 307.1,386.12C308.01,385.52 308.43,384.67 308.79,383.63C310.75,377.99 308.77,372.7 307.55,367.31C306.77,363.84 304.68,361.5 301.7,359.82C298.82,358.19 295.98,358.89 293.2,360.11C292.9,360.24 292.79,360.87 292.63,361.28C292.43,361.79 292.42,362.46 292.07,362.82C289.82,365.14 287.6,367.52 285.17,369.65C283.14,371.43 280.95,373.07 278.65,374.47C272.18,378.43 265.65,382.29 259.09,386.1C252.91,389.68 246.76,393.33 240.42,396.61C233.48,400.2 226.37,403.47 219.26,406.73C216.52,407.98 213.59,408.82 210.63,409.89C210.56,408.69 211.25,408.3 212.04,407.95C216.87,405.84 221.69,403.74 226.51,401.61C240.71,395.34 254.16,387.67 267.25,379.36C271.03,376.97 274.77,374.5 278.68,372.34C282.67,370.13 285.86,367.06 288.92,363.79C289.35,363.32 289.85,362.91 290.29,362.46C290.62,362.12 291.13,361.77 291.18,361.37C291.37,359.73 292.31,358.63 293.81,357.66C291.42,356.4 289.25,355.26 287.07,354.13C282.33,351.66 277.57,349.22 272.84,346.72C271.92,346.23 271.55,346.42 271.36,347.37C270.01,354.04 266.78,359.73 262.42,364.88C257.79,370.33 253.52,376.1 248.64,381.31C245.82,384.33 242.19,386.64 238.79,389.08C236.63,390.63 234.27,391.93 231.91,393.17C229.63,394.36 227.15,394.9 224.57,395.2C222.01,395.5 219.52,396.4 216.88,396.06C211.62,395.37 206.34,394.8 201.1,393.96C199.12,393.64 197.71,393.81 196.08,395.21C194.02,396.98 191.48,398.18 189.13,399.61C188.8,399.81 188.43,399.95 187.74,400.28C189.68,401.31 191.32,402.26 193.04,403.06C196.58,404.72 200.16,406.28 203.7,407.93C204.67,408.38 205.57,408.99 206.46,409.59C206.73,409.77 206.87,410.15 207.07,410.43C207,410.54 206.93,410.64 206.86,410.75C205.97,410.49 205.03,410.32 204.19,409.94C196.41,406.41 188.69,402.77 180.88,399.32C173.99,396.27 166.93,393.59 160.1,390.43C152.14,386.74 144.34,382.7 136.47,378.79C136.08,378.59 135.77,378.23 135.34,377.88C136.64,376.8 136.61,375.54 136.53,374.17C136.3,370.18 136.25,366.19 136.01,362.2C135.64,356.06 135.1,349.93 134.76,343.79C134.32,335.86 133.99,327.91 133.62,319.98C133.22,311.44 132.78,302.91 132.43,294.37C132.26,290.18 132.29,285.98 132.13,281.79C132.08,280.62 131.92,279.33 131.38,278.33C129.49,274.86 129.39,271.3 130.07,267.52C130.62,264.43 130.95,261.27 131.12,258.13C131.26,255.67 130.96,253.19 130.94,250.72C130.91,247.74 131.99,245.12 133.62,242.67C134.15,241.88 134.74,241.63 135.62,241.91C138.65,242.89 141.74,243.73 144.72,244.84C151.9,247.53 159.01,250.45 166.6,251.74C172.5,252.74 178.46,253.4 184.37,254.33C187.56,254.83 190.69,255.71 193.88,256.15C197.87,256.7 201.89,257.06 205.91,257.36C209.65,257.64 213.41,257.76 217.16,257.93C218.83,258.01 218.86,257.97 218.86,256.34C218.86,248.62 218.89,240.91 218.85,233.19C218.77,216.8 218.61,200.42 218.55,184.03C218.52,176.84 218.7,169.65 218.68,162.46C218.66,156.95 218.33,151.43 218.41,145.93C218.57,134.15 218.92,122.37 219.17,110.59C219.25,106.63 219.22,102.68 219.27,98.72C219.31,95 219.34,91.29 219.45,87.58C219.48,86.71 219.85,85.86 220.06,84.99L220.66,85.05C220.66,86.77 220.68,88.49 220.66,90.2C220.47,103.86 220.27,117.52 220.07,131.18C220.03,133.62 219.96,136.05 219.95,138.49C219.93,155.44 219.91,172.39 219.91,189.34C219.91,198.69 219.9,208.04 220,217.39C220.11,227.66 220.35,237.92 220.56,248.19C220.59,249.86 220.78,251.53 220.9,253.27C222.59,253.94 224.24,253.41 225.87,253.22C232.53,252.46 238.72,250.35 244.65,247.16C251.43,243.51 258.47,240.36 265.28,236.77C272.35,233.05 279.12,228.81 285.61,224.13C287.64,222.67 289.85,221.41 292.09,220.28C296.8,217.9 300.61,214.37 304.41,210.84C304.95,210.34 305.19,209.35 305.27,208.55C306.21,198.77 307.06,188.98 308,179.2C308.59,173.04 309.45,166.9 309.9,160.73C310.34,154.76 310.49,148.76 310.63,142.78C310.85,133.07 310.82,123.36 311.17,113.66C311.4,107.44 312.23,101.24 312.59,95.03C313,88.1 313.26,81.15 313.46,74.21C313.63,68.54 313.62,62.86 313.68,57.19C313.7,55.08 313.13,54.47 311.11,54.93C309.14,55.38 307.23,56.13 305.35,56.88C294.87,61.07 284.29,65.05 273.97,69.6C264.9,73.59 255.79,77.44 246.43,80.63C240.75,82.56 234.8,83.75 228.93,85.1C226.59,85.64 224.35,84.75 222.27,83.65C221.97,83.49 221.66,83.19 221.55,82.88C221.11,81.66 220.19,81.46 219.08,81.55C217.25,81.71 215.4,81.73 213.6,82.07C209.42,82.86 205.41,81.98 201.42,80.99C191.85,78.62 182.32,76.13 172.74,73.81C165.94,72.16 159.08,70.87 152.07,70.53C151.2,70.49 150.32,70.29 149.49,70.04C141.88,67.78 134.02,66.83 126.22,65.61C120.17,64.66 114.27,63.14 108.34,61.72C101.12,59.99 93.86,58.45 86.66,56.62C83.11,55.72 79.68,54.37 76.21,53.18C71.88,51.7 67.44,50.9 62.9,50.31C58.12,49.7 53.38,48.74 48.67,47.69C43.02,46.43 37.39,45.29 31.59,44.74C26.61,44.27 21.7,42.97 16.8,41.9C12.99,41.06 9.22,40.01 5.44,39.03C4.83,38.87 4.24,38.62 3.65,38.42C4.14,37.88 4.56,37.24 5.15,36.83C5.86,36.33 6.69,35.99 7.49,35.64C17.54,31.25 27.49,26.59 37.7,22.58C43.53,20.29 49.77,18.99 55.85,17.37C59.16,16.49 62.54,15.84 65.89,15.13C69.14,14.44 72.02,12.9 74.95,11.44C77.45,10.19 79.96,8.97 82.5,7.8C82.97,7.58 83.58,7.65 84.12,7.58C84.2,7.71 84.28,7.85 84.36,7.98C84.1,8.36 83.92,8.92 83.55,9.09C79.71,10.94 75.86,12.77 71.97,14.52C70.67,15.11 69.3,15.58 67.91,15.91C60.97,17.56 54,19.12 47.05,20.76C38.87,22.69 31.37,26.38 23.79,29.85C18.82,32.12 13.86,34.41 8.89,36.7C8.39,36.93 7.91,37.21 7.11,37.63C7.91,38.06 8.43,38.51 9.03,38.64C16.32,40.23 23.6,41.85 30.92,43.28C33.57,43.8 36.36,43.59 39.01,44.11C44.21,45.13 49.34,46.53 54.54,47.58C58.02,48.28 61.56,48.68 65.08,49.11C69.7,49.68 74.15,50.86 78.49,52.55C85.89,55.43 93.66,56.9 101.38,58.58C106.87,59.78 112.26,61.46 117.77,62.57C124.07,63.84 130.45,64.64 136.78,65.77C142.32,66.76 147.81,68 153.36,68.96C157.96,69.75 162.65,70.03 167.21,70.99C175.02,72.63 182.75,74.62 190.51,76.46C196.22,77.81 201.91,79.2 207.64,80.44C209.01,80.74 210.5,80.59 211.93,80.55C215.12,80.47 218.3,80.28 221.49,80.23C222.7,80.21 223.61,80.71 223.87,82.12C223.95,82.54 224.51,83 224.96,83.2C227,84.08 229.09,83.85 231.19,83.36C243.05,80.62 254.42,76.48 265.62,71.75C278.55,66.28 291.62,61.16 304.63,55.86C305.42,55.54 306.13,55.03 307.19,54.44C306.08,54 305.34,53.66 304.57,53.4C296.11,50.53 287.68,47.59 279.19,44.82C270.89,42.11 262.29,40.67 253.71,39.23C247.43,38.17 241.36,36.5 235.31,34.54C227.81,32.1 220.15,30.11 212.48,28.22C206.07,26.63 199.82,24.6 193.76,22.03C185.71,18.62 177.26,16.75 168.65,15.7C157.95,14.4 147.2,13.51 136.49,12.25C127.1,11.14 117.7,9.99 108.39,8.36C103.36,7.48 98.52,5.51 93.57,4.13C90.37,3.19 87.18,2.44 84,1.7C83.02,1.47 82.44,1.1 82.74,-0L82.98,-0ZM222.34,256.66C222.5,259.28 222.65,261.74 222.81,264.19C222.87,265.07 223.01,265.94 223.02,266.82C223.12,271.65 223.09,276.48 223.31,281.31C223.41,283.56 223.84,285.82 224.37,288.01C224.7,289.36 226.3,289.63 227.17,288.53C227.82,287.71 228.6,287.52 229.5,287.33C230.19,287.18 230.88,286.93 231.52,286.63C234.95,284.99 238.4,283.37 242.26,283.09C244.29,282.94 246.18,282.49 248,281.59C251.76,279.72 255.75,279.01 259.96,279.18C261.45,279.24 263.11,278.94 264.46,278.32C269.17,276.16 273.75,273.71 278.45,271.51C282.95,269.41 287.05,266.8 290.57,263.28C291.39,262.46 292.28,261.72 293.13,260.94C295.31,258.94 297.48,256.94 299.67,254.95C302.42,252.45 303.28,249.11 304.21,245.66C306.26,237.98 307.62,230.23 307.9,222.29C307.99,219.83 307.71,217.42 306.73,215.14C305.85,213.06 305,212.79 303.41,214.31C299.45,218.1 294.76,220.82 290.16,223.73C275.44,233.04 260.37,241.71 244.62,249.18C237.63,252.49 230.47,255.05 222.64,255.25C221.43,255.28 220.77,255.9 220.42,257.05C219.84,258.96 218.82,259.62 216.86,259.52C214.51,259.4 212.15,259.3 209.8,259.21C202.41,258.92 195.06,258.45 187.82,256.7C185.32,256.1 182.66,256.22 180.11,255.83C176.16,255.23 172.24,254.47 168.31,253.79C162.41,252.76 156.57,251.57 151.03,249.12C147.42,247.52 143.67,246.26 139.96,244.91C139.15,244.62 138.26,244.48 137.4,244.45C136.39,244.41 135.7,244.87 135.48,245.99C134.88,249.17 134.17,252.32 133.58,255.5C133.26,257.26 132.84,259.05 132.9,260.82C133.08,266.44 133.48,272.06 133.77,277.68C133.83,278.78 134.23,279.64 135.06,280.39C136.86,282.01 138.96,283.02 141.29,283.55C148.49,285.18 155.7,286.76 162.9,288.39C167.66,289.47 172.43,289.75 177.29,289.17C185.24,288.22 193.14,287.04 201.25,287.55C208.54,288.01 215.75,288.86 222.99,289.88C222.99,289.51 223.1,289 222.97,288.57C221.65,284.25 221.84,279.81 221.75,275.38C221.66,270.91 221.33,266.45 221.1,261.99C221.03,260.64 220.86,259.29 220.88,257.95C220.91,256.98 221.47,256.44 222.34,256.66ZM268.5,343.92C269.35,342.87 270.12,341.95 269.76,340.58C269.45,339.42 269.35,338.21 268.97,337.08C268.48,335.62 268.03,334.05 267.15,332.84C265.525,330.614 263.733,328.514 261.79,326.56C258.66,323.42 257.41,319.74 257.72,315.37C257.86,313.43 257.79,311.45 257.59,309.52C257.42,307.89 256.02,307 254.45,307.44C253.35,307.74 252.28,308.24 251.31,308.84C249.73,309.81 249.74,310.58 250.7,312.2C251.41,313.41 252.1,314.76 252.29,316.12C252.89,320.37 250.99,323.79 248.22,326.82C243.92,331.53 238.57,334.79 233.01,337.72C229.17,339.74 225.14,341.44 221.33,343.51C216.53,346.12 211.43,347.94 206.31,349.7C201.9,351.22 197.26,351.11 192.66,350.9C191.4,350.84 190.98,351.41 190.92,352.44C190.73,355.54 190.2,358.69 190.5,361.75C191.06,367.34 192.18,372.87 192.96,378.44C193.32,381.02 194.14,383.24 196.46,384.66C197.19,385.11 197.15,385.67 196.92,386.39C196.55,387.54 196.21,388.84 197.26,389.76C199.14,391.39 201.19,392.79 203.75,393.13C206.6,393.51 209.45,393.88 212.3,394.23C219.32,395.07 226.15,394.33 232.43,390.98C239.93,386.98 246.55,381.8 251.87,375.1C255.3,370.78 258.56,366.32 262.16,362.16C265.84,357.91 268.13,353.06 269.59,347.71C269.97,346.24 269.99,344.94 268.5,343.92ZM194.07,321.71C193.68,321.71 193.45,321.7 193.21,321.71C190.85,321.84 188.54,322.44 186.71,323.84C184.66,325.4 182.95,327.41 181.13,329.27C179.5,330.94 178.78,332.99 179.19,335.3C179.47,336.9 179.78,338.54 180.37,340.05C182.17,344.73 185.8,347.56 190.49,348.72C192.48,349.21 194.71,349.2 196.82,349.33C200.57,349.56 204.17,348.58 207.72,347.4C213.84,345.36 219.51,342.35 225.27,339.49C230.49,336.89 235.73,334.35 240.52,331C244.08,328.51 247.34,325.7 249.61,321.92C250.58,320.31 251.1,318.57 250.72,316.66C250.06,313.3 247.72,311.54 244.68,310.67C237.03,308.49 229.53,309.01 222.2,312.14C220.74,312.76 219.24,313.4 217.7,313.7C213.62,314.47 209.51,315.03 205.41,315.71C203.57,316.02 201.62,316.11 199.94,316.82C197.76,317.74 195.81,319.19 193.74,320.42C193.86,320.89 193.95,321.23 194.07,321.71ZM187.38,349.49C184.65,347.64 182.24,345.95 179.77,344.36C177.9,343.16 176.06,343.43 174.15,344.55C168.37,347.96 165,353.07 163.3,359.43C162.3,363.18 162.42,366.84 163.99,370.44C164.58,371.78 165.08,373.18 165.47,374.59C167.18,380.82 169.62,386.67 174.07,391.49C176.82,394.47 179.96,396.74 184.16,397.19C184.51,397.23 184.93,397.58 185.11,397.9C185.63,398.85 186.29,399.11 187.27,398.63C188.63,397.96 190.04,397.39 191.37,396.67C193.53,395.51 195.44,394.03 197.04,392.02C195.27,390.49 194.86,388.53 195.26,386.17C194.59,386.31 194.13,386.35 193.71,386.51C191.69,387.26 189.68,388.04 187.68,388.82C186.38,389.32 185.05,389.38 183.86,388.68C180.76,386.86 177.98,384.65 176.19,381.45C174.83,379.01 173.56,376.52 172.31,374.03C171.26,371.94 170.42,369.72 170.62,367.37C171.2,360.59 174.35,355.41 180.6,352.38C182.66,351.38 184.84,350.57 187.38,349.49ZM193.11,385.07C192.55,383.36 191.93,381.87 191.6,380.33C190.99,377.41 190.66,374.42 190.02,371.5C188.7,365.57 188.07,359.62 188.97,353.56C189.1,352.72 189.16,351.87 189.26,350.92C184.25,352.19 179.72,353.97 176.37,357.89C172.84,362.03 171.16,366.7 173.43,371.94C174.99,375.55 177,378.97 178.99,382.37C180.21,384.466 182.108,386.086 184.37,386.96C185.12,387.25 186.07,387.53 186.79,387.32C188.97,386.69 191.06,385.82 193.11,385.07ZM135.12,244.41C135.2,244.5 135.06,244.36 134.95,244.2C134.81,244 134.7,243.78 134.49,243.41C133.01,246.14 132.25,248.66 133.01,251.45C133.45,249.88 133.72,248.28 134.11,246.7C134.28,245.99 134.7,245.34 135.12,244.41ZM131.91,268.93C131.79,268.93 131.67,268.94 131.55,268.94C131.26,270.58 130.87,272.22 131.91,274.1L131.91,268.93Z" style="fill-rule:nonzero;"/>
                <path d="M130.86,332.46C130.58,344.42 129.48,356.3 127,368.02C126.32,371.22 125.74,374.44 124.96,377.62C124.01,381.47 121.89,383.26 117.95,383.48C114.85,383.65 111.73,383.52 108.62,383.61C106.35,383.68 104.08,383.85 101.81,384.03C95.82,384.51 89.94,383.88 84.1,382.51C77.36,380.93 70.53,380.71 63.64,381C59.19,381.18 54.67,381.16 50.38,379.62C44.56,377.53 40.41,373.55 37.71,368.04C35.48,363.49 33.28,358.92 31.13,354.33C29.25,350.31 28.41,345.97 27.88,341.62C27.16,335.72 26.76,329.78 26.17,323.87C25.9,321.13 25.46,318.41 25.19,315.67C24.59,309.54 25.11,303.46 26.23,297.43C27.98,288.09 28.29,278.72 27.03,269.29C26.35,264.19 26.75,259.08 27.22,253.99C27.51,250.89 27.93,247.8 28.3,244.71C28.71,241.31 30.36,238.63 33.08,236.59C34.9,235.23 36.75,233.89 38.58,232.54C39.87,231.58 41.31,231.23 42.9,231C46.8,230.46 50.7,229.79 54.56,229C58.1,228.27 61.58,228.15 65.11,229.09C68.77,230.07 72.53,230.29 76.29,229.98C81.28,229.57 86.17,230.11 91.03,231.19C92.47,231.51 93.94,231.7 95.38,232.03C96.33,232.25 97.52,231.91 98.11,233.13C98.19,233.29 98.78,233.23 99.12,233.21C102.02,233.06 104.98,232.54 107.78,233.65C109.99,234.53 112.14,235.62 114.21,236.79C114.9,237.18 115.42,238.06 115.78,238.83C118.9,245.57 120.4,252.73 121.15,260.09C121.96,268.03 122.73,275.99 123.82,283.9C124.22,286.82 125.51,289.62 126.37,292.49C128.35,299.06 129.38,305.79 129.81,312.63C130.1,317.37 130.56,322.1 130.86,326.84C130.96,328.71 130.86,330.59 130.86,332.46ZM97.04,233.67C95.41,233.42 94.08,233.3 92.78,233.01C87.54,231.87 82.28,230.93 76.88,231.27C72.46,231.55 68.13,231.08 63.81,230.08C61.87,229.63 59.75,229.54 57.77,229.77C54.89,230.11 52.08,231.07 49.21,231.45C44.1,232.13 39.1,232.95 35.16,236.71C35.1,236.76 35.02,236.79 34.96,236.84C32.21,238.68 30.39,241.18 29.73,244.43C29.35,246.3 29.18,248.22 28.89,250.11C27.98,256.02 27.74,261.94 28.24,267.9C28.68,273.23 29.23,278.59 29.12,283.92C29.02,288.44 28.16,292.96 27.44,297.44C26.37,304.06 25.83,310.68 26.61,317.36C26.9,319.82 27.3,322.26 27.57,324.72C28.17,330.39 28.61,336.09 29.32,341.75C30,347.16 31.44,352.37 34.17,357.18C35.66,359.81 36.94,362.58 38.09,365.37C42.05,374.98 50.82,380.53 61.19,379.81C68.07,379.33 74.89,379.45 81.69,380.87C86.17,381.8 90.72,382.56 95.28,382.99C98.11,383.25 101,382.71 103.87,382.58C108.26,382.39 112.65,382.29 117.04,382.08C120.76,381.91 122.91,380.22 123.48,376.69C124.22,372.07 125.41,367.56 126.33,362.99C127.3,358.15 127.61,353.18 128.24,348.27C129.21,340.76 129.19,333.2 129.19,325.66C129.19,321.24 128.66,316.82 128.31,312.4C127.83,306.22 126.86,300.11 125.17,294.13C124.19,290.68 122.9,287.26 122.39,283.73C121.2,275.55 120.42,267.32 119.45,259.11C118.78,253.43 117.79,247.82 115.65,242.46C114.21,238.84 111.66,236.49 107.97,235.28C104.77,234.23 101.54,234.14 98.3,234.96C96.29,235.46 94.31,236.09 92.31,236.64C91.94,236.74 91.54,236.72 91.16,236.76C91.14,236.66 91.12,236.55 91.11,236.45C92.99,235.58 94.88,234.69 97.04,233.67Z" style="fill-rule:nonzero;"/>
                <path d="M1.9,40.02C1.9,43.17 1.78,45.99 1.92,48.8C2.3,55.94 2.83,63.07 3.23,70.21C3.8,80.38 4.66,90.55 4.75,100.72C4.87,114.93 6.15,129.04 7.65,143.14C9.04,156.25 10.07,169.39 10.59,182.57C11.14,196.58 11.4,210.6 12.18,224.59C12.86,236.87 14.02,249.12 15.09,261.37C16.23,274.46 17.52,287.54 18.75,300.62C19.28,306.23 19.91,311.83 20.32,317.44C20.59,321.14 20.55,324.86 20.67,328.58C20.98,338.32 21.22,348.06 21.66,357.8C21.81,361.18 22.48,364.53 22.87,367.9C23.05,369.45 23.17,371 23.24,372.56C23.3,373.92 23.89,374.75 25.2,375.23C26.57,375.74 27.91,376.39 29.19,377.11C33.7,379.67 38.62,381.22 43.51,382.83C61.51,388.75 79.51,394.65 97.5,400.6C98.72,401 99.84,401.69 101.01,402.25C100.96,402.42 100.92,402.59 100.87,402.77C100.25,402.71 99.59,402.75 99.01,402.56C79.27,396.08 59.51,389.64 39.81,383.03C35.93,381.73 32.24,379.86 28.51,378.14C26.58,377.25 24.74,376.25 22.53,376.21C22.22,376.2 21.68,375.6 21.66,375.24C20.95,364.52 20.19,353.8 19.65,343.07C19.19,333.9 19.11,324.7 18.65,315.53C18.39,310.31 17.68,305.11 17.2,299.9C16.64,293.77 16.16,287.64 15.59,281.52C14.85,273.57 14.05,265.62 13.3,257.66C11.76,241.32 10.13,224.99 10.17,208.53C10.2,198.76 9.4,188.98 8.95,179.21C8.72,174.18 8.53,169.15 8.12,164.14C7.54,157.13 6.76,150.15 6.08,143.15C4.87,130.75 3.63,118.36 3.46,105.87C3.33,94.93 2.54,84 1.97,73.08C1.49,63.87 0.89,54.66 0.37,45.45C0.32,44.62 0.28,43.73 0.51,42.95C0.79,41.98 1.37,41.1 1.9,40.02ZM300.07,140.42C297.62,140.09 295.37,140.6 293.13,141.17C281.41,144.14 269.91,147.87 258.44,151.68C254.44,153.01 250.33,154.03 246.22,155.03C245.21,155.28 244.03,154.93 242.95,154.73C242.67,154.68 242.22,154.02 242.29,153.87C242.47,153.51 243.01,152.99 243.26,153.06C248.36,154.47 252.71,151.78 257.27,150.46C268.57,147.18 279.78,143.61 291.06,140.28C293.84,139.46 296.75,139.03 299.61,138.52C300.4,138.38 300.67,138.07 300.73,137.32C300.86,135.61 301.18,133.91 301.21,132.2C301.27,129.39 299.6,127.72 296.78,127.64C294.09,127.56 291.57,128.3 289.13,129.35C288.8,129.49 288.47,129.62 288.13,129.76C287.45,128.95 287.66,128.36 288.52,127.93C291.55,126.42 294.75,125.68 298.14,126.01C300.24,126.21 301.58,127.36 302.12,129.42C303.33,134.05 302.39,138.52 301.05,142.95C300.67,144.2 300.29,145.44 299.79,147.06C300.58,146.71 301.04,146.4 301.53,146.32C302.01,146.24 302.53,146.41 303.04,146.47C302.81,146.96 302.67,147.54 302.32,147.92C302.06,148.21 301.52,148.24 301.11,148.39C299.29,149.07 298.21,150.31 298.18,152.33C298.17,152.66 298.06,152.98 297.99,153.31L297.54,153.43C297.18,152.66 296.83,151.89 296.4,150.97C295.29,151.37 294.09,151.76 292.92,152.24C286.27,154.95 279.77,158.11 272.96,160.32C260.86,164.25 248.81,168.4 236.36,171.13C235.04,171.42 233.69,171.63 232.35,171.83C230.23,172.14 228.58,171.34 227.18,169.73C224.75,166.94 224.16,163.71 224.76,160.21C225.83,153.95 226.98,147.71 228.08,141.46C228.26,140.42 228.88,139.91 229.85,139.61C239.34,136.61 249.01,134.34 258.81,132.68C265.35,131.57 271.8,130.13 278.09,127.98C279.28,127.57 280.66,127.74 281.95,127.58C282.52,127.51 283.08,127.32 283.62,127.13C284.63,126.79 285.62,126.38 286.63,126.06C286.86,125.99 287.16,126.15 287.42,126.2C287.44,126.32 287.45,126.44 287.47,126.55C286.73,126.88 286.02,127.31 285.25,127.52C281.92,128.46 278.58,129.41 275.22,130.22C268.93,131.72 262.65,133.22 256.32,134.54C248.12,136.25 239.84,137.57 231.88,140.31C229.45,141.15 228.76,142.26 228.57,144.76C228.37,147.42 227.82,150.05 227.44,152.7C227.01,155.66 226.53,158.62 226.19,161.6C225.8,165.02 227.43,167.64 229.93,169.72C230.5,170.2 231.62,170.34 232.4,170.19C239.63,168.86 246.74,167.12 253.67,164.61C258.38,162.9 263.25,161.62 268.02,160.08C276.99,157.2 285.75,153.78 294.39,150.01C296.68,149.01 298.14,147.44 298.65,144.93C299.01,143.41 299.59,141.96 300.07,140.42ZM232.57,191.82C232.06,193.35 231.7,194.94 231,196.38C229.18,200.15 227.13,203.82 225.33,207.6C224.52,209.31 223.87,211.16 223.5,213.01C222.86,216.26 224.74,218.19 228.04,217.88C230.58,217.64 233.12,217.28 235.66,217.06C236.81,216.96 238,216.91 239.12,217.11C242.8,217.77 246.29,217.06 249.66,215.7C260.83,211.2 271.99,206.65 283.14,202.1C287.31,200.4 291.46,198.61 295.64,196.95C298.26,195.91 299.72,194.08 300.26,191.33C301.1,187.09 300.97,183.08 298.14,179.5C296.9,177.93 295.58,176.6 293.1,177.17C293.24,176.42 293.15,175.64 293.49,175.37C293.83,175.09 294.62,175.17 295.13,175.34C298.59,176.46 300.31,179.03 301.18,182.45C302.3,186.84 301.99,191.15 301.02,195.49C300.76,196.65 299.83,197.03 298.92,197.42C295.04,199.09 291.16,200.79 287.25,202.39C275.44,207.23 263.61,212.02 251.8,216.86C248.12,218.37 244.35,219.22 240.36,218.76C236.51,218.32 232.75,218.81 228.95,219.49C223.37,220.49 220.72,217.72 221.97,212.16C222.48,209.86 223.5,207.63 224.59,205.52C226.75,201.3 229.45,197.35 230.99,192.81C231.16,192.32 231.67,191.94 232.02,191.51C232.21,191.62 232.39,191.72 232.57,191.82Z" style="fill-rule:nonzero;"/>
                <path d="M289.93,172.52C290.04,173.84 289.2,174.03 288.47,174.32C281.22,177.18 273.7,179.17 266.16,181.08C260.9,182.41 255.59,183.55 250.39,185.06C247.23,185.97 244.2,187.37 241.14,188.62C239.22,189.41 237.38,190.38 235.46,191.16C234.79,191.43 233.99,191.38 233.24,191.47C233.18,191.31 233.12,191.14 233.06,190.98C233.68,190.54 234.25,190.03 234.91,189.66C242.35,185.53 250.49,183.39 258.67,181.37C268.62,178.92 278.59,176.54 288.18,172.84C288.69,172.64 289.26,172.63 289.93,172.52ZM308.03,61.88C308.57,64.3 308.01,66.37 307.31,68.43C306.52,70.77 305.67,73.1 305.04,75.48C304.77,76.52 304.92,77.69 305.01,78.79C305.06,79.4 304.99,79.81 304.4,80.01C302.1,80.78 299.82,81.59 297.5,82.3C296.02,82.76 294.5,83.13 292.98,83.44C292.29,83.58 291.54,83.56 290.85,83.45C290.02,83.32 289.55,82.7 289.81,81.87C290.72,78.99 291.7,76.14 292.64,73.27C292.75,72.94 292.91,72.54 292.82,72.25C292.54,71.38 292.96,70.85 293.61,70.46C298.36,67.62 303.13,64.79 308.03,61.88ZM306.46,64.82C303.84,66.2 301.61,67.44 299.32,68.55C297.12,69.62 294.95,70.65 294.11,73.21C294.09,73.28 294.02,73.34 293.98,73.41C292.19,76.09 291.84,79.12 291.64,82.34C295.04,81.38 298.26,80.48 301.48,79.57C302.42,79.3 303,78.66 303.09,77.7C303.46,74.05 304.72,70.65 306.03,67.26C306.28,66.61 306.28,65.86 306.46,64.82ZM240.12,201.27C245.28,202.08 249.9,199.83 254.64,198.47C265.95,195.24 277.19,191.77 288.46,188.42C289.87,188 291.33,187.74 292.77,187.44C293.1,187.37 293.53,187.38 293.8,187.54C294.04,187.69 294.2,188.1 294.24,188.41C294.26,188.57 293.95,188.91 293.76,188.93C283.24,190.39 273.56,194.79 263.45,197.64C257.31,199.37 251.17,201.1 245.01,202.75C243.8,203.08 242.48,203.1 241.21,203.13C239.9,203.19 239.59,202.61 240.12,201.27ZM235.25,152.29C241.56,149.17 290.72,135 292.28,136.03C291.57,136.47 291.01,137.01 290.34,137.19C285.65,138.47 280.9,139.54 276.24,140.93C264.2,144.51 252.2,148.21 240.19,151.9C238.62,152.39 237.08,152.9 235.25,152.29ZM286.7,185.61C284.71,186 282.91,186.47 281.07,186.7C268.8,188.2 257.19,191.95 245.9,196.85C244.29,197.55 242.65,198.17 240.99,198.74C240.52,198.9 239.95,198.75 239.43,198.74C239.76,198.3 240.08,197.85 240.44,197.44C240.56,197.3 240.78,197.23 240.96,197.16C248.74,193.96 256.42,190.43 264.63,188.45C270.91,186.94 277.27,185.78 283.61,184.5C284.99,184.22 285.53,184.45 286.7,185.61ZM204.36,248.71C201.32,248.47 198.74,248.27 196.17,248.04C195.89,248.02 195.63,247.82 195.36,247.71C195.53,247.42 195.64,246.96 195.87,246.89C196.53,246.67 197.26,246.44 197.93,246.51C202.3,246.98 206.66,247.05 211.04,246.64C211.2,246.63 211.38,246.59 211.51,246.65C211.9,246.84 212.28,247.08 212.66,247.29C212.32,247.49 211.99,247.82 211.63,247.87C209.07,248.2 206.5,248.47 204.36,248.71ZM164.35,218.92C164.03,217.98 164.35,217.32 165.42,217.04C168.57,216.23 171.76,215.79 175.01,216.1C175.46,216.14 175.88,216.43 176.32,216.61C176.31,216.76 176.3,216.91 176.28,217.07C172.35,217.67 168.42,218.28 164.35,218.92ZM152.28,96.42C152.71,96.18 153.14,95.74 153.57,95.74C157.54,95.77 161.55,95.34 165.45,96.45C165.9,96.58 166.35,96.76 167.16,97.04C166.33,97.28 165.83,97.57 165.34,97.54C161.01,97.34 156.68,97.09 152.34,96.85C152.32,96.72 152.3,96.57 152.28,96.42ZM173.65,242.5C169.43,244.41 165.46,242.81 161.41,242.05C161.69,240.7 162.14,240.4 163.31,240.6C166.32,241.12 169.34,241.61 172.35,242.13C172.79,242.21 173.22,242.38 173.65,242.5ZM164.31,194.56C164.8,194.38 165.31,194.03 165.79,194.04C168.57,194.15 171.36,194.32 174.13,194.55C174.53,194.58 174.9,195.07 175.28,195.34C174.89,195.51 174.51,195.82 174.12,195.82C171.38,195.8 168.63,195.75 165.89,195.63C165.36,195.61 164.85,195.24 164.33,195.04C164.33,194.89 164.32,194.72 164.31,194.56ZM156.23,134.32C158.07,130.93 165.23,129.93 167.66,132.33C163.53,132.35 159.71,132.46 156.23,134.32ZM190.46,124.23C190.77,123.87 191.02,123.33 191.41,123.18C193.77,122.27 196.15,121.4 198.56,120.63C198.96,120.5 199.54,120.91 200.03,121.06L199.97,121.49C196.89,122.48 193.8,123.48 190.72,124.47C190.64,124.39 190.55,124.31 190.46,124.23ZM193.84,225.52C194.29,225.25 194.74,224.78 195.21,224.75C197.27,224.62 199.34,224.6 201.41,224.59C201.65,224.59 201.89,224.97 202.12,225.17C201.9,225.35 201.7,225.66 201.47,225.69C199.39,225.96 197.3,226.21 195.2,226.38C194.79,226.41 194.36,226.1 193.94,225.94C193.91,225.8 193.88,225.66 193.84,225.52ZM203.49,201.11C202.8,201.33 202.12,201.74 201.43,201.74C199.25,201.75 197.6,202.06 195.33,203.13C195.01,202.12 195.17,201.7 196.04,201.24C198.12,200.13 201.06,199.91 203.34,200.68C203.39,200.82 203.44,200.96 203.49,201.11ZM164.12,113.11C160.58,113.21 157.36,113.31 154.13,113.36C153.94,113.36 153.75,113.04 153.54,112.85C156.43,111.33 161.51,111.37 164.12,113.11ZM204.94,179.99C202.22,180.28 199.63,180.55 196.96,180.83C198.81,178.25 203.75,177.63 204.94,179.99ZM164.11,171.32C164.55,171 164.99,170.42 165.44,170.4C167.77,170.31 170.11,170.36 172.52,170.36C171.37,171.59 166.83,172.25 164.11,171.32ZM167.6,152.84C167.27,153.15 166.98,153.66 166.61,153.72C164.77,154.04 162.92,154.28 161.07,154.45C160.45,154.51 159.8,154.25 159.17,153.99C161.83,152.82 164.59,152.55 167.4,152.53C167.46,152.64 167.53,152.74 167.6,152.84ZM203.42,150.07C200.72,150.61 198.2,151.12 195.6,151.64C197.02,149.4 201.08,148.54 203.42,150.07ZM198.74,100.44C196.2,101.33 193.95,100.84 191.69,99.96C193.49,99.31 196.67,99.51 198.74,100.44Z" style="fill-rule:nonzero;"/>
                <path d="M204.05,326.59C204.1,324.34 205.04,322.7 207.21,321.86C208.62,321.31 209.99,320.63 211.43,320.23C212.19,320.02 213.38,319.98 213.82,320.42C214.28,320.88 214.36,322.12 214.09,322.82C212.79,326.22 210.28,328.35 206.7,329.08C205.05,329.42 204.01,328.35 204.05,326.59ZM212.7,321.94C212.4,321.89 212.06,321.72 211.81,321.81C210.21,322.36 208.53,322.79 207.06,323.59C205.83,324.26 205.78,325.65 205.96,326.95C208.91,327.16 212.08,324.79 212.7,321.94ZM57.26,297.57C66.13,296.89 74.83,297.24 83.32,299.85C85.73,300.59 87.85,301.82 89.69,303.54C91.19,304.95 91.84,306.66 91.56,308.72C91.4,309.93 91.32,311.16 91.2,312.5C91.89,312.42 92.48,312.38 93.05,312.26C94.66,311.93 96.2,312.07 97.75,312.66C98.59,312.98 99.53,313.15 100.44,313.21C102.7,313.35 104.39,314.46 105.62,316.25C108.95,321.1 110.08,326.17 107.09,331.65C106.14,333.4 105.34,335.24 104.35,336.97C103.8,337.93 103.1,338.84 102.3,339.59C100.3,341.48 98.21,343.29 96.13,345.09C94.48,346.52 93.66,346.74 92.16,346.2C92.52,345.86 92.82,345.57 93.13,345.29C95.74,342.99 98.36,340.72 100.94,338.39C101.55,337.84 102.1,337.17 102.51,336.45C103.85,334.09 105.14,331.7 106.39,329.3C108.7,324.87 106.9,318.33 102.62,315.75C101.79,315.25 100.78,315 99.82,314.76C98.43,314.41 97.01,314.17 95.6,313.89C95.25,313.82 94.86,313.68 94.54,313.77C93.63,314.04 92.14,314.22 91.98,314.76C91.55,316.24 90.67,318 92.11,319.21C92.88,318.78 93.49,318.19 94.16,318.1C98.97,317.47 102.81,322.32 101.1,326.88C100.78,327.73 100.14,328.61 99.4,329.12C96.84,330.88 94.18,332.49 91.53,334.17C90.77,333.25 91.21,332.68 91.96,332.18C94.02,330.81 96.09,329.44 98.15,328.07C99.33,327.28 99.94,326.19 100.01,324.76C100.18,321.05 96.83,318.67 92.69,319.78C93.11,320.68 93.47,321.6 93.95,322.43C94.94,324.15 94.92,325.73 93.59,327.28C92.19,328.91 90.85,330.6 89.49,332.26C89.37,332.2 89.25,332.13 89.13,332.07C89.54,331.18 89.88,330.25 90.38,329.42C91.1,328.23 91.95,327.11 92.74,325.96C93.46,324.92 93.47,323.89 92.75,322.84C92.27,322.15 91.83,321.44 91.32,320.77C89.53,318.43 89.14,315.79 89.55,312.94C89.78,311.33 89.9,309.71 90.07,308C88.26,308.41 86.57,309.04 84.87,309.13C81.49,309.3 78.09,309.2 74.7,309.15C72.27,309.12 69.82,309.13 67.4,308.89C60.89,308.22 55.85,305.03 52.23,299.62C51.96,299.22 52.09,298.57 52.03,298.03C52.16,297.98 52.29,297.94 52.41,297.89C52.73,298.26 53.12,298.58 53.37,298.99C56.8,304.67 62.02,307.19 68.46,307.44C73.45,307.63 78.44,307.69 83.43,307.76C85.78,307.79 87.44,307.24 89.5,305.94C88.61,303.3 86.79,301.51 84.13,300.86C77.69,299.29 71.23,297.82 64.5,298.37C62.73,298.51 60.91,298.29 59.13,298.14C58.49,298.11 57.88,297.78 57.26,297.57ZM62.75,349.07C58.08,347.5 55.18,344.37 53.13,340.31C51.39,336.86 49.4,333.52 47.69,330.05C44.62,323.84 43.53,317.33 45.35,310.53C46.19,307.41 47.87,304.77 50.29,302.62C50.66,302.29 51.14,302.1 51.57,301.85C51.67,301.97 51.78,302.09 51.88,302.21C51.32,302.95 50.81,303.74 50.2,304.44C46.51,308.64 45.37,313.5 45.85,319.02C46.26,323.73 47.49,328.09 49.81,332.19C51.52,335.21 53.14,338.28 54.9,341.28C55.99,343.15 57.35,344.8 59.37,345.83C60.29,346.29 61.12,346.96 61.89,347.64C62.3,347.98 62.48,348.58 62.75,349.07Z" style="fill-rule:nonzero;"/>
                <path d="M62.84,351.59C63.4,350.6 63.78,349.86 64.23,349.18C64.36,348.98 64.81,348.78 64.97,348.86C69.37,350.98 73.74,349.47 78.11,348.77C81.51,348.22 84.06,346.57 85.36,343.09C87.07,344.28 88.54,343.63 90.05,342.88C92.19,341.82 94.37,340.86 96.57,339.84C97.29,340.62 97.13,341.2 96.34,341.61C93.8,342.95 91.36,344.64 88.66,345.47C86.46,346.15 84.75,347.34 82.95,348.57C80.28,350.38 77.19,350.94 74.08,351.12C71.47,351.27 68.84,350.99 66.21,350.97C65.46,350.97 64.71,351.23 63.96,351.37C63.7,351.42 63.42,351.48 62.84,351.59ZM81.43,290.56C81.55,289.91 81.6,289.23 81.81,288.6C82.92,285.32 84.25,282.1 85.13,278.77C85.58,277.09 85.27,275.21 85.26,273.42C85.26,272.83 85.11,272.23 85.04,271.64C84.73,269.07 85.75,267.22 88.04,266.05C88.29,265.92 88.53,265.79 88.79,265.68C90.3,265.08 91.42,264.24 90.88,262.28C91.18,262.69 91.49,263.09 91.77,263.51C92.32,264.34 92.26,265.13 91.42,265.7C90.6,266.26 89.74,266.78 88.85,267.22C86.66,268.32 85.81,269.86 86.19,272.29C86.72,275.69 86.81,279.02 85.46,282.31C84.75,284.03 84.5,285.94 83.86,287.7C83.46,288.81 82.71,289.79 82.12,290.83C81.91,290.75 81.67,290.65 81.43,290.56ZM63.41,261.24C62.91,260.87 62.5,260.57 62.1,260.27L62.34,259.88C62.82,260.14 63.58,260.3 63.72,260.69C63.88,261.11 63.62,261.89 63.27,262.25C62.61,262.93 61.75,263.41 61,264C58.99,265.57 56.94,267.11 55,268.77C53.12,270.37 52.86,271.68 53.73,274C55,277.36 56.42,280.69 55.9,284.48C55.81,284.2 55.72,283.93 55.63,283.65C54.54,280.44 53.46,277.23 52.37,274.02C51.61,271.78 51.79,269.65 53.69,268.12C56.2,266.1 58.89,264.29 61.52,262.41C62.06,262.02 62.66,261.7 63.41,261.24ZM74.16,289.54C74.14,288.82 74.25,288.07 74.08,287.39C73.89,286.61 73.65,285.56 73.08,285.22C69.84,283.25 70.24,279.19 71.31,276.37C71.71,275.33 72.32,274.36 72.62,273.29C72.97,272.07 73.09,270.78 73.38,269.1C73.68,269.89 74.13,270.47 74.05,270.98C73.83,272.42 73.48,273.86 73.02,275.25C72.58,276.57 71.93,277.82 71.4,279.11C70.74,280.74 71.06,282.15 72.37,283.33C73.05,283.94 73.77,284.53 74.39,285.19C75.65,286.54 75.51,288.19 74.11,289.49L74.16,289.54Z" style="fill-rule:nonzero;"/>
                <path d="M74.12,289.5C73.6,291.22 72.35,292.25 70.59,293.26C71.4,291.37 72.36,290.06 74.16,289.54L74.12,289.5Z" style="fill-rule:nonzero;"/>
                <path d="M212.7,321.94C212.07,324.79 208.91,327.15 205.96,326.95C205.78,325.65 205.83,324.26 207.06,323.59C208.53,322.79 210.21,322.35 211.81,321.81C212.06,321.72 212.4,321.89 212.7,321.94Z" style="fill:white;fill-rule:nonzero;"/>
            </g>
        </g>
    </g>
</svg>
