<?xml version="1.0" encoding="UTF-8" standalone="no"?>
<!DOCTYPE svg PUBLIC "-//W3C//DTD SVG 1.1//EN" "http://www.w3.org/Graphics/SVG/1.1/DTD/svg11.dtd">
<svg width="100%" height="100%" viewBox="0 0 2275 2275" version="1.1" xmlns="http://www.w3.org/2000/svg" xmlns:xlink="http://www.w3.org/1999/xlink" xml:space="preserve" xmlns:serif="http://www.serif.com/" style="fill-rule:evenodd;clip-rule:evenodd;stroke-linejoin:round;stroke-miterlimit:2;">
    <g id="Ace" transform="matrix(1,0,0,1,1434.93,-3215.91)">
        <rect x="-1434.93" y="3215.91" width="2274.98" height="2274.98" style="fill:none;"/>
        <g transform="matrix(4.5599,0,0,4.5599,-1452.78,3594.82)">
            <path d="M102.82,147.28C103.13,143.74 102.51,142.69 99.37,141.14C98.12,140.52 96.9,139.83 95.69,139.14C95.01,138.75 94.51,138.22 95.04,137.39C95.59,136.54 96.33,136.52 97.1,137.07C97.98,137.7 98.82,138.37 99.68,139.02C100.54,139.67 101.41,140.3 102.35,140.99C102.52,140.48 102.67,140.06 102.81,139.63C103.04,141.41 104.23,142.53 105.4,143.68C109.08,147.29 112.7,150.96 116.42,154.53C118.71,156.73 121.51,157.56 124.86,157.05C124.59,156.18 124.4,155.37 124.09,154.61C120.61,145.91 117.11,137.21 113.62,128.51C112.11,124.74 110.67,120.93 109.1,117.18C108.55,115.87 108.17,114.35 106.64,113.66C106.53,113.61 106.51,113.31 106.48,113.12C106.21,111.29 104.93,110.11 103.74,108.88C103.71,108.85 103.68,108.81 103.65,108.81C101.81,108.64 101.64,106.9 100.78,105.73C101.22,105.31 101.67,104.89 102.22,104.36C103.79,106.02 105.39,107.73 107,109.44C108.22,110.74 108.47,110.88 109.83,109.79C114.06,106.42 118.99,104.29 123.67,101.71C127.86,99.4 132,96.97 136.09,94.48C136.96,93.95 137.54,92.97 138.33,92.12C139.11,92.78 139.88,92.37 140.68,91.84C150.14,85.6 160.42,80.87 170.39,75.57C171.42,75.02 172.27,74.14 173.28,73.54C173.96,73.13 174.8,73 175.53,72.66C177.95,71.52 180.32,70.27 182.76,69.2C189.99,66.03 197.11,62.56 204.73,60.37C205.23,60.23 205.73,60.1 206.23,59.96C207.75,59.52 209.27,59.08 209.66,57.22C211.26,58.23 214.62,56.76 215.66,55.39C216.02,54.91 216.36,54.42 216.64,53.89C219.51,48.36 221.72,42.56 223.79,36.7C225.07,33.08 226.44,29.51 228.59,26.29C229.27,25.27 230.1,24.65 231.4,25.03C231.42,25.11 231.47,25.21 231.45,25.25C227.52,31.48 225.19,38.41 222.63,45.23C221.23,48.96 219.94,52.74 218.65,56.51C218.4,57.24 218.03,57.64 217.3,57.83C215.04,58.43 212.78,59.06 210.52,59.69C210.21,59.77 209.87,59.81 209.61,59.97C205.63,62.51 200.97,63.43 196.72,65.33C190.97,67.9 185.19,70.42 179.42,72.96C179.24,73.04 179.05,73.12 178.88,73.23C171.61,78.06 163.39,81.11 155.89,85.52C150.8,88.51 145.63,91.39 140.47,94.27C132.58,98.69 124.65,103.05 116.77,107.49C114.48,108.78 112.28,110.25 110.04,111.63C108.97,112.28 109.24,113.12 109.64,114.02C111.11,117.29 112.84,120.48 113.99,123.86C117.69,134.8 122.73,145.2 126.99,155.91C127.05,156.06 127.14,156.19 127.31,156.49C128.22,154.61 129.1,152.84 129.95,151.05C132.3,146.07 134.64,141.09 136.99,136.11C138.07,133.83 138.91,131.48 138.98,128.88C139.12,129.18 139.26,129.49 139.46,129.94C140.21,128.77 140.9,127.7 141.7,126.47C142.13,128.53 141.7,130.22 140.85,131.86C139.73,134.01 138.91,136.24 139.25,138.9C138.84,138.64 138.54,138.46 138.13,138.2C135.23,144.4 132.35,150.56 129.46,156.73C131.19,157.5 132.29,157.35 133.49,156.2C135.53,154.25 137.87,152.56 139.06,149.86C139.14,149.67 139.37,149.53 139.56,149.42C140.22,149.04 140.99,148.8 141.53,148.31C148.28,142.25 154.91,136.05 161.76,130.11C165.01,127.29 168.67,124.96 172.15,122.41C172.37,122.25 172.63,122.12 172.89,122.03C175.75,120.97 178.65,120.01 181.46,118.82C183.46,117.97 185.47,117.01 187.22,115.74C190.63,113.25 194.13,111.16 198.44,110.74C199.73,110.61 200.99,110.15 202.26,109.84C202.31,109.96 202.36,110.07 202.41,110.19C198.57,111.98 194.74,113.78 190.9,115.57C190.93,115.72 190.97,115.88 191,116.03C191.35,116.07 191.71,116.16 192.05,116.13C197.49,115.54 202.93,114.97 208.35,114.32C209.92,114.13 210.32,113.58 210.35,112.02C210.38,110.79 210.36,109.56 210.36,108.28C208.32,108.51 206.39,108.72 204.47,108.93C204.45,108.87 204.44,108.81 204.42,108.74C204.92,108.52 205.42,108.31 205.92,108.09C206.51,107.84 207.22,107.73 207.67,107.33C210.42,104.88 213.84,105.51 217,105.4C220.37,105.28 223.78,105.66 227.15,106.01C229.17,106.22 230.99,105.98 232.82,105.07C237.05,102.96 240.69,100.05 244.19,96.95C245,96.24 245.79,95.49 246.67,94.88C247.42,94.36 247.54,93.77 247.19,93.04C245.24,89 244.28,84.7 243.58,80.3C243.21,77.93 242.4,77.33 239.98,77.49C236.1,77.75 232.48,79.02 228.94,80.5C223.89,82.6 218.87,84.76 213.85,86.93C212.76,87.4 211.76,88.14 210.64,88.51C202.02,91.36 193.52,94.6 184.48,96.05C181.82,96.48 179.24,97.69 176.75,98.82C175.13,99.55 173.57,100.38 171.85,100.93C163.88,103.5 156.61,107.48 149.87,112.43C147.84,113.92 145.96,115.6 143.94,117.11C142.23,118.38 140.43,119.53 138.38,120.92L138.38,119.07C138.39,118.43 138.21,117.78 139.37,118.14C139.79,118.27 140.56,117.59 141.05,117.16C145.92,112.88 150.92,108.71 156.7,105.75C161.55,103.26 166.66,101.27 171.63,99.01C172.6,98.57 173.47,97.91 174.37,97.36C175.02,97.22 175.79,97.18 176.45,96.88C179.7,95.39 183.09,94.26 186.63,93.87C190.79,93.4 194.79,92.4 198.68,90.89C201.87,89.65 205.02,88.29 208.22,87.05C217.03,83.65 225.83,80.2 234.71,76.99C236.83,76.22 239.25,76.13 241.54,76C244.06,75.86 245.35,77.04 245.64,79.54C245.99,82.52 246.26,85.5 247.52,88.28C247.6,88.46 247.69,88.63 248.01,88.81L248.01,87.26C248.01,83.35 247.44,79.56 245.94,75.91C245.44,74.69 245.45,73.26 245.25,71.92C244.43,66.59 242.23,61.68 240.49,56.63C238.35,50.41 236.2,44.19 234.32,37.89C233.03,33.54 232.87,29 233.23,24.46C233.24,24.3 233.25,24.14 233.25,23.98C233.28,22.33 233.21,22.07 231.58,22.17C228.25,22.38 224.9,22.66 221.61,23.22C218.27,23.79 215,24.71 211.71,25.53C211.12,25.68 210.59,26.09 210.03,26.38C209.86,26.47 209.7,26.67 209.54,26.67C206.67,26.56 204.19,27.92 201.64,28.87C193.71,31.81 185.83,34.87 177.95,37.96C176.67,38.46 175.52,39.3 174.31,39.99C174.21,40.05 174.12,40.14 174.01,40.19C163.2,44.68 145.85,53.7 138.77,58.82C133.82,62.4 129.08,66.27 124.22,69.98C122.48,71.31 120.68,72.55 118.78,73.93C118.47,72.1 119.38,71.04 120.5,70.12C122.32,68.63 124.17,67.16 126.03,65.71C128.33,63.91 130.61,62.09 132.96,60.37C133.84,59.72 134.9,59.32 135.85,58.76C136.43,58.42 137.14,58.12 137.48,57.6C138.42,56.14 139.92,55.49 141.27,54.58C142.88,53.51 144.39,52.28 145.95,51.13C146.2,50.95 146.48,50.8 146.76,50.69C148.16,50.12 149.61,49.66 150.97,49C157.46,45.83 163.97,42.72 170.38,39.39C181.17,33.78 192.58,29.78 204.07,25.94C205.77,25.37 207.32,24.35 208.94,23.54C209.08,23.47 209.26,23.35 209.36,23.39C211.23,24.15 212.91,23.17 214.6,22.73C219.02,21.59 223.44,20.47 228.02,20.42C229.96,20.4 231.91,20.73 233.84,21C234.84,21.14 235.31,21.86 235.33,22.88C235.36,25.24 235.45,27.59 235.44,29.95C235.43,35.95 237.06,41.64 238.78,47.29C239.69,50.3 240.69,53.32 242.04,56.15C245.4,63.21 247.28,70.69 248.74,78.31C249.66,83.11 250.24,87.92 250.18,92.82C250.16,94.74 250.74,96.66 251.08,98.58C251.52,101.01 252.03,103.42 252.43,105.86C252.54,106.53 252.36,107.26 252.3,108C251.25,107.93 250.94,107.37 250.84,106.58C250.61,104.88 250.34,103.18 250.12,101.48C249.88,99.67 249.08,98.23 247.36,97.23C243.17,100.33 238.95,103.46 234.52,106.75C235.64,107.1 236.58,107.43 237.55,107.68C243.29,109.17 246.21,112.83 246.82,118.72C247.46,124.88 248.17,131.03 247.95,137.24C247.94,137.57 248.22,137.91 248.37,138.24C248.67,137.91 249.16,137.62 249.22,137.26C249.58,135.01 249.87,132.76 250.13,130.5C250.79,124.83 251.43,119.15 252.08,113.48C252.09,113.37 252.15,113.26 252.29,112.84C252.52,113.33 252.76,113.6 252.75,113.86C252.61,116.91 252.54,119.97 252.24,123.01C251.79,127.58 251.18,132.13 250.64,136.69C250.63,136.8 250.67,136.92 250.66,136.88C254.95,135.83 259.21,134.69 263.51,133.75C267.83,132.81 272.2,132.09 276.76,131.23C276.37,129.65 276.12,128.24 275.68,126.89C273.26,119.4 270.22,112.15 266.62,105.15C265.65,103.26 264.56,101.42 265.15,98.88C265.46,99.35 265.71,99.66 265.88,100.01C268.09,104.61 270.24,109.24 272.49,113.83C275.11,119.16 277.25,124.64 278.46,130.46C278.53,130.79 279.04,131.27 279.35,131.27C282.33,131.25 285.33,131.33 288.29,131.01C293.99,130.4 298.74,127.56 303.47,124.13C302.14,122.55 301,121.02 299.68,119.65C295.33,115.13 290.92,110.67 286.54,106.17C285.7,105.31 284.74,104.81 283.52,104.63C282.43,104.47 281.32,104.15 280.32,103.69C276.95,102.14 273.63,100.47 270.28,98.88C268.3,97.94 266.3,97.06 264.3,96.15C263.9,95.97 263.49,95.81 263.11,95.59C261.82,94.83 261.46,93.75 262.41,92.6C263.36,91.46 264.57,90.53 265.84,89.37C264.73,85.7 266.44,82.03 267.05,78.25C267.27,76.89 267.37,75.65 266.09,74.68C265.75,74.42 265.63,73.87 265.38,73.38C270.21,70.85 275.36,72.33 280.41,72.02C280.32,71.68 280.31,71.53 280.25,71.39C277.59,65.07 275.04,58.7 272.22,52.44C270.64,48.92 268.63,45.59 266.81,42.17C266.57,41.71 266.31,41.26 266.06,40.82C267.31,39.97 267.78,39.5 268.48,41.48C269.03,43.03 270.1,44.4 270.92,45.85C273.45,50.31 275.3,55.07 277.02,59.88C277.84,62.18 278.87,64.4 279.8,66.66C279.95,66.62 280.11,66.57 280.26,66.53C280.23,66.09 280.25,65.63 280.16,65.2C278.84,58.71 277.34,52.25 276.24,45.72C275.5,41.32 275.31,36.83 274.95,32.38C274.9,31.79 275.28,31.17 275.46,30.56C275.6,30.58 275.73,30.61 275.87,30.63C275.98,32.05 276.13,33.47 276.2,34.89C276.47,40.86 277.75,46.68 278.95,52.51C280.04,57.83 281.26,63.12 282.33,68.44C282.56,69.58 283,70.13 284.16,70.06C284.36,70.05 284.55,70.1 284.88,70.13C284.67,70.49 284.58,70.88 284.33,71.07C283.11,71.98 283.35,73.06 283.73,74.29C284.13,75.58 284.37,76.92 284.64,78.25C284.71,78.59 284.73,79.02 284.58,79.3C284.44,79.57 284.06,79.76 283.75,79.85C283.64,79.88 283.28,79.55 283.25,79.36C282.93,77.1 281.16,76.05 279.54,74.91C279.03,74.56 278.22,74.37 277.62,74.47C275.02,74.93 272.45,75.5 269.75,74.83C269.53,75.51 269.3,76.07 269.17,76.64C268.69,78.74 268.04,80.82 267.83,82.95C267.65,84.86 267.85,86.83 268.11,88.75C268.37,90.67 268.25,91.08 266.43,91.66C266.01,91.79 265.58,91.91 265.2,92.12C263.97,92.81 263.95,93.84 265.18,94.48C269.43,96.68 273.7,98.86 277.97,101.03C278.93,101.52 279.78,102.44 281.05,101.96C281.14,101.93 281.31,102.08 281.44,102.16C282.34,102.67 283.24,103.17 284.18,103.7C284.46,103.29 284.54,103.1 284.69,102.99C285.14,102.65 285.61,102.34 286.07,102.02C286.33,102.44 286.57,102.88 286.84,103.29C287.06,103.62 287.32,103.93 287.57,104.23C288.12,104.88 288.97,105.45 289.19,106.19C289.58,107.55 290.46,108.45 291.38,109.39C295.64,113.72 299.9,118.05 304.14,122.4C304.59,122.86 304.97,123.01 305.59,122.7C306.48,122.25 307.41,121.89 308.35,121.54C308.63,121.43 308.98,121.48 309.29,121.46L309.38,121.76C308.53,122.57 307.67,123.37 306.75,124.24C307.37,124.47 307.89,124.67 308.49,124.9C308.12,125.46 307.64,125.93 307.49,126.48C307.33,127.07 307.53,127.75 307.46,128.38C307.42,128.75 307.26,129.24 306.98,129.44C306,130.13 306.03,131.11 306.04,132.1C306.05,133.82 306.05,135.54 306.08,137.26C306.12,139.31 307.63,140.12 309.42,139.09C309.72,138.92 310.03,138.75 310.59,138.43C311.25,142.21 312.18,145.83 312.43,149.49C312.68,153.12 312.23,156.8 312.08,160.6C314.48,160.27 316.9,160.08 319.27,159.58C324.12,158.56 329.06,158.17 333.94,157.43C339.96,156.52 345.86,154.82 351.82,153.49C354.31,152.93 356.82,152.42 359.32,151.9C360.1,151.74 360.75,151.5 361,150.61C362.45,145.3 364.02,140.02 365.37,134.69C366.09,131.84 366.03,128.9 365.45,126C364.58,121.67 362.21,118.33 358.53,115.91C357.7,115.36 356.91,114.76 356.03,114.14C356.89,113.34 357.76,113.4 358.6,113.89C363.04,116.49 366.24,120.09 367.19,125.26C367.96,129.43 367.75,133.61 366.41,137.69C365.13,141.6 363.86,145.5 362.62,149.42C362.42,150.06 362.25,150.76 362.32,151.41C362.45,152.54 361.85,152.9 360.93,153.08C359.36,153.38 357.77,153.59 356.23,154C353.19,154.8 350.1,155.51 347.16,156.6C343.05,158.12 338.77,158.53 334.5,159.11C333.29,159.28 332.08,159.48 330.65,159.7C331.05,160.06 331.25,160.27 331.49,160.45C333.32,161.81 335.2,163.11 336.96,164.54C338.97,166.16 341.26,166.74 343.76,166.76C345.12,166.77 346.48,166.75 347.84,166.77C348.68,166.78 349.48,166.82 350.15,166.1C350.34,165.89 350.99,165.93 351.33,166.08C352.86,166.71 354.12,166.43 355.21,165.2C356.21,164.07 357.49,163.81 358.92,164.06C362.8,164.75 364.8,167.47 366.22,170.8C366.34,171.09 366.44,171.4 366.65,172C367.25,170.99 367.7,170.14 368.24,169.35C368.91,168.35 369.69,168.15 370.72,168.7L369.79,170.32C368.18,173.08 367.81,175.93 368.73,179.06C371.08,187.02 373.32,195.01 375.53,203.01C375.78,203.9 375.56,204.91 375.56,205.86C375.39,205.91 375.21,205.97 375.04,206.02C374.67,205.47 374.14,204.96 373.97,204.35C371.81,196.67 369.71,188.98 367.55,181.3C367.31,180.45 366.77,179.68 366.4,178.86C366.21,178.45 365.97,178 365.98,177.56C366.04,173.66 364.4,170.44 362.03,167.52C360.88,166.1 359.33,165.48 357.54,165.91C355.41,166.43 353.64,167.55 353.12,169.83C352.3,173.41 351.42,177 350.99,180.63C350.71,182.98 349.71,185.05 349.19,187.29C347.19,195.83 347.26,204.4 348.86,212.98C349.3,215.33 349.77,217.7 350.55,219.95C351.06,221.43 352.15,222.72 352.95,224.03C351.71,224.41 350.59,223.97 349.85,222.64C347.93,219.22 347.16,215.45 346.92,211.61C346.59,206.39 346.17,201.15 346.41,195.94C346.6,191.75 347.72,187.6 348.4,183.43C349.1,179.1 349.75,174.76 350.46,170.43C350.63,169.41 350.16,168.86 349.27,168.74C347.81,168.54 346.34,168.41 344.87,168.38C341.62,168.31 338.51,167.76 335.77,165.88C335.21,165.5 334.65,165.1 334.19,164.61C331.56,161.76 328.26,160.52 324.48,160.89C319.29,161.4 313.95,161.56 309.19,163.98C305.68,165.76 302.42,168.02 299.02,170.03C298.48,170.35 297.79,170.39 297.19,170.63C296.51,170.91 295.71,171.11 295.24,171.61C287.36,180.03 281.96,189.77 280.08,201.23C279.65,203.88 279.88,206.63 279.78,209.34C279.77,209.7 279.59,210.04 279.48,210.4C279.1,210.22 278.56,210.14 278.38,209.85C278.11,209.4 277.98,208.8 277.98,208.26C277.88,200.39 279.34,192.86 283.15,185.9C284.59,183.28 286.13,180.71 287.72,178.17C290.91,173.08 295.23,169.19 300.54,166.39C303.89,164.62 307.23,162.84 310.62,161.04C309.52,160.23 309.7,159.08 310.12,157.83C311.44,153.86 311,149.86 310.23,145.87C310.06,145.01 309.71,144.15 309.71,143.3C309.7,141.73 308.83,141.17 307.49,140.71C300.59,138.32 293.72,135.83 286.83,133.42C284.91,132.75 282.98,132.57 281.27,134.23C280.74,133.65 280.24,133.11 279.71,132.52C278.8,133.24 279.13,134.11 279.29,134.94C279.48,135.9 279.69,136.85 278.37,137.59C278.01,136.84 277.61,136.13 277.32,135.39C277.11,134.84 277.11,134.19 276.85,133.67C276.69,133.36 276.16,132.99 275.87,133.04C270.57,134.02 265.25,134.91 260.01,136.13C257.15,136.8 254.43,138.03 251.65,139.03C250.47,139.45 250.31,140.51 250.18,141.56C249.88,144.02 249.55,146.47 249.32,148.94C248.77,154.78 248.17,160.63 247.77,166.48C247.48,170.72 247.99,174.93 248.9,179.09C249.3,180.93 248.84,181.46 246.71,181.43C246.59,179.56 246.4,177.67 246.37,175.78C246.19,165.99 246.05,156.21 245.86,146.42C245.84,145.54 245.45,144.67 245.29,143.78C245.18,143.13 244.93,142.36 245.16,141.82C245.99,139.88 246.07,137.89 245.97,135.83C245.74,131.2 245.73,126.56 245.31,121.95C245.07,119.35 244.35,116.77 243.58,114.27C242.82,111.8 241,110.18 238.55,109.33C234.37,107.88 230.27,107.74 226.09,109.61C221.39,111.71 216.62,113.67 211.75,115.32C209.03,116.24 206.07,116.55 203.2,116.91C198.13,117.54 193,117.58 188.01,118.86C186.23,119.32 184.67,120.03 183.28,121.27C180.64,123.64 177.81,125.79 175.21,128.2C167.98,134.91 160.82,141.71 153.65,148.48C149.38,152.51 145.2,156.64 140.85,160.59C139.26,162.03 137.32,163.09 135.44,164.19C135.4,162.74 136.22,161.88 137.11,161.07C138.12,160.15 139.15,159.23 139.07,157.57C142.31,157.72 143.89,155.2 145.85,153.35C153.55,146.08 161.17,138.73 168.84,131.43C170.37,129.97 172.01,128.62 173.58,127.19C174.43,126.42 174.73,125.5 174.04,124.18C172.49,125.11 170.87,125.88 169.48,126.95C160.35,133.98 151.45,141.31 143.5,149.64C138.61,154.76 133.26,159.26 127.83,163.72C127.52,163.97 127.23,164.24 126.84,164.58C127.67,165.15 128.44,165.68 129.22,166.21C128.44,167.81 127.29,168.66 125.47,168.79C119.06,169.27 112.65,169.85 106.24,170.4C105.61,170.45 104.98,170.59 104.27,170.69L104.27,174.85C106.63,174.29 108.9,173.74 111.19,173.22C115.74,172.18 120.04,172.56 124.07,175.17C126.68,176.86 129.57,178.13 132.1,179.92C136.51,183.04 139.46,187.4 141.64,192.3C145.32,200.55 149.48,208.55 154.23,216.23C155.19,217.78 156.35,219.21 157.51,220.83C159.37,219.01 161.02,217.22 162.86,215.66C165.72,213.23 168.71,210.96 171.65,208.63C171.68,208.61 171.71,208.57 171.75,208.56C174.28,208 176.1,206.13 178.31,204.99C180.96,203.62 183.85,203.52 186.74,203.85C187.41,203.93 188.17,204.43 188.62,204.96C190.01,206.6 191.31,208.33 192.58,210.07C193.83,211.79 195.24,213.23 197.42,213.75C198.46,214 198.58,214.54 198.11,216.26C197.48,216.09 196.81,216.01 196.23,215.74C193.94,214.65 192.12,213.02 190.71,210.91C189.91,209.72 188.96,208.63 188.15,207.44C186.74,205.4 184.76,205.07 182.53,205.48C180.2,205.91 178.2,207.06 176.35,208.51C176.08,208.72 175.77,209 175.47,209.01C173.29,209.07 171.68,210.26 170.04,211.52C164.15,216.02 159.25,221.49 154.64,227.24C143.79,240.79 131.99,253.49 120.22,266.23C116.22,270.57 112.55,275.22 108.81,279.79C106.86,282.18 106.9,282.58 109.36,284.39C112.9,286.99 116.55,289.44 120.14,291.97C120.55,292.25 120.93,292.58 121.32,292.88C121.28,292.98 121.25,293.09 121.21,293.19C120.65,293.13 120.02,293.21 119.55,292.97C116.98,291.69 114.37,290.45 111.92,288.96C110.52,288.11 109.41,286.8 108.15,285.71C107.85,285.45 107.51,285.26 107.11,284.98C105.97,287 104.96,288.97 104.92,291.28C104.87,294 104.85,296.71 104.79,299.43C104.69,304.71 104.94,309.93 105.94,315.16C107.53,323.52 109.02,331.88 111.68,339.98C114.11,347.37 117.33,354.39 121.21,361.12C121.49,361.6 121.8,362.1 122.22,362.46C123.18,363.29 123.02,364.06 122.17,364.9C120.76,364.27 119.87,363.08 119.28,361.74C116.59,355.69 113.89,349.65 111.37,343.52C110.25,340.8 109.57,337.9 108.68,335.09C108.62,334.9 108.62,334.68 108.52,334.52C106.62,331.66 106.55,328.35 106.12,325.12C105.58,321.09 104.78,317.08 104.31,313.04C103.79,308.6 103.51,304.13 103.12,299.68C103.09,299.32 103.06,298.96 103.07,298.6C103.1,297.58 102.62,297.2 101.61,297.26C100.87,297.31 100.12,297.18 99.38,296.92L102.96,296.92C103.08,294.85 103.2,292.88 103.32,290.9C103.53,287.58 104.14,284.37 105.49,281.29C105.9,280.36 105.79,279.19 105.91,278.12C106.04,278.43 106.19,278.77 106.38,279.22C111.22,273.76 116.03,268.33 120.94,262.8C120.4,262.72 120.04,262.67 119.67,262.62C122.15,262.06 123.53,260.17 125.1,258.47C129.01,254.25 133.01,250.12 136.88,245.86C138.21,244.39 139.18,242.61 140.43,241.06C141.4,239.86 142.6,238.87 143.6,237.69C148.02,232.43 152.41,227.14 156.83,221.84C156.78,221.75 156.76,221.61 156.68,221.55C153.46,219.43 151.49,216.35 149.81,212.97C147.11,207.54 144.27,202.18 141.47,196.79C141.33,196.51 141.11,196.27 140.91,195.98C140.65,196.15 140.42,196.3 140.3,196.38C136.87,184 128.35,177.23 116.16,174.11C116.05,175.24 116.05,176.05 115.86,176.8C115.76,177.19 115.38,177.6 115.02,177.8C114.13,178.3 113.11,178.58 112.25,179.13C110.11,180.52 107.97,181.93 105.95,183.5C105.05,184.2 104.44,185.28 103.68,186.2C103.65,186.15 103.54,185.98 103.36,185.68C102.84,186.04 102.3,186.36 101.82,186.75C91.39,195.27 81.81,204.64 73.51,215.28C73.19,215.69 72.91,216.13 72.61,216.55C71.64,217.9 71.37,217.9 70.09,216.4C72.29,213.76 74.4,211 76.75,208.46C80.38,204.53 84.18,200.75 87.92,196.93C88.15,196.69 88.52,196.55 88.84,196.44C90.39,195.91 91.36,194.86 91.9,193.31C92.09,192.75 92.46,192.17 92.91,191.79C95.85,189.28 98.84,186.81 101.82,184.34C103.17,183.22 103.68,182.28 103.93,180.15C104.12,180.87 104.26,181.41 104.46,182.18C107.65,179.86 110.75,177.61 113.86,175.35C113.79,175.23 113.73,175.11 113.66,174.99C111.88,174.66 110.16,174.83 108.44,175.48C103.89,177.2 99.34,178.95 94.73,180.51C92.44,181.29 89.99,181.6 87.64,182.23C81.06,183.99 75.52,187.42 71.01,192.54C69.54,194.21 67.91,195.65 65.85,196.72C63.68,197.85 61.84,199.59 59.84,201.06C58.7,201.9 57.55,202.72 56.41,203.54C56.27,203.42 56.13,203.29 55.99,203.17C56.53,202.35 56.93,201.35 57.64,200.73C60.44,198.29 63.38,196.01 66.2,193.59C66.88,193 67.3,192.11 67.87,191.38C68.02,191.19 68.3,191.09 68.52,190.95C69.09,191.93 69.5,191.12 69.9,190.8C72.46,188.76 75.06,186.75 77.56,184.63C80.93,181.78 84.88,180.45 89.18,180.02C93.79,179.55 98.01,177.91 102.12,175.91C103.18,175.39 103.61,174.48 103.59,173.38C103.58,172.59 103.42,171.8 103.31,170.91C98.36,170.6 93.24,171.24 88.8,168C89.2,167.12 89.58,166.26 90.03,165.26C90.45,165.71 90.81,166.1 91.24,166.57C92.02,165.28 92.73,164.04 93.51,162.84C95.14,160.33 96.73,157.78 98.5,155.37C99.36,154.21 100.51,153.22 101.67,152.33C103.31,151.08 103.49,149.94 101.86,148.7C100.11,147.372 98.295,146.134 96.42,144.99C90.35,141.25 84.43,137.3 79.22,132.43C76.66,130.04 74.42,127.29 71.97,124.78C71.14,123.93 70.11,123.28 69.18,122.54C69.15,122.52 69.11,122.5 69.08,122.48C67.28,120.95 65.48,119.42 63.69,117.88C63.58,117.79 63.52,117.63 63.45,117.51C64.39,116.62 65.3,115.77 66.21,114.92C66.36,115.09 66.45,115.15 66.45,115.2C66.25,117.71 67.91,118.98 69.63,120.39C71.38,121.83 72.95,123.52 74.4,125.27C78.76,130.52 83.94,134.8 89.62,138.52C93.83,141.28 98.02,144.07 102.21,146.85C102.44,146.9 102.62,147.1 102.82,147.28C105.02,148.67 107.22,150.07 109.43,151.47C110.1,151.9 110.77,152.34 111.44,152.77C109.44,149.48 107.03,146.65 103.77,144.52C103.43,145.51 103.13,146.39 102.82,147.28ZM92.74,167.91C94.87,168.84 96.95,169.06 99.07,168.92C106.76,168.42 114.45,167.88 122.14,167.37C124.02,167.25 124.39,166.66 123.58,164.9C123.38,164.47 123.12,164.05 122.81,163.69C121.6,162.26 120.4,160.8 119.1,159.45C118.48,158.8 117.67,158.31 116.89,157.83C116.11,157.36 115.26,157.1 114.45,156.56C111.25,154.39 107.84,152.54 104.5,150.57C104.26,150.43 103.98,150.38 103.59,150.24C104.35,152.53 104.35,152.53 103.29,154.69C102.42,154.08 101.83,154.62 101.28,155.25C100.88,155.7 100.46,156.13 100.13,156.63L92.74,167.91ZM304.4,137.69L304.4,125.49C299.92,128.74 295.29,131.22 289.78,132.68C294.89,134.43 299.6,136.05 304.4,137.69ZM224.89,107.85L224.8,107.48C223.81,107.34 222.83,107.18 221.84,107.06C218.69,106.69 215.54,106.57 212.47,107.48C211.85,107.66 211.02,108.17 210.86,108.7C210.37,110.26 210.33,111.9 211.42,113.62C215.93,111.69 220.41,109.77 224.89,107.85ZM124.74,162.38C126.01,160.81 126.18,159.93 125.49,158.8C125.1,158.16 124.61,157.79 123.76,158.15C124.01,159.03 124.26,159.89 124.55,160.89C123.73,160.54 123.09,160.27 122.45,160C122.4,160.07 122.36,160.15 122.31,160.22C123.1,160.92 123.89,161.62 124.74,162.38ZM248.32,146.93L248.95,140.85C248.8,140.84 248.65,140.82 248.5,140.81C247.46,142.77 247.68,144.83 248.32,146.93ZM175.47,125.02C175.58,125.04 175.69,125.07 175.8,125.09C176.51,124.42 177.21,123.75 177.92,123.08C177.82,122.93 177.72,122.77 177.61,122.62C176.9,122.93 176.1,123.13 175.51,123.59C175.27,123.77 175.47,124.52 175.47,125.02ZM131.02,158.22C130.27,158.13 129.61,157.89 129.47,158.06C129.09,158.52 128.94,159.17 128.59,160C129.02,159.79 129.14,159.75 129.22,159.68C129.71,159.29 130.2,158.89 131.02,158.22ZM270.65,73.65C272.09,74.4 273.31,74.28 274.39,73.33C273.11,73.44 272.02,73.53 270.65,73.65Z" style="fill-rule:nonzero;"/>
            <path d="M472.18,189.89C471.86,189.09 471.61,188.46 471.36,187.84C469.32,188.79 469.17,190.57 469.76,192.74C471.07,192.29 472.38,191.84 473.69,191.4C474.62,191.08 474.9,190.33 475.01,189.45C475.71,183.66 476.35,177.86 477.13,172.09C478.24,163.86 479.32,155.63 480.64,147.43C481.88,139.71 483.41,132.03 484.84,124.34C485.38,121.44 486.32,118.56 486.43,115.65C486.57,112.09 486.21,108.47 485.73,104.93C484.69,97.23 484.31,89.51 484.03,81.76C483.96,79.78 483.58,77.82 483.33,75.73C480.61,76.05 478.12,76.34 475.63,76.64C469.29,77.41 462.92,78.04 456.61,79.01C453.55,79.48 450.48,79.11 447.43,79.68C444.37,80.25 441.25,80.46 438.16,80.85C435.07,81.24 431.96,81.55 428.9,82.09C426,82.61 423.17,83.53 420.26,84.02C409.12,85.9 398.66,90.26 387.74,92.95C384.99,93.63 382.27,94.42 379.53,95.14C379.19,95.23 378.8,95.28 378.47,95.19C376.92,94.75 375.53,95.19 374.22,95.94C368.84,99 362.96,100.17 356.88,100.47C353.66,100.63 350.41,100.49 347.18,100.37C344.41,100.27 341.98,101.1 339.82,102.74C336,105.64 332.23,108.6 328.45,111.55C328.24,111.71 328,112.1 328.06,112.26C328.14,112.48 328.53,112.72 328.77,112.72C331.04,112.65 333.31,112.59 335.58,112.41C339.6,112.09 343.62,111.71 347.63,111.31C348.5,111.22 349.38,111.07 350.2,110.79C351.86,110.23 353.34,110.81 354.84,111.38C354.94,111.42 354.98,111.63 355.1,111.83C353.63,112.48 351.63,111.55 350.85,113.24C350.31,113.05 349.84,112.72 349.41,112.76C344.44,113.23 339.48,113.83 334.5,114.23C332.09,114.42 329.65,114.3 327.23,114.24C325.92,114.21 324.77,114.54 323.81,115.39C319.94,118.85 316.08,122.32 312.24,125.83C311.72,126.3 311.38,126.96 310.95,127.54C309.97,127.16 309.78,126.34 310.66,125.34C312.46,123.31 314.17,121.14 316.26,119.45C322.62,114.29 329.14,109.33 335.6,104.29C336.26,103.77 336.92,103.25 337.61,102.77C338.56,102.1 339.16,101.28 338.99,99.94C342.23,99.64 344.38,97.43 346.63,95.51C353.37,89.73 360.93,85.18 368.44,80.54C370.31,79.39 372.16,78.2 374.07,77.11C374.88,76.65 375.8,76.38 376.7,76.01C377.19,77.56 376.39,78.17 375.37,78.73C368.2,82.69 361.16,86.86 354.52,91.68C352.22,93.34 349.88,94.95 347.61,96.64C347.04,97.07 346.64,97.74 345.97,98.52C347.51,98.6 348.73,98.66 349.94,98.74C357.76,99.25 365.29,97.84 372.64,95.27C373.24,95.06 373.79,94.55 374.21,94.05C375.37,92.68 376.43,91.22 377.57,89.83C377.86,89.48 378.25,89.11 378.67,88.99C387.8,86.36 396.87,83.53 406.09,81.24C413.95,79.29 421.93,77.78 429.91,76.46C434.62,75.68 439.46,75.76 444.23,75.25C447.55,74.9 450.83,74.2 454.13,73.67C457.08,73.2 460.05,72.78 463,72.29C467.76,71.49 472.5,70.53 477.28,69.84C481.62,69.21 485.96,69.56 490.23,70.58C490.81,70.72 491.4,70.96 491.98,70.96C493.3,70.95 493.87,71.67 493.88,72.85C493.9,75.99 494.17,79.18 493.78,82.27C492.68,90.98 491.23,99.65 490.03,108.35C489.24,114.09 488.71,119.86 487.91,125.59C487.64,127.54 487.08,129.49 486.36,131.33C484.74,135.45 483.84,139.73 483.12,144.06C482.33,148.78 481.27,153.48 480.79,158.23C480.13,164.7 479.84,171.21 479.54,177.71C479.36,181.73 479.45,185.77 479.43,189.8C479.42,190.93 479.35,191.97 477.87,192.14C477.07,192.23 476.76,192.8 476.69,193.57C476.66,193.96 476.66,194.45 476.43,194.71C476.15,195.03 475.68,195.25 475.25,195.34C475.09,195.37 474.78,194.92 474.64,194.64C474.43,194.22 474.32,193.75 474.11,193.17C472.91,193.63 471.74,194.02 470.62,194.51C469.65,194.94 469.5,195.86 469.45,196.83C469.21,202.06 468.96,207.28 468.71,212.51C468.28,221.38 468.36,230.24 469.01,239.1C469.1,240.25 469.3,241.4 469.37,242.55C469.43,243.44 469.38,244.35 469.38,245.33C467.07,244.84 467.57,242.89 466.98,241.4C465.73,242 464.52,242.55 463.33,243.15C457.6,246.04 451.41,247.68 445.35,249.69C442.74,250.55 440.15,251.52 437.47,252.13C435.11,252.67 432.65,252.81 430.22,253.01C429.83,253.04 429.39,252.51 428.97,252.24C429.36,251.91 429.74,251.29 430.13,251.29C436.08,251.23 441.56,249.22 447.07,247.3C452.08,245.56 457.13,243.93 462.16,242.24C462.8,242.02 463.43,241.76 464.04,241.47C466.49,240.32 467.16,239.37 466.91,236.69C465.9,225.66 466.92,214.66 467.23,203.65C467.29,201.38 467.24,199.11 467.24,196.76C466.57,196.81 465.91,196.85 465.2,196.9C464.92,196.01 465.39,195.52 466.01,195.1C467.05,194.39 467.89,193.65 466.88,192.28C466.75,192.1 466.76,191.7 466.86,191.47C467.67,189.61 467.03,187.77 466.8,185.94C466.543,183.961 466.227,181.99 465.85,180.03C465.46,177.94 462.92,176.63 461.02,177.57C459.45,178.34 457.95,179.24 456.35,180.12C456.07,178.9 456.44,177.98 457.5,177.41C458.94,176.64 460.42,175.95 462,175.16C461.77,174.61 461.59,174.01 461.3,173.47C458.91,168.97 455.96,164.89 452.64,161C447.68,155.19 441.71,150.48 436.24,145.23C434.19,143.27 432.14,141.32 430.13,139.31C429.19,138.37 428.26,138.42 427.08,138.79C418.26,141.52 410.11,145.78 401.96,150C396.47,152.84 391.18,156.08 385.8,159.13C385.25,159.44 384.68,159.82 384.08,159.91C383.64,159.97 383.14,159.61 382.66,159.44C382.89,158.95 382.99,158.22 383.38,158C385.91,156.55 388.49,155.19 391.08,153.85C399.34,149.59 407.52,145.15 415.92,141.16C424.67,137 434.04,134.68 443.65,133.62C446.86,133.27 450.18,133.81 453.44,134.01C454.32,134.06 454.68,135.6 454.08,136.56C453.94,136.79 453.71,136.96 453.48,137.2C449.55,134.21 445.16,134.51 440.72,135.37C438.1,135.88 435.5,136.53 432.9,137.15C432.42,137.26 431.96,137.49 431.13,137.79C433.04,139.66 434.7,141.37 436.45,142.99C441.49,147.66 446.57,152.29 451.63,156.93C451.86,157.15 452.11,157.36 452.3,157.61C455.98,162.52 460.19,167.06 462.78,172.72C463.39,174.05 464.35,175.05 465.58,175.9C466.36,176.44 467.01,177.45 467.28,178.38C467.91,180.6 468.27,182.9 468.74,185.16C468.83,185.62 468.92,186.08 469.01,186.55C470.88,185.68 471.26,185.24 470.88,183.67C469.51,177.92 469.53,172.11 469.89,166.27C470.01,164.24 470.32,162.11 469.87,160.18C469.4,158.16 469.92,156.38 470.12,154.48C471.31,143.08 472.24,131.65 473.62,120.27C474.72,111.2 476.35,102.19 477.72,93.16C477.98,91.42 478.2,89.68 478.35,87.93C478.46,86.62 477.92,86.13 476.64,86.32C475.74,86.45 474.75,86.56 474,87.02C472.89,87.7 471.79,87.66 470.59,87.62C469.53,87.58 468.45,87.82 467.39,87.99C462.66,88.71 457.94,89.45 453.21,90.19C446.07,91.31 438.92,92.37 431.8,93.59C427.46,94.34 423.52,96.21 419.83,98.59C415.59,101.33 411.12,103.66 406.4,105.41C401.83,107.11 397.01,107.57 392.16,107.7C390.01,107.76 387.88,108.03 385.73,108.16C385.08,108.2 384.43,108.05 383.71,107.99C383.71,109.42 383.67,110.88 383.72,112.34C383.89,117.29 383.32,122.1 381.78,126.85C380.01,132.29 379.26,137.96 378.56,143.64C377.78,149.93 376.73,156.2 375.8,162.47C375.65,163.46 375.6,164.46 375.39,165.43C375.24,166.12 374.9,166.78 374.6,167.55C373.51,166.84 373.47,166.02 373.6,165.18C375.24,154.45 376.82,143.71 378.6,133C379.23,129.23 380.39,125.56 381.28,121.83C382.27,117.69 382.29,113.52 381.65,109.34C381.5,108.36 381.07,107.74 379.97,108.17C377.94,108.97 375.92,109.8 373.91,110.63C373.56,110.78 373.25,111.03 372.84,111.1C374.34,107.93 377.64,107.48 380.49,106.2C379.88,104.29 378.43,103.24 376.76,102.43C375.28,101.72 374.04,100.76 373.24,99.31C373.09,99.04 372.97,98.75 372.67,98.14C373.56,98.38 374.26,98.41 374.77,98.74C376.45,99.81 378.14,100.9 379.68,102.16C380.64,102.95 381.47,103.98 382.11,105.06C382.72,106.08 383.3,106.47 384.58,106.37C387.08,106.18 389.61,106.23 392.12,106.34C399.64,106.65 406.66,105.01 412.99,100.92C418.15,97.58 423.58,94.79 429.44,93C433.35,91.8 437.4,90.93 441.45,90.28C448.98,89.07 456.56,88.22 464.09,87.05C467.55,86.51 470.95,85.56 474.38,84.81C475.43,84.58 476.49,84.32 477.56,84.28C479.6,84.2 480.58,85.2 480.36,87.22C479.97,90.71 479.57,94.21 478.97,97.66C476.5,112.03 474.3,126.44 473.1,140.97C472.55,147.57 472.4,154.2 472.11,160.82C471.92,165.17 471.76,169.52 471.63,173.87C471.53,177.33 472.05,180.72 473,184.04C473.54,186.03 473.53,187.95 472.18,189.89ZM488.13,104.25C488.24,104.27 488.36,104.3 488.47,104.32C488.68,103.66 488.98,103.01 489.08,102.33C489.96,96.49 490.89,90.65 491.63,84.79C492.01,81.71 492.09,78.58 492.19,75.47C492.25,73.64 491.71,73.16 489.92,72.9C489.25,72.8 488.6,72.63 487.93,72.5C486.17,72.17 484.42,71.58 482.66,71.56C473.64,71.49 464.9,73.4 456.2,75.52C455.75,75.63 455.33,75.91 454.95,76.18C454.76,76.32 454.71,76.63 454.59,76.86C454.82,76.97 455.04,77.17 455.27,77.18C455.91,77.2 456.55,77.18 457.18,77.11C463.36,76.36 469.55,75.63 475.73,74.8C478.24,74.46 480.83,74.5 483.22,73.37C484.25,72.88 485.28,73.3 486.12,73.97C486.41,74.2 486.61,74.73 486.59,75.12C486.54,76.35 486.27,77.58 486.28,78.81C486.32,84.32 486.39,89.83 486.55,95.33C486.61,97.3 486.96,99.27 487.18,101.24C487.28,101.23 487.37,101.23 487.47,101.22C487.61,100.82 487.76,100.43 487.9,100.03C487.98,100.05 488.06,100.08 488.14,100.1C488.13,101.49 488.13,102.87 488.13,104.25ZM419.8,81.27C419.74,81.05 419.69,80.82 419.63,80.6C418.98,80.6 418.32,80.49 417.69,80.62C412.88,81.57 407.99,82.29 403.28,83.62C395.61,85.79 388.06,88.37 380.46,90.8C379.02,91.26 378.05,92.33 377.22,93.64C378,93.67 378.72,93.57 379.41,93.37C392.26,89.7 405.11,86.03 417.95,82.32C418.63,82.14 419.19,81.63 419.8,81.27ZM420.39,81.61L421.72,81.42C427.16,80.58 432.59,79.63 438.05,78.92C442.8,78.3 447.58,77.93 452.35,77.44C453.03,77.37 453.8,77.35 453.8,76.21C452.7,76.26 451.67,76.28 450.64,76.36C446.14,76.73 441.66,77.21 437.15,77.49C431.95,77.8 426.83,78.56 421.76,79.71C420.84,79.9 420.2,80.31 420.39,81.61ZM156.34,274.87C156.13,275.24 156.01,275.7 155.71,275.95C151.84,279.23 147.87,282.39 144.09,285.78C142.33,287.36 140.94,289.35 139.17,291.38C140.74,291.78 141.95,292.24 143.19,292.39C146.75,292.79 149.17,294.59 150.51,297.91C151.96,301.5 153.45,305.07 154.95,308.64C155.28,309.43 155.71,310.19 156.1,310.96C156.21,310.94 156.31,310.93 156.42,310.91C156.56,309.75 156.78,308.6 156.82,307.44C156.92,304.37 156.98,301.29 156.96,298.22C156.96,297.62 156.51,297.03 156.2,296.25C156.99,295.26 156.84,293.94 156.55,292.58C155.91,289.59 156.53,288.34 159.15,286.92C167.85,282.2 176.54,277.45 185.23,272.72C185.86,272.38 186.52,272.09 187.15,271.74C187.52,271.53 188.08,271.29 188.16,270.97C188.47,269.71 189.54,269.4 190.46,268.92C194.67,266.73 198.82,264.4 203.15,262.44C205.78,261.25 208.67,260.64 211.45,259.81C212.98,259.35 214.53,258.98 216.07,258.56C216.43,258.46 216.77,258.31 217.14,258.07C215.39,257.89 214.8,256.73 214.4,255.29C214.01,253.91 213.83,252.26 212.94,251.28C211.31,249.49 211.75,247.18 210.75,245.14C208.48,246.96 206.23,248.78 203.97,250.6C203.87,250.5 203.77,250.4 203.68,250.3C203.84,250.07 203.99,249.83 204.18,249.62C204.76,248.96 205.38,248.33 205.95,247.67C207.12,246.32 208.27,244.96 209.43,243.61C209.39,240.63 209.74,237.64 208.86,234.69C207.99,231.78 206.5,229.47 203.97,227.7C200.19,225.07 196.84,221.93 194.31,217.85C195.03,218.23 195.83,218.52 196.47,219.01C199.2,221.09 201.88,223.24 204.59,225.36C205.95,226.43 206.4,226.4 207.9,225.46C212.77,222.41 216.96,218.52 221.22,214.71C222.71,213.38 224.22,212.07 225.72,210.75C226.43,210.13 227.11,209.98 227.81,211.03C221.5,217.04 215.39,223.29 207.54,227.84C210.16,231.94 211.62,236.39 211.6,241.59C212.55,241.04 213.25,240.7 213.87,240.26C222.54,234.15 230.46,227.11 238.58,220.31C241.96,217.48 243.56,213.57 244.12,209.32C245.01,202.55 245.72,195.74 245.13,188.9C244.86,185.77 244.14,182.68 243.65,179.56C243.58,179.11 243.64,178.64 243.64,178.18C243.76,178.11 243.88,178.04 244,177.98C244.34,178.43 244.78,178.84 245,179.35C246.52,182.97 247.21,186.79 247.18,190.69C247.14,196.31 247.41,201.96 246.38,207.54C245.49,212.37 243.67,216.88 241.44,221.23C241.31,221.49 240.87,221.63 240.56,221.76C239.81,222.07 238.81,222.14 238.33,222.68C232.9,228.73 226.03,232.96 219.56,237.7C217.4,239.28 215.35,241.01 213.23,242.64C212.36,243.31 212.25,244.12 212.64,245.08C213.79,247.93 214.92,250.78 216.05,253.63C217.42,253.76 217.71,254.05 217.76,255.53C217.79,256.24 217.68,256.96 217.62,257.83C224.56,256.86 231.22,254.84 238.26,252.91C237.49,252.24 236.94,251.72 236.35,251.25C232.45,248.13 229.65,244.4 229.7,239.12C229.72,236.99 230.31,235.02 231.49,233.25C231.76,232.84 232.15,232.5 232.48,232.13C232.58,232.17 232.68,232.22 232.77,232.26C232.65,232.8 232.64,233.4 232.41,233.89C229.51,239.9 232.53,245.41 236.05,248.87C236.87,249.68 237.79,250.41 238.73,251.08C240.09,252.05 241.7,252.47 243.29,252.03C248.53,250.59 252.66,252.62 256.41,255.99C256.91,256.44 257.38,256.94 257.89,257.39C259.61,258.93 261.88,258.54 262.83,256.45C264.09,253.66 265.32,250.85 266.38,247.98C267.73,244.32 270.17,241.46 272.73,238.64C275.51,235.58 278.53,232.8 281.9,230.41C282.59,229.92 282.75,229.43 282.51,228.61C281.07,223.71 279.68,218.8 278.26,213.89C277.88,212.58 277.9,212.48 279.21,211.42C282.11,218.34 284.02,225.44 285.3,232.65C285.07,232.82 285,232.91 284.94,232.9C282.08,232.46 279.95,233.69 278.08,235.74C275.4,238.7 272.56,241.52 269.92,244.51C268.99,245.56 268.28,246.88 267.74,248.18C266.37,251.49 265.15,254.86 263.87,258.21C263.57,258.99 263.27,259.77 262.99,260.56C262.34,262.42 262.41,264.21 263.4,265.99C265.77,270.24 268.07,274.53 270.43,278.78C270.85,279.54 271.37,280.28 271.97,280.91C274.12,283.13 275.32,285.84 276.09,288.77C276.68,291 277.02,293.34 277.93,295.44C278.61,297.02 278.62,298.54 278.82,300.13C279.2,303.05 279.87,305.93 280.44,308.82C280.66,309.93 281.38,310.67 282.39,311.09C287.18,313.08 291.92,315.19 296.78,316.98C300.62,318.39 304.67,318.02 308.64,317.49C313.94,316.78 319.27,316.15 324.51,315.11C327.61,314.5 330.59,313.22 333.59,312.15C335.08,311.62 336.32,311.69 337.46,313.11C342.52,309.51 347.6,305.97 352.59,302.32C357.39,298.81 362.03,295.04 367.49,292.55C369.45,291.66 371.48,290.93 373.48,290.14C373.63,290.08 373.8,290.07 373.94,289.99C379.18,287.1 384.97,285.74 390.56,283.8C393.42,282.81 396.21,281.62 399.04,280.51C399.59,280.29 400.14,280.05 400.75,279.79C401.06,280.97 400.34,281.5 399.55,281.86C396.35,283.29 393.19,284.82 389.9,286.02C386.16,287.39 382.31,288.44 378.51,289.63C378.33,289.69 378.11,289.75 377.99,289.89C376.84,291.21 375.25,291.59 373.66,292.02C369.21,293.22 365.3,295.6 361.49,298.06C358.38,300.07 355.43,302.36 352.5,304.64C351.58,305.35 351.1,306.94 350.15,307.22C348.99,307.56 348.06,308.1 347.11,308.73C344.71,310.31 342.38,312.03 339.86,313.4C338.63,314.07 337.04,314.1 335.61,314.4C335.47,314.43 335.25,314.39 335.16,314.29C334.15,313.18 333.18,313.84 332.16,314.28C328.07,316.06 323.73,316.97 319.38,317.81C318.37,318.01 317.4,318.38 316.42,318.67C316.19,318.74 315.93,318.93 315.75,318.87C313.66,318.15 311.64,318.97 309.61,319.14C305.67,319.46 301.72,320.2 297.81,319.21C295.7,318.68 293.67,317.78 291.65,316.96C288.66,315.75 285.7,314.47 282.72,313.22C281.96,314.11 282.02,315.04 282.45,315.87C283.5,317.9 283,319.7 281.91,321.52C277.92,328.16 272.87,333.8 266.95,338.83C256.33,347.86 245.19,356.12 233.3,363.4C231.98,364.21 230.58,364.9 229.18,365.58C224.4,367.89 219.56,370.07 214.84,372.48C209.79,375.06 204.39,376.6 198.97,378.06C193.12,379.63 187.17,380.85 181.27,382.21C180.06,382.49 178.85,382.73 177.39,383.04C175.94,381.41 174.84,379.25 174.13,376.77C173.11,373.21 171.83,369.73 170.54,366.26C170.3,365.61 169.49,365.16 168.93,364.61C169.79,364.14 169.33,363.39 169.02,362.71C168.28,361.12 167.31,359.61 166.76,357.96C164.3,350.63 161.95,343.26 159.56,335.9C159,334.17 158.83,332.28 157.5,330.86C157.41,330.76 157.33,330.51 157.38,330.43C158.32,329.16 157.54,327.87 157.33,326.64C156.55,322.08 156.02,317.43 154.67,313.04C153.1,307.92 151.42,302.76 148.6,298.11C147.85,296.87 147.68,296.78 146.33,296.6C146.78,295.7 146.43,295.16 145.53,294.94C144.29,294.63 143.03,294.42 141.82,294.05C140.4,293.62 139.01,293.06 137.53,292.52C138.94,289.46 140.66,287.03 143.03,285.13C147.2,281.78 151.44,278.5 155.65,275.2C155.85,275.04 156.14,274.98 156.39,274.88L156.34,274.87ZM187.21,300.29C186.73,300.07 186.39,299.95 186.09,299.77C184.64,298.91 184.5,297.89 185.67,296.67C185.89,296.44 186.13,296.22 186.39,296.05C196.38,289.44 206.23,282.6 216.41,276.29C225.4,270.72 234.76,265.76 243.95,260.52C244.64,260.13 245.33,259.71 245.96,259.22C247.5,258.02 247.38,257.08 245.58,256.25C244.78,255.88 243.93,255.64 243.15,255.23C241.58,254.41 239.96,254.3 238.27,254.74C230.59,256.75 222.9,258.73 215.22,260.76C209.7,262.22 204.18,263.68 199.12,266.44C198.56,266.75 198.03,267.13 197.42,267.52C197.81,267.76 198.03,267.9 198.34,268.09C186.18,273.4 174.94,280.24 163.21,286.63C166.17,288.02 168.49,289.82 170.28,292.23C172.95,295.83 176.53,296.81 180.77,296.07C181.38,295.96 182,295.96 182.68,295.9C182.71,296.31 182.75,296.54 182.73,296.77C182.4,300.51 183.06,304.16 183.72,307.82C184.28,310.93 184.83,313.97 186.41,316.81C188.42,320.43 190.23,324.17 191.86,327.98C194.39,333.92 196.61,340 199.13,345.94C200.2,348.47 201.73,350.79 202.94,353.26C203.19,353.77 202.97,354.5 202.97,355.13C202.33,354.83 201.68,354.53 201.04,354.22C200.96,354.18 200.93,354.01 200.88,353.9C197.61,347.41 194.51,340.86 192.07,334C189.98,328.14 187.77,322.32 184.5,316.96C183.77,315.76 183.28,314.37 182.88,313.01C182.48,311.64 182.32,310.19 182.07,308.78C181.43,305.17 180.79,301.56 180.12,297.73C176.61,298.81 173.59,296.85 170.31,296.31C170.57,296.21 170.82,296.12 171.18,295.99C168.92,292.67 166.15,290.1 162.61,288.4C161.3,287.77 160.39,287.78 159.55,288.94C158.94,289.78 158.43,290.99 158.51,291.98C159,297.59 158.3,303.15 158.14,308.73C157.99,313.78 158.06,318.78 159.69,323.65C160.89,327.24 161.91,330.9 162.97,334.54C163.19,335.29 163.27,336.07 163.43,336.91C162.76,336.81 162.27,336.74 161.68,336.65C162.11,338.2 162.49,339.62 162.91,341.03C164.76,347.26 166.57,353.49 169.62,359.31C172.49,364.78 175.1,370.39 176.24,376.56C176.51,378.02 177.16,379.65 178.83,380.02C180.27,380.34 181.85,380.34 183.32,380.16C185.37,379.91 187.4,379.41 189.42,378.92C192.25,378.24 195.08,377.52 197.88,376.72C200.64,375.93 203.4,375.1 206.11,374.16C208.8,373.22 211.46,372.21 214.06,371.06C217.09,369.72 220.03,368.19 223.02,366.77C232.19,362.39 240.63,356.79 248.81,350.83C255.22,346.15 261.25,340.94 267.44,335.96C272.57,331.84 276.42,326.69 279.54,320.94C280.19,319.74 280.35,318.56 280.09,317.25C279.63,314.94 279.22,312.62 278.72,310.32C278.06,307.3 277.34,304.3 276.57,301.01C275.66,301.84 274.92,302.39 274.32,303.07C272.2,305.46 270.11,307.88 268.03,310.31C267.32,311.14 266.52,311.68 265.1,311.46C266.23,309.96 267.17,308.52 268.3,307.26C270.69,304.58 273.18,301.98 275.65,299.37C276.16,298.84 276.26,298.37 275.97,297.67C275.22,295.82 274.52,293.95 273.87,292.07C269.67,279.94 262.58,269.57 254.35,259.9C252.01,257.15 249.88,257.33 247.87,260.29C247.66,260.61 247.38,260.93 247.05,261.11C243.98,262.8 240.87,264.45 237.8,266.15C229.91,270.52 221.84,274.6 214.2,279.38C205.44,284.87 197.08,290.99 188.54,296.83C187.6,297.47 186.78,298.14 187.4,299.46C187.49,299.65 187.31,299.92 187.21,300.29ZM243.8,253.64C243.76,253.79 243.72,253.93 243.67,254.08C244.86,254.55 246.05,255.03 247.24,255.5C249.07,256.23 249.23,256.18 250.47,254.48C248.26,253.76 246.07,253.29 243.8,253.64Z" style="fill-rule:nonzero;"/>
            <path d="M172.77,205.36C170.84,205.53 169.24,204.98 167.84,203.95C160.75,198.73 155.96,191.93 154.28,183.21C153.77,180.57 153.9,177.82 153.74,175.11C153.72,174.73 153.74,174.34 153.74,173.76C152.66,174.48 151.71,175.1 150.5,175.91C150.73,175.22 150.8,174.76 151.02,174.39C153.07,171.04 155.55,168.07 159.03,166.14C162.42,164.27 165.12,161.68 167.63,158.79C168.93,157.3 170.49,156.03 171.98,154.72C173.17,153.67 174.63,152.89 175.05,151.17C175.1,150.98 175.44,150.84 175.67,150.72C176.47,150.31 177.36,150.02 178.08,149.49C181,147.33 183.87,145.09 186.77,142.9C187.36,142.46 187.68,142.1 187.39,141.25C186.97,140.04 187.46,139.23 188.82,138.44C191.47,136.9 194.3,135.87 197.32,135.31C201.68,134.5 205.97,133.52 210.02,131.57C211.94,130.65 214.11,130.24 216.19,129.7C217.6,129.33 218.85,129.87 219.99,130.72C220.95,131.43 221.93,132.12 222.95,132.74C226.08,134.64 227.93,137.32 228.43,141.01C229.26,147.14 230.22,153.26 231.07,159.39C231.26,160.77 231.25,162.18 231.26,163.58C231.28,171.29 231.22,179.01 231.28,186.72C231.32,191.83 231.2,196.95 232.17,202.01C232.36,203 232.41,204.02 232.55,205.15C231.34,205.06 231.09,204.39 230.92,203.63C229.85,198.64 229.59,193.59 229.69,188.5C229.97,174.6 230.22,160.69 227.49,146.94C227.07,144.83 226.75,142.69 226.47,140.56C226.17,138.36 225.11,136.66 223.35,135.38C222.12,134.49 220.84,133.67 219.61,132.79C217.79,131.49 215.75,131.13 213.84,132.21C208.04,135.5 201.44,135.97 195.2,137.68C194.43,137.89 193.97,138.12 193.8,138.98C193.53,140.41 192.46,141.29 191.34,142.1C188.27,144.33 185.04,146.37 182.15,148.82C177.47,152.8 173,157.02 168.49,161.19C165.64,163.82 162.84,166.51 159.41,168.4C156.44,170.03 154.49,172.01 155.32,175.85C156.05,179.22 155.73,182.91 156.88,186.09C159.78,194.15 164.45,201.02 172.39,205.08C172.51,205.1 172.58,205.19 172.77,205.36ZM380.22,163.79C380.16,175.85 379.46,187.74 382.18,199.55C385.55,198.3 388.38,199.42 391.08,201.31C394.87,203.96 398.37,206.89 401.05,210.72C402.25,212.44 403.93,213.57 405.91,214.26C406.14,214.34 406.45,214.36 406.57,214.52C406.86,214.92 407.05,215.38 407.28,215.82C406.82,216 406.22,216.45 405.92,216.31C403.48,215.14 401.03,214.02 399.38,211.65C396.52,207.55 392.6,204.57 388.42,201.93C387.51,201.35 386.3,201.24 385.23,200.91C385.12,201.06 385.02,201.22 384.91,201.37C385.22,201.8 385.45,202.5 385.86,202.63C390.09,203.93 393.11,206.85 396.06,209.94C399.04,213.05 402.06,216.13 405.21,219.07C407.94,221.62 411.47,222.86 414.77,224.46C415.49,224.81 416.21,225.15 416.92,225.51C417.85,225.98 418.94,226.26 419.1,227.6C419.13,227.9 419.5,228.19 419.77,228.42C423.77,231.72 425.23,236.22 425.51,241.13C425.82,246.64 424.99,252.06 423.26,257.29C421.52,262.52 418.36,266.94 414.92,271.17C412.33,274.36 409.8,277.61 407.15,280.76C406.03,282.1 404.71,283.28 403.4,284.44C402.98,284.81 402.31,284.9 401.75,285.12L401.57,284.76C401.7,284.59 401.81,284.4 401.96,284.24C403.98,281.98 406.14,279.82 407.98,277.43C411.12,273.35 414.15,269.18 417.08,264.94C421.15,259.05 423.09,252.41 423.69,245.31C423.97,242 424.04,238.75 422.59,235.68C420.71,231.73 418.07,228.48 414.07,226.43C408.42,223.55 403.14,220.11 398.72,215.5C396.9,213.6 395.29,211.49 393.38,209.67C391.39,207.77 389.14,206.15 387.06,204.35C386.16,203.57 385.43,202.61 384.56,201.81C384.24,201.51 383.64,201.19 383.3,201.29C382.33,201.6 381.37,202.04 380.51,202.58C379.4,203.28 378.39,204.13 377.25,204.97C376.75,203.87 377.04,203.03 377.91,202.56C380.18,201.34 380.52,199.51 380.03,197.18C378.81,191.41 378.58,185.54 378.44,179.67C378.36,176.51 378.39,173.36 378.29,170.2C378.26,169.43 377.97,168.65 377.68,167.92C377.32,166.99 378.11,164.29 378.99,163.9C379.31,163.73 379.73,163.81 380.22,163.79ZM130.9,293.2C125.17,296.21 121.77,297.39 117.53,296.38C121.59,294.67 126.21,294.94 130.04,292.4C129.82,291.83 129.6,291.29 129.41,290.73C128.99,289.47 129.27,288.92 130.43,288.31C131.02,288 131.61,287.61 132.03,287.11C134.69,283.97 137.29,280.79 139.92,277.63C140.56,276.86 141.17,276.06 141.9,275.38C149.11,268.65 156.25,261.84 163.59,255.25C170.51,249.03 177.58,242.96 184.73,237.01C186.69,235.38 189.17,234.38 191.42,233.11C191.57,233.02 191.83,233.11 192.03,233.12C191.97,233.35 191.97,233.61 191.85,233.81C191.73,234 191.51,234.15 191.31,234.28C185.45,238.22 180.42,243.15 175.11,247.75C168.25,253.68 161.4,259.61 154.66,265.68C146.3,273.21 138.72,281.48 131.81,290.37C131.41,290.89 131.38,291.24 131.82,291.7C132.01,291.9 132.14,292.17 132.33,292.37C135.67,295.81 137.22,300.11 138.46,304.63C139.36,307.92 140.72,311.09 141.87,314.32C142.06,314.85 142.32,315.36 142.42,315.9C143.13,319.69 144.74,323.13 146.66,326.4C149.73,331.64 151.92,337.22 153.8,342.96C155.33,347.62 157.01,352.23 158.63,356.87C159.1,358.2 159.35,359.53 158.77,361.29C158.3,360.32 157.91,359.66 157.66,358.95C155.47,352.78 153.5,346.54 151.08,340.46C149.11,335.5 146.62,330.75 144.36,325.91C144.12,325.41 143.92,324.88 143.67,324.39C143.49,324.04 143.31,323.48 143.05,323.42C141.73,323.15 141.94,322.11 141.75,321.22C141.45,319.82 141.11,318.42 140.67,317.05C138.78,311.21 136.85,305.38 134.95,299.54C134.61,298.49 134.24,297.5 133.16,296.97C133.01,296.9 132.91,296.69 132.82,296.53C132.19,295.42 131.56,294.34 130.9,293.2ZM19.91,263.16C19.28,263.66 19.67,264.46 20,265.22C22.44,270.86 24.99,276.45 27.31,282.14C30.2,289.23 32.91,296.4 35.7,303.53C36.44,305.41 36.92,307.5 39.17,308.2C38.66,309.49 38.61,309.53 36.56,310.08C36.49,310.41 36.41,310.79 36.36,311.07C35.3,308.17 34.22,305.2 33.13,302.23C32.73,301.14 32.39,300.03 31.86,299C31.53,298.37 30.9,297.89 30.4,297.33C31.11,297.06 31.01,296.39 30.68,295.59C26.89,286.54 23.4,277.35 19.26,268.46C16.41,262.35 14.91,255.95 13.8,249.46C12.64,242.66 14.45,236.13 17.16,229.89C19.45,224.61 22.73,219.93 26.51,215.61C27.29,214.72 28.48,214.17 29.47,213.46C30.37,212.82 31.26,212.16 32.15,211.51C32.82,211.02 33.45,210.46 34.16,210.05C36.2,208.88 38.37,207.92 40.32,206.63C46.6,202.45 52.8,198.14 59.06,193.91C60.27,193.09 61.53,192.24 63.14,192.53C63.92,194.23 63.87,194.41 62.22,195.11C58.27,196.79 54.63,198.96 51.06,201.35C45.158,205.313 39.167,209.141 33.09,212.83C30.06,214.67 27.41,216.8 25.3,219.62C23.88,221.51 22.45,223.37 21.04,225.26C20.83,225.54 20.7,225.88 20.58,226.21C19.95,227.88 19.49,229.63 18.68,231.21C15.09,238.25 14.34,245.57 16.3,253.19C16.99,255.86 17.77,258.5 18.6,261.12C18.82,261.82 19.39,262.38 19.91,263.16ZM373.48,32.34C373.3,31.64 373.14,31.04 372.9,30.14C373.67,30.61 374.24,30.88 374.72,31.25C375.65,31.97 376.64,32.11 377.77,31.83C378.11,31.74 378.54,32 378.93,32.1C378.62,32.49 378.38,33.1 377.97,33.25C375.58,34.14 373.14,34.91 370.73,35.74C367.94,36.71 365.18,37.76 362.37,38.68C358.58,39.92 355.61,42.39 352.69,44.95C352.63,45 352.58,45.06 352.52,45.12C350.14,47.24 350.11,47.29 347.31,45.82C340.27,42.13 333.93,37.46 329.83,30.57C326.99,25.79 325,20.52 322.67,15.44C321.47,12.83 320.38,10.17 319.23,7.54C318.67,6.27 317.98,5.13 316.47,4.77C316.22,4.71 315.99,4.38 315.82,4.14C314.24,1.9 311.76,0.97 309.1,1.68C303,3.3 297.57,6.33 292.32,9.71C289.34,11.64 286.45,13.71 283.52,15.73C282.14,16.68 280.9,17.73 280.9,19.7C279.59,19.2 278.87,19.81 278.25,20.77C275.75,24.62 273.22,28.44 270.35,32.29C270.35,31.94 270.23,31.53 270.37,31.26C272.1,27.81 273.7,24.26 276.55,21.51C277,21.08 277.41,20.56 277.68,20.01C278.68,17.97 279.62,15.91 280.65,13.71C281.97,14.78 283.03,14.07 284.12,13.32C290.24,9.1 296.45,5.03 303.3,2.07C305.88,0.95 308.48,0.01 311.39,0.39C313.54,0.68 315.21,1.89 316.91,3.07C320.02,5.21 321.62,8.38 323.01,11.75C324.9,16.32 326.9,20.85 328.86,25.39C329.01,25.75 329.21,26.09 329.43,26.53C332.31,24.36 335.12,22.26 337.92,20.15C338.14,19.98 338.35,19.76 338.6,19.66C338.81,19.58 339.07,19.64 339.3,19.63C339.26,19.87 339.29,20.19 339.15,20.33C338.53,20.95 337.86,21.52 337.19,22.09C334.81,24.1 332.43,26.09 330.07,28.07C334.41,35.82 341.88,42.15 350.19,45.47C350.41,44.03 351.08,42.93 352.63,42.64C352.74,42.62 352.83,42.51 352.92,42.43C357.08,38.36 362.38,36.46 367.7,34.57C369.24,34.02 370.78,33.48 372.32,32.92C372.71,32.76 373.08,32.54 373.48,32.34ZM66.95,103.56C66.76,102.76 66.57,101.96 66.37,101.16C66.33,101.16 66.3,101.16 66.26,101.15L66.26,105.41C66.14,105.43 66.02,105.44 65.9,105.46C65.75,104.15 65.6,102.83 65.42,101.27C64.92,101.52 64.46,101.64 64.16,101.93C62.22,103.71 60.31,105.53 58.39,107.34C57.32,108.35 56.88,109.61 57.13,111.04C57.5,113.16 57.88,115.29 58.45,117.37C58.76,118.5 59.47,119.51 59.94,120.6C60.12,121.01 60.12,121.49 60.2,121.94C60.03,122 59.86,122.06 59.68,122.12C59.14,121.28 58.43,120.5 58.08,119.59C57.06,116.95 56.09,114.28 55.27,111.58C54.61,109.41 55.27,107.45 56.86,105.87C58.64,104.1 60.45,102.34 62.35,100.7C63.99,99.28 65.42,97.81 65.65,95.52C65.85,96.9 66.06,98.28 66.27,99.7C67.17,99.35 66.99,98.72 66.76,98.12C66.47,97.35 66.64,96.85 67.32,96.31C71.06,93.32 74.75,90.26 78.46,87.22C78.36,87.16 78.25,87.09 78.15,87.03C78.31,86.74 78.4,86.33 78.65,86.18C79.83,85.46 81.12,84.89 82.26,84.11C87.37,80.58 92.91,77.84 98.46,75.1C99.36,74.66 100.06,73.84 100.91,73.29C101.52,72.9 102.26,72.71 102.88,72.33C104.34,71.43 105.77,70.48 107.21,69.54C112.33,66.21 117.45,62.87 122.57,59.54C122.96,59.29 123.39,59.09 123.8,58.87L124.1,59.2C123.78,59.4 123.43,59.56 123.14,59.81C117.71,64.41 112.03,68.65 106.21,72.75C100.66,76.66 94.67,79.54 88.64,82.44C85.27,84.06 82.6,86.6 79.74,88.9C75.81,92.05 71.93,95.26 68.01,98.42C67.46,98.86 67.25,99.24 67.35,100C67.49,101.17 67.39,102.36 67.39,103.55C67.245,103.518 67.094,103.521 66.95,103.56Z" style="fill-rule:nonzero;"/>
            <path d="M283.82,20.23C284.15,20.9 284.68,21.55 284.79,22.26C285.43,26.52 285.97,30.8 286.57,35.07C288.02,45.46 291.24,55.35 295.17,65.02C297.11,69.78 299.12,74.52 301.1,79.27C301.14,79.37 301.24,79.45 301.35,79.59C302.25,79.21 303.22,78.65 303.83,79.77C301.97,81.33 300.03,82.72 298.37,84.39C293.19,89.6 288.11,94.92 282.99,100.2C282.83,100.37 282.66,100.54 282.45,100.76C281.9,99.96 282.22,99.36 282.66,98.7C285.06,95.17 288.05,92.19 291.16,89.3C293.91,86.74 296.5,84.01 299.18,81.39C299.65,80.93 299.74,80.53 299.49,79.92C298.32,77.04 297.17,74.15 296.06,71.25C294.02,65.93 292.02,60.59 290,55.26C289.83,54.81 289.61,54.38 289.42,53.94C289.27,53.99 289.13,54.03 288.98,54.08C290.2,60.57 291.43,67.05 292.69,73.76C291.03,72.43 290.58,70.74 290.27,69.01C288.9,61.35 287.64,53.67 286.15,46.03C284.87,39.47 283.85,32.9 283.76,26.2C283.75,25.09 283.5,23.98 283.4,22.87C283.33,22.05 283.32,21.23 283.28,20.41C283.46,20.34 283.64,20.28 283.82,20.23ZM81.71,229.04C81.35,228.39 81.2,228.11 81,227.75C81.71,227.21 82.4,226.69 83.13,226.12C83.64,227.06 84.26,226.96 85.05,226.57C89.66,224.25 94.42,222.41 99.43,221.07C105.17,219.53 110.19,216.65 114.1,211.89C118.35,206.71 123.76,202.71 128.9,198.46C130.1,197.47 131.12,196.28 132.26,195.22C133.26,194.28 133.65,194.32 134.73,195.38C132.91,197.05 131.09,198.71 129.27,200.37C123.51,205.61 117.73,210.83 112.01,216.11C109.63,218.31 106.78,219.57 103.8,220.65C98.74,222.49 93.67,224.31 88.63,226.2C87.07,226.79 85.58,227.58 84.07,228.3C83.83,228.42 83.54,228.57 83.42,228.79C82.31,230.87 80.38,231.3 78.27,231.45C74.17,231.74 70.06,231.95 65.99,232.42C60.92,233.01 55.87,233.78 50.83,234.57C47.84,235.04 44.9,235.81 41.9,236.26C37.67,236.89 33.55,236.52 29.66,234.5C28.54,233.92 27.33,233.51 26.16,233.02C26.14,232.88 26.13,232.73 26.11,232.59C26.73,232.47 27.35,232.27 27.97,232.26C28.38,232.26 28.81,232.5 29.2,232.7C34.45,235.31 39.89,235.38 45.56,234.35C52.74,233.05 59.98,232.03 67.22,231.04C70.95,230.53 74.74,230.4 78.49,229.99C79.51,229.88 80.53,229.4 81.71,229.04ZM424.03,201.72C423.3,201.17 423.18,200.53 423.64,199.82C424.25,198.89 424.79,197.9 425.53,197.09C428.57,193.76 432.06,191.01 436.1,188.95C438.41,187.77 440.67,187.61 442.98,188.77C446.01,190.28 449.05,191.79 452.02,193.42C452.77,193.83 453.41,194.62 453.86,195.37C457.37,201.22 458.53,207.59 458,214.35C457.3,223.19 456.67,232.03 456,240.86C455.98,241.13 455.89,241.4 455.83,241.67C454.49,241.89 454.02,241.53 454.11,240.18C454.44,235.4 454.79,230.62 455.2,225.85C455.57,221.51 456.2,217.2 456.42,212.85C456.66,208.05 455.74,203.39 453.63,199.03C451.98,195.63 449.38,193.32 445.73,192.16C444.64,191.81 443.61,191.24 442.61,190.67C440.32,189.35 438.11,189.48 435.97,190.95C431.78,193.84 427.74,196.89 424.67,201.03C424.47,201.26 424.24,201.48 424.03,201.72Z" style="fill-rule:nonzero;"/>
            <path d="M453.74,231.11C453.25,231.41 452.78,231.88 452.25,231.97C448.85,232.52 446.07,234.5 443.04,235.88C440.32,237.12 437.68,238.55 434.91,239.66C433.39,240.27 431.69,240.6 430.05,240.66C428.27,240.73 427.01,239.52 426.54,237.89C425.9,235.68 425.43,233.41 425.1,231.13C424.21,224.94 423.79,218.66 421.98,212.63C421.72,211.78 421.24,211 420.75,209.97C420.03,210.82 419.49,211.45 418.96,212.08C418.84,212.04 418.72,211.99 418.6,211.95L418.6,208.86C420.76,207.74 422.33,208.1 423.03,210.28C423.92,213.07 424.54,215.97 425.05,218.86C425.95,224.05 426.65,229.27 427.48,234.47C427.6,235.25 427.86,236.03 428.19,236.74C429.04,238.54 430.56,239.38 432.42,238.7C435.78,237.47 439.04,235.97 442.35,234.6C445.51,233.29 448.66,231.96 451.85,230.71C452.38,230.5 453.05,230.68 453.66,230.68C453.69,230.82 453.72,230.96 453.74,231.11ZM350.74,229.75C352,230.9 354.6,229.67 355,232.09C354.92,232.22 354.83,232.35 354.75,232.48C354.39,232.22 354.01,231.97 353.66,231.69C352.91,231.07 352.27,231.13 351.57,231.83C349.61,233.77 348.41,236.07 348.32,238.82C348.17,243.37 348.07,247.92 348.06,252.48C348.05,258.47 348.16,264.47 348.2,270.46C348.22,273.31 349.23,275.85 350.62,278.26C351.72,280.15 352.91,282 354.18,284.07C352.47,283.65 351.26,282.74 350.56,281.43C349.3,279.09 348.05,276.7 347.22,274.19C346.6,272.34 346.46,270.26 346.44,268.29C346.36,259.26 346.43,250.22 346.4,241.19C346.39,237.28 346.98,233.62 350.08,230.82C350.32,230.58 350.45,230.21 350.74,229.75ZM81.4,239.01C82.98,243.65 84.57,248.29 86.13,252.93C89.51,262.93 91.96,273.17 94.01,283.51C94.92,288.08 95.89,292.65 96.78,297.23C96.96,298.19 96.89,299.19 96.93,300.18C96.83,300.24 96.73,300.29 96.63,300.35C96.27,299.94 95.69,299.57 95.6,299.1C95.26,297.47 94.29,296.97 92.77,297.15C92.54,297.18 92.29,297.13 92.04,297C92.99,296.87 93.94,296.74 95.23,296.57C93.9,290.3 92.6,284.1 91.27,277.9C90.62,274.86 89.97,271.81 89.19,268.8C88.78,267.19 88.09,265.65 87.57,264.06C87.25,263.08 87.03,262.07 86.76,261.08C85.71,257.24 84.66,253.4 83.6,249.56C82.78,246.6 81.93,243.65 81.13,240.68C80.99,240.16 81.06,239.59 81.03,239.05C81.18,239.03 81.29,239.02 81.4,239.01ZM459.16,173.26C459.29,174.51 458.61,174.63 457.83,174.57C454.97,174.34 452.1,174.15 449.24,173.85C444.76,173.38 440.42,174.21 436.04,174.95C426.82,176.5 418.29,180.09 409.72,183.61C408.95,183.93 408.16,184.21 407.35,184.43C407.12,184.49 406.81,184.25 406.53,184.15C406.63,183.89 406.66,183.56 406.85,183.39C407.22,183.04 407.63,182.69 408.09,182.48C415.9,179 423.77,175.68 432.22,174.03C438.02,172.9 443.84,171.75 449.8,172.25C452.92,172.49 456.04,172.91 459.16,173.26ZM50.71,218.15C52.59,216.16 54.44,214.14 56.37,212.2C60.23,208.32 64.12,204.47 68.04,200.66C68.95,199.78 70.04,199.09 71.05,198.32C73.04,196.8 75.04,195.28 77.27,193.59C76.34,193.32 75.73,193.14 74.99,192.92C76.59,192.47 78.13,192.26 79.44,191.61C80.77,190.95 81.88,189.84 83.1,188.91C82.79,190.74 82.26,192.33 80.62,193.55C76.62,196.52 72.63,199.55 68.84,202.79C64.23,206.73 59.66,210.73 55.64,215.31C54.6,216.5 53.27,217.44 52.04,218.45C51.8,218.65 51.37,218.61 51.03,218.69C50.93,218.51 50.82,218.33 50.71,218.15ZM59.91,318.56C56.71,318.32 53.69,317.73 50.82,316.36C47.84,314.93 44.83,313.55 41.84,312.13C41.57,312 41.38,311.69 41.16,311.46C41.46,311.34 41.76,311.1 42.04,311.12C42.54,311.15 43.07,311.27 43.53,311.48C45.85,312.54 48.18,313.59 50.46,314.74C54.57,316.8 58.96,317.3 63.42,316.75C68.88,316.07 74.37,315.35 79.73,314.14C82.82,313.44 85.69,311.75 88.67,310.51C90.24,309.85 91.81,309.19 93.4,308.58C93.62,308.49 93.94,308.68 94.22,308.74C94.06,308.97 93.95,309.3 93.73,309.42C90.03,311.29 86.4,313.37 82.56,314.89C80.12,315.86 77.36,316.08 74.73,316.48C69.8,317.22 64.85,317.86 59.91,318.56ZM344.64,51.54C344.65,52.86 343.92,53.17 343.19,53.55C335.33,57.7 327.42,61.76 319.66,66.1C316.77,67.72 314.27,70.01 311.58,71.98C310.59,72.71 309.6,73.42 308.6,74.14C308.48,74.07 308.37,73.99 308.25,73.92C308.56,73.3 308.73,72.54 309.2,72.1C311.41,70.02 313.55,67.82 315.99,66.06C318.36,64.35 321.06,63.06 323.66,61.68C329.05,58.82 334.45,55.98 339.89,53.23C341.35,52.51 342.96,52.13 344.64,51.54ZM380.74,24.81C381.36,25.14 382.1,25.34 382.56,25.82C383.12,26.41 383.44,27.23 383.86,27.95C384.18,28.5 384.35,29.26 384.83,29.57C386.03,30.34 386.17,31.47 386.38,32.7C386.84,35.53 388.12,38.05 390.01,40.14C393.54,44.05 397.21,47.83 400.87,51.61C401.58,52.34 402.56,52.8 403.39,53.43C403.64,53.62 403.79,53.94 403.99,54.21C403.62,54.37 403.17,54.76 402.9,54.66C401.94,54.32 400.89,53.98 400.14,53.33C394.89,48.75 390.04,43.79 386.23,37.91C385.99,37.54 385.75,37.17 385.57,36.77C383.94,33.1 382.32,29.42 380.7,25.74C380.62,25.57 380.55,25.39 380.48,25.22C380.55,25.08 380.65,24.95 380.74,24.81ZM291.04,168.8C291.04,168.5 291.02,168.19 291.04,167.89C291.15,166.09 291.08,165.97 289.38,165.24C286.92,164.19 284.3,164.29 281.71,164.27C275.32,164.23 268.94,164.28 262.55,164.25C258.88,164.23 255.21,164.13 251.54,164.06C251.3,164.06 251,164.1 250.84,163.98C250.41,163.65 250.05,163.24 249.66,162.86C250.1,162.66 250.56,162.27 250.99,162.3C254.73,162.51 258.46,162.97 262.21,163.02C266.35,163.08 270.51,162.69 274.65,162.71C280.14,162.74 285.68,162.56 291.02,164.27C292.58,164.77 293.08,165.5 292.56,167.06C292.33,167.75 291.77,168.33 291.36,168.96C291.26,168.9 291.15,168.85 291.04,168.8ZM125.62,365.13C125.75,363.61 124.06,363.7 123.49,362.53C124.08,362.43 124.64,362.2 125.16,362.28C128.74,362.86 132.28,363.8 135.87,364.05C141.72,364.46 147.59,364.48 153.46,364.58C155.57,364.62 157.55,363.97 159.38,362.91C159.98,362.56 160.67,362.37 161.36,362.2C160.41,363.82 159.45,365.12 157.28,365.39C153.23,365.89 149.21,366.53 145.12,366.01C143.76,365.84 142.97,366.3 142.85,367.72C142.71,367.64 142.59,367.6 142.59,367.57C142.66,366.27 142.01,366 140.78,365.96C136.07,365.8 131.37,365.5 126.67,365.25C126.33,365.23 125.97,365.17 125.62,365.13ZM236.52,233.16C236.75,232.67 236.89,232.11 237.21,231.71C238.42,230.2 240.15,229.77 241.97,229.53C246.46,228.94 250.87,229.33 255.28,230.32C258.97,231.15 262.7,231.81 266.43,232.5C267.25,232.65 268.1,232.66 268.93,232.68C270.56,232.73 271.62,231.95 272.3,230.48C272.59,229.84 273.06,229.28 273.5,228.73C273.62,228.58 273.96,228.61 274.2,228.56C274.24,228.77 274.35,229 274.3,229.18C273.22,233.07 271.55,234.55 268.25,234.05C263.88,233.38 259.52,232.63 255.18,231.77C250.87,230.92 246.55,230.63 242.21,231.25C241.02,231.42 239.89,232.05 238.75,232.5C238.1,232.76 237.48,233.09 236.85,233.39C236.73,233.32 236.62,233.24 236.52,233.16ZM407.62,219.95C407.97,217.94 408.24,216.03 408.63,214.14C409.86,208.22 410.58,202.24 410.55,196.19C410.54,193.88 410.29,191.57 410.22,189.25C410.2,188.71 410.5,188.17 410.66,187.63C410.95,186.6 411.25,185.58 411.64,184.21C411.96,184.96 412.37,185.5 412.38,186.03C412.53,195.39 412.31,204.73 410.45,213.95C410.14,215.48 409.75,216.98 409.44,218.51C409.25,219.37 408.76,219.8 407.62,219.95ZM408.71,188.28C407.7,187.95 406.72,187.81 405.94,187.33C400.06,183.73 394.21,180.09 388.37,176.42C386.18,175.04 384.01,173.61 382.46,171.44C382.03,170.84 381.49,170.19 382.2,169.58C382.84,169.03 383.64,169.16 384.23,169.84C390.62,177.26 399.18,181.65 407.46,186.43C408.02,186.77 408.99,186.87 408.71,188.28ZM313.04,210.73C313.39,207.96 313.51,205.48 314.04,203.09C315.02,198.66 315.64,194.11 317.61,189.96C319.47,186.02 321.89,182.48 325.33,179.72C326.1,179.11 326.9,178.83 327.99,179.19C327.73,179.49 327.57,179.74 327.35,179.93C321.18,185.33 317.43,192 316.4,200.2C316.16,202.08 315.48,203.91 314.9,205.73C314.41,207.29 313.76,208.81 313.04,210.73ZM205.85,244.77C206.33,245.66 205.87,246.15 205.07,246.57C201.08,248.66 197.05,250.69 193.12,252.89C188,255.75 182.98,258.78 177.89,261.68C176.58,262.42 175.17,262.99 173.61,263.73C173.74,262.44 174.48,261.94 175.26,261.5C182.01,257.63 188.76,253.78 195.5,249.9C197.26,248.89 198.98,247.79 200.73,246.75C201.74,246.15 202.64,245.39 204.01,245.58C204.55,245.66 205.19,245.08 205.85,244.77ZM399.51,56.19C395.75,63.02 390.93,68.68 385.77,74.01C382.17,77.74 378.08,80.99 373.37,83.31C372.78,83.6 372.08,83.67 371.43,83.85C371.38,83.73 371.33,83.6 371.28,83.48C371.55,83.28 371.81,83.04 372.11,82.89C377.56,80.09 381.94,75.96 386.15,71.62C389.61,68.05 392.78,64.28 395.28,59.96C396.21,58.35 397.64,57.21 399.51,56.19ZM95.05,105.73C94.65,105.91 94.25,106.22 93.84,106.24C92.37,106.31 90.89,106.29 89.42,106.29L70.5,106.29C70.3,106.29 70.1,106.31 69.9,106.29C69.2,106.2 68.14,106.58 68.08,105.48C68.01,104.32 69.14,104.27 69.92,104.27C72.83,104.27 75.74,104.38 78.65,104.46C83.08,104.59 87.5,104.7 91.93,104.87C92.94,104.91 93.95,105.12 94.96,105.25L95.05,105.73ZM300.03,208.59C299.9,208.03 299.62,207.46 299.67,206.92C300.05,203.28 300.24,199.59 300.98,196.01C301.88,191.65 304.42,188.06 307.49,184.89C309.3,183.03 311.17,181.22 313.03,179.41C313.27,179.18 313.65,179.1 313.96,178.94C314.04,179.08 314.12,179.21 314.21,179.35C312.3,181.6 310.52,183.97 308.46,186.07C303.96,190.66 301.96,196.29 301.1,202.48C300.98,203.33 300.62,204.15 300.32,205.11C300.39,206.09 300.46,207.29 300.54,208.48C300.37,208.53 300.2,208.56 300.03,208.59ZM372.1,30.11C371.2,29.87 370.28,29.68 369.41,29.37C364.29,27.56 359.19,25.72 354.08,23.91C353.37,23.66 352.63,23.46 351.9,23.26C350.47,22.88 349.78,21.73 350.22,20.35C350.52,19.4 350.89,18.48 351.55,17.42C351.84,18.04 352.33,18.64 352.38,19.28C352.43,19.95 352.05,20.64 351.86,21.32C358.64,24.3 366.09,25.48 372.23,29.74C372.18,29.86 372.14,29.98 372.1,30.11ZM374.8,207.17C373.99,208.45 373.31,209.84 372.35,211C368.93,215.15 365.03,218.78 360.42,221.63C358.35,222.91 356.44,224.44 354.45,225.84C354.06,226.11 353.61,226.3 353.1,226.39C360.06,219.71 368.34,214.52 374.31,206.8C374.48,206.93 374.64,207.05 374.8,207.17ZM338.04,193.54C336.25,198.37 334.57,202.92 332.89,207.47C332.82,207.66 332.79,207.89 332.67,208.02C332.39,208.3 332.06,208.53 331.6,208.66C332.07,202.96 333.97,197.93 338.04,193.54ZM92.22,184.05C90.43,185.68 88.6,187.25 85.99,186.64C88.23,184.17 90.69,183.12 92.22,184.05ZM170.19,265.8C168.87,267.58 166.4,269.11 165.18,268.78C166.88,267.77 168.38,266.87 170.19,265.8ZM132.84,165.43C132.21,167.14 131.6,167.55 130.45,167.04C131.24,166.51 131.96,166.02 132.84,165.43ZM161.01,272.42C161.45,271.18 162.81,270.37 163.71,270.68C162.73,271.32 161.87,271.87 161.01,272.42ZM156.37,274.9C157.19,274.28 158.02,273.67 158.84,273.05C158.41,274.27 157.45,274.69 156.34,274.87L156.37,274.9Z" style="fill-rule:nonzero;"/>
            <path d="M212.63,353.25C212.33,352.09 211.49,351.83 210.51,351.73C208.92,351.56 207.34,351.31 205.75,351.16C203.9,350.98 203.14,350.37 202.54,348.34C203.59,348.67 204.55,349 205.53,349.28C206.64,349.59 207.76,350.05 208.89,350.1C211.46,350.23 214.11,350.52 216.6,350.06C219.1,349.6 221.55,348.52 223.83,347.34C228.97,344.68 233.39,340.96 237.72,337.17C247.16,328.92 257.27,321.6 268.05,315.2C270.25,313.9 272.38,312.48 274.57,311.17C275.19,310.8 275.93,310.6 276.68,310.3C277.03,311.31 276.67,311.87 276.02,312.29C275.22,312.81 274.4,313.31 273.58,313.8C261.45,321.1 249.67,328.91 238.91,338.15C234.5,341.93 229.84,345.35 224.97,348.49C221.85,350.5 218.42,351.6 214.72,351.83C213.75,351.9 212.99,352.15 212.63,353.25Z" style="fill-rule:nonzero;"/>
        </g>
    </g>
</svg>
