<?xml version="1.0" encoding="UTF-8" standalone="no"?>
<!DOCTYPE svg PUBLIC "-//W3C//DTD SVG 1.1//EN" "http://www.w3.org/Graphics/SVG/1.1/DTD/svg11.dtd">
<svg width="100%" height="100%" viewBox="0 0 2276 2275" version="1.1" xmlns="http://www.w3.org/2000/svg" xmlns:xlink="http://www.w3.org/1999/xlink" xml:space="preserve" xmlns:serif="http://www.serif.com/" style="fill-rule:evenodd;clip-rule:evenodd;stroke-miterlimit:10;">
    <g transform="matrix(1,0,0,1,-5662,0)">
        <g id="_3" serif:id="3" transform="matrix(1,0,0,1,7097.14,-3215.91)">
            <rect x="-1434.93" y="3215.91" width="2274.98" height="2274.98" style="fill:none;"/>
            <clipPath id="_clip1">
                <rect x="-1434.93" y="3215.91" width="2274.98" height="2274.98"/>
            </clipPath>
            <g clip-path="url(#_clip1)">
                <g transform="matrix(17.2176,0,0,17.2176,-4754.27,1285.6)">
                    <g transform="matrix(1,0,0,1,235.468,228.694)">
                        <path d="M0,-89.639C0.242,-89.639 0.428,-89.625 0.607,-89.647C0.669,-89.655 0.714,-89.752 0.767,-89.809C0.695,-89.849 0.623,-89.924 0.553,-89.922C0.34,-89.917 0.158,-89.846 0,-89.639M1.245,-89.826C1.403,-89.835 1.499,-89.844 1.594,-89.846C2.231,-89.857 2.854,-89.868 3.5,-89.773C4.333,-89.649 5.203,-89.67 6.057,-89.666C6.665,-89.663 7.228,-89.569 7.762,-89.34C7.873,-89.293 8.008,-89.254 8.129,-89.258C8.451,-89.269 8.772,-89.304 9.094,-89.331C9.795,-89.392 10.496,-89.452 11.197,-89.516C11.289,-89.525 11.378,-89.552 11.471,-89.572C11.466,-89.632 11.472,-89.672 11.457,-89.707C11.442,-89.743 11.416,-89.784 11.379,-89.805C10.877,-90.103 10.376,-90.405 9.739,-90.495C9.109,-90.585 8.459,-90.622 7.854,-90.773C7.07,-90.967 6.28,-90.969 5.482,-90.982C5.372,-90.983 5.261,-90.942 5.149,-90.923C4.813,-90.867 4.479,-90.774 4.141,-90.764C3.251,-90.74 2.451,-90.454 1.619,-90.26C1.499,-90.232 1.376,-90.163 1.296,-90.085C1.243,-90.033 1.262,-89.932 1.245,-89.826M-0.508,-28.775C-0.501,-28.728 -0.492,-28.708 -0.499,-28.702C-0.589,-28.629 -0.683,-28.559 -0.774,-28.487C-1.022,-28.288 -1.078,-28.136 -0.909,-27.972C-0.427,-27.504 0.092,-27.071 0.81,-26.823C1.688,-26.519 2.605,-26.333 3.55,-26.237C4.175,-26.173 4.802,-26.168 5.4,-26.361C5.658,-26.444 5.892,-26.576 6.151,-26.655C6.992,-26.912 7.839,-27.159 8.687,-27.402C9.286,-27.574 9.878,-27.77 10.535,-27.752C10.631,-27.749 10.728,-27.781 10.825,-27.795C11.678,-27.924 12.535,-28.039 13.384,-28.184C14.39,-28.356 15.396,-28.518 16.306,-28.957C16.626,-29.112 16.73,-29.276 16.784,-29.517C16.228,-29.681 15.699,-29.845 15.163,-29.991C15.011,-30.032 14.837,-30.032 14.673,-30.032C14.262,-30.032 13.851,-30.015 13.44,-30.017C12.189,-30.026 10.938,-30.046 9.687,-30.049C9.394,-30.049 9.101,-29.995 8.807,-29.974C8.549,-29.955 8.291,-29.939 8.032,-29.936C7.49,-29.929 6.949,-29.931 6.407,-29.929C5.783,-29.926 5.139,-29.841 4.541,-29.939C3.775,-30.065 3.028,-30.133 2.25,-30.083C1.548,-30.039 0.842,-30.038 0.138,-30.04C-0.221,-30.042 -0.489,-29.929 -0.619,-29.684C-0.762,-29.412 -0.833,-29.116 -0.928,-28.829C-0.937,-28.802 -0.889,-28.762 -0.875,-28.741C-0.743,-28.753 -0.625,-28.764 -0.508,-28.775M41.316,-96.892C41.566,-97.056 41.743,-97.154 41.89,-97.274C42.381,-97.674 42.724,-98.126 42.601,-98.721C42.52,-99.11 42.449,-99.501 42.347,-99.886C42.24,-100.295 42,-100.648 41.602,-100.932C41.357,-101.106 41.145,-101.309 40.921,-101.501C40.833,-101.577 40.761,-101.664 40.667,-101.733C40.388,-101.934 40.11,-102.137 39.817,-102.325C39.211,-102.714 38.657,-103.178 37.83,-103.271C37.766,-103.278 37.701,-103.294 37.643,-103.316C36.62,-103.713 35.559,-104.02 34.444,-104.204C33.849,-104.302 33.263,-104.456 32.663,-104.507C31.667,-104.592 30.664,-104.614 29.663,-104.662C29.269,-104.681 28.943,-104.553 28.719,-104.31C28.497,-104.068 28.326,-103.795 28.141,-103.533C27.858,-103.132 27.587,-102.726 27.301,-102.327C27.167,-102.14 27.011,-101.964 26.841,-101.754C27.012,-101.684 27.134,-101.624 27.266,-101.583C27.542,-101.498 27.61,-101.389 27.429,-101.221C27.296,-101.097 27.111,-101.007 26.935,-100.921C26.768,-100.84 26.581,-100.786 26.404,-100.718C25.581,-100.396 24.791,-100.022 23.923,-99.768C23.263,-99.576 22.632,-99.32 21.985,-99.097C21.26,-98.847 20.549,-98.579 19.876,-98.241C19.183,-97.892 18.453,-97.591 17.737,-97.27C17.223,-97.039 16.708,-96.808 16.19,-96.582C16.005,-96.502 15.802,-96.447 15.617,-96.366C14.899,-96.05 14.18,-95.736 13.473,-95.405C13.227,-95.289 12.909,-95.237 12.759,-94.955C13.14,-94.703 13.419,-94.352 13.909,-94.181C14.018,-94.144 14.112,-94.052 14.178,-93.967C14.596,-93.431 15.034,-92.903 15.406,-92.347C15.733,-91.858 16.167,-91.397 16.202,-90.808C16.216,-90.565 16.295,-90.345 16.54,-90.174C16.602,-90.131 16.643,-90.039 16.642,-89.97C16.641,-89.687 16.892,-89.579 17.155,-89.5C17.963,-89.258 18.795,-89.12 19.665,-89.212C20.185,-89.266 20.702,-89.351 21.224,-89.382C22.57,-89.46 23.892,-89.638 25.189,-89.933C25.584,-90.023 25.984,-90.103 26.365,-90.221C26.871,-90.376 27.358,-90.569 27.857,-90.739C28.717,-91.032 29.593,-91.301 30.332,-91.774C30.533,-91.903 30.661,-92.15 30.877,-92.206C31.22,-92.295 31.458,-92.481 31.732,-92.63C32.772,-93.2 33.906,-93.648 34.916,-94.258C35.382,-94.538 35.95,-94.709 36.464,-94.94C36.85,-95.114 37.23,-95.297 37.602,-95.489C37.888,-95.636 38.154,-95.808 38.435,-95.962C39.004,-96.275 39.589,-96.57 40.143,-96.899C40.344,-97.018 40.47,-97.216 40.639,-97.371C40.717,-97.442 40.809,-97.539 40.908,-97.551C41.1,-97.574 41.2,-97.455 41.234,-97.312C41.261,-97.2 41.279,-97.086 41.316,-96.892M-1.972,-88.612C-2.398,-88.868 -2.524,-88.858 -2.847,-88.559C-2.9,-88.51 -2.946,-88.453 -2.987,-88.397C-3.279,-87.994 -3.492,-87.566 -3.55,-87.102C-3.667,-86.176 -3.774,-85.249 -3.866,-84.321C-4.009,-82.877 -4.161,-81.434 -4.26,-79.988C-4.314,-79.2 -4.292,-78.407 -4.264,-77.617C-4.221,-76.394 -4.112,-75.172 -4.091,-73.949C-4.077,-73.071 -4.161,-72.191 -4.202,-71.312C-4.205,-71.26 -4.225,-71.208 -4.229,-71.156C-4.273,-70.529 -4.375,-69.907 -4.397,-69.276C-4.437,-68.13 -4.546,-66.986 -4.622,-65.84C-4.67,-65.117 -4.752,-64.392 -4.742,-63.669C-4.729,-62.748 -4.654,-61.827 -4.578,-60.907C-4.489,-59.843 -4.379,-58.78 -4.264,-57.717C-4.114,-56.326 -3.956,-54.934 -3.79,-53.544C-3.638,-52.272 -3.473,-51.001 -3.312,-49.73C-3.245,-49.193 -3.169,-48.657 -3.106,-48.119C-2.909,-46.43 -2.881,-44.733 -2.709,-43.042C-2.592,-41.886 -2.532,-40.727 -2.427,-39.57C-2.293,-38.089 -2.152,-36.608 -1.993,-35.129C-1.847,-33.777 -1.685,-32.427 -1.506,-31.077C-1.457,-30.707 -1.417,-30.324 -1.169,-29.925C-1.04,-30.041 -0.959,-30.136 -0.853,-30.205C-0.69,-30.311 -0.525,-30.448 -0.334,-30.488C0.076,-30.574 0.497,-30.634 0.932,-30.533C1.179,-30.476 1.447,-30.454 1.705,-30.458C2.263,-30.467 2.821,-30.526 3.378,-30.518C3.801,-30.513 4.239,-30.475 4.64,-30.376C5.039,-30.276 5.448,-30.251 5.806,-30.339C6.298,-30.46 6.78,-30.429 7.269,-30.439C7.792,-30.45 8.315,-30.448 8.837,-30.469C9.246,-30.486 9.652,-30.551 10.06,-30.556C10.651,-30.564 11.244,-30.524 11.835,-30.527C12.574,-30.532 13.306,-30.448 14.053,-30.521C14.528,-30.568 15.041,-30.485 15.516,-30.393C16.116,-30.277 16.695,-30.092 17.282,-29.936C17.331,-29.967 17.372,-29.989 17.406,-30.015C17.8,-30.314 17.903,-30.721 18.01,-31.117C18.131,-31.567 18.188,-32.028 18.301,-32.479C18.494,-33.261 18.527,-34.047 18.474,-34.839C18.421,-35.624 18.358,-36.41 18.339,-37.197C18.322,-37.922 18.396,-38.648 18.363,-39.372C18.284,-41.095 18.215,-42.819 18.026,-44.538C17.833,-46.297 17.698,-48.059 17.572,-49.821C17.495,-50.885 17.479,-51.952 17.447,-53.018C17.422,-53.848 17.415,-54.68 17.4,-55.51C17.384,-56.481 17.396,-57.452 17.438,-58.424C17.492,-59.662 17.568,-60.901 17.581,-62.139C17.591,-63.166 17.469,-64.194 17.507,-65.219C17.536,-65.98 17.364,-66.713 17.245,-67.455C17.119,-68.239 16.94,-69.018 16.832,-69.804C16.685,-70.884 16.408,-71.947 16.192,-73.017C16.043,-73.757 15.913,-74.499 15.82,-75.244C15.717,-76.069 15.669,-76.899 15.59,-77.726C15.509,-78.578 15.427,-79.431 15.331,-80.282C15.188,-81.54 15.139,-82.808 14.782,-84.048C14.671,-84.431 14.524,-84.815 14.483,-85.204C14.412,-85.893 14.233,-86.544 13.929,-87.197C13.625,-87.847 13.173,-88.384 12.584,-88.873C12.43,-89.001 12.279,-89.04 12.068,-89.047C10.861,-89.089 9.673,-88.932 8.484,-88.814C8.085,-88.774 7.74,-88.812 7.386,-88.928C7.295,-88.958 7.203,-88.986 7.109,-89.007C6.261,-89.191 5.39,-89.218 4.518,-89.242C3.996,-89.256 3.477,-89.243 2.95,-89.33C2.446,-89.413 1.889,-89.421 1.388,-89.337C0.938,-89.263 0.479,-89.149 0.039,-89.18C-0.678,-89.23 -1.243,-89.024 -1.789,-88.711C-1.841,-88.681 -1.895,-88.653 -1.972,-88.612M-4.82,-57.806C-4.861,-57.805 -4.903,-57.803 -4.944,-57.802C-4.944,-57.698 -4.947,-57.594 -4.943,-57.49C-4.896,-56.173 -4.84,-54.855 -4.802,-53.538C-4.774,-52.563 -4.753,-51.587 -4.76,-50.612C-4.768,-49.306 -4.815,-48.001 -4.826,-46.697C-4.83,-46.157 -4.781,-45.617 -4.756,-45.076C-4.718,-44.236 -4.685,-43.395 -4.64,-42.555C-4.593,-41.686 -4.534,-40.817 -4.48,-39.948C-4.445,-39.395 -4.382,-38.843 -4.382,-38.29C-4.383,-37.104 -4.352,-35.923 -4.188,-34.742C-4.051,-33.747 -4.035,-32.743 -3.957,-31.744C-3.941,-31.549 -3.88,-31.356 -3.854,-31.161C-3.808,-30.796 -3.688,-30.42 -3.757,-30.07C-3.816,-29.776 -3.801,-29.521 -3.669,-29.265C-3.285,-28.524 -2.889,-27.786 -2.489,-27.051C-2.022,-26.194 -1.242,-25.531 -0.323,-24.992C0.587,-24.459 1.536,-23.969 2.522,-23.519C3.929,-22.877 5.419,-22.549 7.012,-22.48C7.533,-22.458 8.064,-22.48 8.583,-22.534C9.429,-22.62 10.268,-22.749 11.109,-22.864C11.205,-22.877 11.298,-22.912 11.387,-22.945C11.98,-23.167 12.573,-23.392 13.166,-23.616C13.255,-23.649 13.349,-23.672 13.439,-23.704C14.379,-24.039 15.379,-24.29 16.111,-24.92C16.189,-24.987 16.274,-25.052 16.368,-25.104C17.031,-25.477 17.589,-25.938 18.078,-26.45C18.325,-26.708 18.628,-26.987 18.697,-27.288C18.794,-27.711 19.108,-27.956 19.447,-28.225C19.831,-28.529 20.196,-28.847 20.571,-29.158C20.877,-29.412 21.177,-29.671 21.495,-29.914C21.584,-29.982 21.722,-30.023 21.846,-30.043C22.196,-30.099 22.555,-30.124 22.903,-30.186C23.269,-30.252 23.636,-30.328 23.987,-30.433C24.876,-30.699 25.636,-31.153 26.358,-31.622C27.412,-32.306 28.513,-32.915 29.735,-33.384C30.165,-33.549 30.547,-33.764 31.024,-33.886C31.78,-34.08 32.473,-34.436 33.188,-34.731C33.786,-34.978 34.39,-35.219 34.967,-35.494C35.938,-35.959 36.902,-36.435 37.846,-36.934C38.667,-37.368 39.433,-37.872 40.268,-38.287C41.227,-38.764 42.067,-39.346 42.871,-39.967C43.402,-40.377 43.987,-40.695 44.707,-40.849C44.911,-40.893 45.109,-40.967 45.295,-41.048C45.88,-41.302 46.037,-41.287 46.444,-40.851C46.72,-40.556 47.054,-40.329 47.484,-40.214C47.657,-40.168 47.913,-40.144 48.044,-40.215C48.407,-40.409 48.731,-40.632 48.785,-41.042C48.864,-41.652 48.74,-42.219 48.453,-42.78C48.18,-43.312 47.935,-43.854 47.692,-44.396C47.345,-45.169 46.918,-45.919 46.293,-46.566C45.618,-47.265 45.215,-48.025 45.073,-48.895C44.871,-50.135 44.629,-51.37 44.426,-52.609C44.273,-53.536 44.158,-54.467 44.02,-55.395C43.893,-56.245 43.708,-57.093 43.636,-57.946C43.515,-59.392 43.445,-60.841 43.388,-62.29C43.357,-63.04 43.413,-63.793 43.404,-64.544C43.396,-65.215 43.314,-65.886 43.33,-66.556C43.378,-68.759 43.158,-70.952 42.96,-73.143C42.77,-75.249 42.713,-77.355 42.646,-79.463C42.613,-80.517 42.583,-81.572 42.38,-82.617C42.317,-82.942 42.277,-83.27 42.235,-83.597C42.062,-84.959 41.896,-86.322 41.717,-87.683C41.679,-87.97 41.576,-88.251 41.528,-88.538C41.347,-89.622 41.179,-90.707 40.999,-91.791C40.895,-92.421 40.953,-93.024 41.355,-93.592C41.514,-93.816 41.649,-94.057 41.743,-94.303C42.011,-95.008 42.258,-95.718 42.501,-96.429C42.558,-96.596 42.566,-96.774 42.597,-96.946C42.563,-96.959 42.529,-96.973 42.495,-96.986C42.22,-96.805 41.936,-96.631 41.67,-96.441C41.247,-96.136 41.227,-96.134 40.914,-96.508C40.899,-96.526 40.855,-96.527 40.804,-96.543C40.76,-96.527 40.693,-96.515 40.644,-96.485C39.82,-95.967 38.877,-95.592 38.049,-95.074C37.46,-94.704 36.769,-94.44 36.119,-94.134C34.916,-93.566 33.698,-93.019 32.512,-92.429C31.902,-92.125 31.348,-91.749 30.769,-91.405C30.624,-91.319 30.48,-91.232 30.335,-91.146C29.524,-90.66 28.589,-90.362 27.659,-90.074C26.774,-89.8 25.936,-89.424 24.971,-89.317C24.421,-89.256 23.892,-89.082 23.343,-89.016C22.384,-88.901 21.417,-88.825 20.452,-88.742C20.093,-88.71 19.729,-88.681 19.369,-88.687C18.345,-88.705 17.347,-88.792 16.384,-89.135C16.005,-89.27 15.851,-89.432 15.787,-89.716C15.772,-89.781 15.756,-89.846 15.748,-89.911C15.647,-90.761 15.355,-91.56 14.806,-92.298C14.546,-92.646 14.356,-93.031 13.882,-93.248C13.773,-93.298 13.681,-93.386 13.61,-93.472C13.177,-94.002 12.513,-94.365 12.043,-94.867C12.016,-94.896 11.963,-94.91 11.922,-94.931C11.492,-95.142 11.072,-95.369 10.628,-95.559C10.239,-95.726 9.837,-95.893 9.415,-95.985C8.773,-96.126 8.109,-96.202 7.454,-96.306C7.325,-96.326 7.191,-96.331 7.066,-96.362C6.461,-96.514 5.848,-96.57 5.218,-96.489C5.056,-96.469 4.889,-96.476 4.727,-96.454C4.098,-96.369 3.443,-96.338 2.848,-96.171C2.238,-95.999 1.657,-95.728 1.119,-95.435C0.471,-95.081 -0.25,-94.761 -0.585,-94.08C-0.652,-94.225 -0.719,-94.371 -0.786,-94.515C-0.85,-94.515 -0.91,-94.531 -0.943,-94.514C-1.494,-94.228 -2.074,-93.971 -2.578,-93.64C-2.924,-93.413 -3.205,-93.102 -3.438,-92.792C-3.639,-92.525 -3.737,-92.208 -3.872,-91.911C-4.168,-91.256 -4.249,-90.547 -4.648,-89.915C-4.709,-89.818 -4.689,-89.684 -4.69,-89.568C-4.697,-89.054 -4.708,-88.539 -4.698,-88.025C-4.686,-87.414 -4.655,-86.803 -4.628,-86.191C-4.612,-85.824 -4.56,-85.456 -4.575,-85.089C-4.603,-84.405 -4.668,-83.722 -4.717,-83.038C-4.801,-81.871 -4.897,-80.705 -4.961,-79.538C-4.991,-78.999 -4.951,-78.457 -4.955,-77.916C-4.96,-76.967 -4.915,-76.014 -4.999,-75.069C-5.152,-73.345 -5.213,-71.62 -5.218,-69.894C-5.219,-69.427 -5.109,-68.959 -5.051,-68.492L-4.931,-68.492C-4.913,-68.667 -4.891,-68.843 -4.877,-69.018C-4.838,-69.505 -4.802,-69.992 -4.767,-70.478C-4.697,-71.451 -4.617,-72.424 -4.566,-73.397C-4.542,-73.857 -4.569,-74.32 -4.584,-74.781C-4.619,-75.915 -4.646,-77.049 -4.705,-78.181C-4.75,-79.037 -4.721,-79.889 -4.648,-80.743C-4.589,-81.44 -4.588,-82.14 -4.52,-82.836C-4.376,-84.293 -4.088,-85.741 -4.069,-87.206C-4.068,-87.281 -4.019,-87.356 -3.982,-87.428C-3.839,-87.708 -3.704,-87.992 -3.542,-88.265C-3.437,-88.441 -3.333,-88.645 -3.151,-88.758C-2.796,-88.979 -2.541,-89.379 -1.951,-89.266C-1.88,-89.253 -1.774,-89.326 -1.696,-89.372C-1.3,-89.605 -0.878,-89.818 -0.523,-90.087C-0.098,-90.409 0.483,-90.44 0.949,-90.673C1.411,-90.545 1.786,-90.768 2.146,-90.913C2.618,-91.104 3.1,-91.18 3.612,-91.217C4.101,-91.252 4.6,-91.272 5.072,-91.368C5.449,-91.444 5.817,-91.451 6.194,-91.45C6.473,-91.449 6.754,-91.451 7.031,-91.426C7.548,-91.38 8.064,-91.328 8.576,-91.256C8.992,-91.196 9.401,-91.104 9.813,-91.022C10.258,-90.934 10.712,-90.866 11.078,-90.611C11.483,-90.326 11.9,-90.052 12.317,-89.778C12.493,-89.662 12.692,-89.567 12.864,-89.447C12.996,-89.355 13.146,-89.255 13.211,-89.132C13.382,-88.803 13.634,-88.549 14.031,-88.38C14.136,-88.335 14.248,-88.242 14.278,-88.154C14.47,-87.599 14.688,-87.046 14.804,-86.48C14.947,-85.778 15.1,-85.079 15.267,-84.381C15.615,-82.931 15.769,-81.459 15.814,-79.981C15.824,-79.655 15.851,-79.32 15.951,-79.005C16.101,-78.537 16.087,-78.065 16.117,-77.593C16.125,-77.462 16.121,-77.33 16.135,-77.199C16.186,-76.728 16.246,-76.257 16.294,-75.786C16.342,-75.314 16.337,-74.835 16.431,-74.369C16.653,-73.265 16.937,-72.169 17.164,-71.066C17.393,-69.95 17.599,-68.83 17.79,-67.709C17.953,-66.743 18.058,-65.774 18.084,-64.797C18.123,-63.347 18.137,-61.899 18.062,-60.449C17.984,-58.949 17.924,-57.447 17.923,-55.946C17.923,-54.509 18.01,-53.073 18.057,-51.636C18.073,-51.116 18.061,-50.594 18.102,-50.075C18.182,-49.062 18.3,-48.052 18.384,-47.04C18.46,-46.119 18.508,-45.198 18.578,-44.277C18.595,-44.041 18.662,-43.807 18.676,-43.572C18.724,-42.756 18.763,-41.939 18.797,-41.122C18.831,-40.305 18.857,-39.488 18.881,-38.671C18.904,-37.854 18.906,-37.037 18.942,-36.221C18.971,-35.563 19.061,-34.907 19.082,-34.249C19.119,-33.08 18.824,-31.942 18.514,-30.808C18.393,-30.368 18.38,-29.883 17.833,-29.591C17.798,-29.572 17.794,-29.518 17.766,-29.487C17.282,-28.947 16.751,-28.467 15.923,-28.231C15.395,-28.081 14.867,-27.953 14.317,-27.867C13.496,-27.736 12.682,-27.577 11.862,-27.445C11.187,-27.335 10.496,-27.279 9.832,-27.139C9.054,-26.976 8.291,-26.764 7.533,-26.546C6.9,-26.364 6.291,-26.127 5.658,-25.946C5.323,-25.85 4.961,-25.793 4.606,-25.764C3.489,-25.675 2.424,-25.946 1.345,-26.106C1.091,-26.143 0.851,-26.242 0.607,-26.32C0.093,-26.486 -0.275,-26.806 -0.689,-27.085C-1.533,-27.653 -1.88,-28.427 -2.167,-29.226C-2.305,-29.609 -2.267,-29.618 -1.793,-29.842C-1.813,-29.962 -1.832,-30.092 -1.856,-30.221C-1.957,-30.741 -2.085,-31.258 -2.154,-31.781C-2.267,-32.633 -2.344,-33.487 -2.431,-34.341C-2.517,-35.189 -2.595,-36.037 -2.682,-36.885C-2.733,-37.384 -2.806,-37.881 -2.848,-38.379C-2.94,-39.471 -3.022,-40.563 -3.101,-41.655C-3.176,-42.692 -3.225,-43.731 -3.316,-44.768C-3.441,-46.187 -3.588,-47.606 -3.738,-49.024C-3.808,-49.691 -3.912,-50.357 -3.991,-51.024C-4.061,-51.614 -4.109,-52.205 -4.183,-52.795C-4.259,-53.41 -4.365,-54.022 -4.436,-54.638C-4.529,-55.437 -4.597,-56.239 -4.685,-57.039C-4.713,-57.296 -4.774,-57.551 -4.82,-57.806M35.998,15.55C35.918,15.533 35.84,15.506 35.76,15.501C35.024,15.454 34.288,15.41 33.553,15.326L35.29,15.326C35.38,14.721 35.286,14.147 35.241,13.572C35.005,13.438 35.139,13.246 35.118,13.077C35.092,12.867 35.042,12.659 35.022,12.449C35.004,12.252 35.006,12.053 35.009,11.856C35.038,10.115 35.077,8.375 35.097,6.635C35.11,5.516 35.133,4.396 35.085,3.279C35.041,2.255 35.02,1.224 34.751,0.214C34.718,0.086 34.726,-0.049 34.719,-0.181C34.711,-0.299 34.754,-0.434 34.697,-0.534C34.501,-0.879 34.649,-1.243 34.577,-1.595C34.5,-1.971 34.479,-2.354 34.447,-2.735C34.417,-3.103 34.404,-3.472 34.382,-3.841C34.36,-4.21 34.34,-4.578 34.311,-4.947C34.253,-5.657 34.175,-6.366 34.133,-7.076C34.077,-8.05 34.029,-9.025 34.009,-10C33.974,-11.701 33.917,-13.402 33.955,-15.102C33.989,-16.629 34.14,-18.155 34.239,-19.681C34.304,-20.694 34.393,-21.707 34.427,-22.721C34.475,-24.13 34.531,-25.542 34.486,-26.951C34.46,-27.762 34.517,-28.584 34.257,-29.389C34.147,-29.727 34.187,-30.095 34.143,-30.449C34.012,-31.483 33.88,-32.518 33.731,-33.552C33.702,-33.753 33.59,-33.946 33.512,-34.155C32.835,-34.064 32.277,-33.897 31.737,-33.634C31.267,-33.406 31.035,-33.187 31.116,-32.709C31.18,-32.33 31.017,-31.928 30.972,-31.535C30.919,-31.064 30.871,-30.593 30.843,-30.121C30.781,-29.057 30.792,-27.987 30.659,-26.928C30.549,-26.057 30.594,-25.191 30.588,-24.324C30.584,-23.721 30.702,-23.119 30.734,-22.516C30.783,-21.608 30.8,-20.7 30.839,-19.792C30.854,-19.452 30.894,-19.112 30.923,-18.772C30.924,-18.759 30.931,-18.745 30.929,-18.732C30.84,-18.219 31,-17.716 31.029,-17.207C31.066,-16.551 31.114,-15.895 31.13,-15.24C31.174,-13.465 31.208,-11.691 31.236,-9.916C31.254,-8.796 31.216,-7.675 31.278,-6.556C31.321,-5.797 31.508,-5.043 31.602,-4.284C31.669,-3.735 31.685,-3.181 31.734,-2.63C31.794,-1.951 31.872,-1.272 31.929,-0.592C31.967,-0.145 32.009,0.303 32.002,0.75C31.986,1.883 31.972,3.018 31.903,4.15C31.832,5.306 31.684,6.46 31.592,7.615C31.471,9.141 31.339,10.666 31.273,12.193C31.235,13.06 31.313,13.929 31.353,14.797C31.36,14.973 31.428,15.147 31.472,15.341L31.022,15.341C30.769,14.706 30.676,14.073 30.848,13.422C30.861,13.372 30.878,13.313 30.859,13.267C30.58,12.557 30.712,11.829 30.754,11.113C30.81,10.184 30.975,9.259 31.081,8.332C31.18,7.466 31.3,6.601 31.346,5.733C31.442,3.942 31.516,2.15 31.556,0.358C31.571,-0.284 31.467,-0.928 31.409,-1.571C31.338,-2.359 31.271,-3.147 31.179,-3.933C31.129,-4.366 31.055,-4.799 30.955,-5.225C30.731,-6.174 30.709,-7.125 30.803,-8.086C30.847,-8.539 30.77,-9 30.765,-9.458C30.754,-10.539 30.727,-11.62 30.756,-12.701C30.805,-14.57 30.643,-16.431 30.498,-18.294C30.435,-19.11 30.403,-19.928 30.362,-20.744C30.318,-21.638 30.287,-22.532 30.234,-23.425C30.148,-24.889 30.208,-26.351 30.312,-27.813C30.425,-29.406 30.487,-30.999 30.372,-32.594C30.363,-32.706 30.315,-32.816 30.286,-32.927C29.875,-32.86 28.794,-32.458 28.518,-32.29C28.271,-32.139 28.012,-32.001 27.761,-31.855C27.324,-31.598 26.871,-31.357 26.456,-31.079C25.615,-30.518 24.671,-30.099 23.675,-29.752C23.501,-29.691 23.292,-29.696 23.042,-29.663C23.016,-29.504 22.972,-29.326 22.961,-29.147C22.92,-28.424 22.892,-27.701 22.853,-26.978C22.804,-26.083 22.707,-25.188 22.707,-24.293C22.706,-22.226 22.724,-20.158 22.79,-18.091C22.822,-17.095 22.989,-16.102 23.08,-15.107C23.109,-14.779 23.089,-14.449 23.094,-14.12C23.109,-13.026 23.13,-11.931 23.141,-10.837C23.148,-10.075 23.114,-9.312 23.148,-8.551C23.18,-7.842 23.276,-7.135 23.344,-6.427C23.364,-6.219 23.384,-6.012 23.402,-5.804C23.458,-5.175 23.538,-4.546 23.563,-3.917C23.608,-2.798 23.638,-1.679 23.641,-0.559C23.644,0.799 23.608,2.157 23.596,3.515C23.591,4.122 23.597,4.728 23.605,5.335C23.623,6.689 23.625,8.044 23.67,9.398C23.714,10.715 23.813,12.03 23.87,13.346C23.895,13.923 23.875,14.501 23.875,15.102L23.438,15.102C23.42,14.522 23.41,13.972 23.386,13.422C23.352,12.646 23.309,11.871 23.271,11.096C23.241,10.49 23.209,9.885 23.184,9.279C23.146,8.344 23.088,7.409 23.085,6.474C23.083,5.264 23.135,4.053 23.149,2.843C23.164,1.644 23.179,0.444 23.162,-0.754C23.145,-1.952 23.103,-3.151 23.047,-4.348C22.998,-5.428 22.96,-6.51 22.834,-7.584C22.712,-8.621 22.755,-9.658 22.724,-10.695C22.69,-11.775 22.715,-12.857 22.651,-13.936C22.572,-15.276 22.414,-16.613 22.316,-17.951C22.267,-18.636 22.277,-19.322 22.261,-20.008C22.23,-21.325 22.157,-22.642 22.183,-23.958C22.206,-25.116 22.345,-26.272 22.423,-27.429C22.457,-27.929 22.476,-28.43 22.483,-28.931C22.485,-29.096 22.432,-29.262 22.402,-29.439C22.026,-29.451 21.73,-29.436 21.466,-29.22C20.73,-28.618 19.96,-28.044 19.229,-27.44C19.083,-27.319 18.996,-27.118 18.97,-26.946C18.915,-26.59 18.761,-26.276 18.451,-26.028C17.846,-25.545 17.2,-25.095 16.607,-24.603C16.115,-24.195 15.508,-23.944 14.897,-23.691C13.877,-23.269 12.826,-22.903 11.747,-22.588C11.349,-22.472 10.969,-22.318 10.571,-22.202C10.39,-22.149 10.188,-22.135 9.993,-22.122C9.407,-22.085 8.821,-22.044 8.234,-22.028C7.544,-22.01 6.853,-22.016 6.162,-22.013C5.323,-22.008 4.571,-22.255 3.813,-22.509C3.175,-22.723 2.58,-23.006 1.954,-23.224C1.547,-23.365 1.217,-23.568 0.855,-23.744C-0.259,-24.285 -1.317,-24.888 -2.111,-25.731C-2.426,-26.065 -2.715,-26.423 -2.945,-26.798C-3.227,-27.258 -3.424,-27.75 -3.68,-28.221C-3.849,-28.533 -4.065,-28.828 -4.245,-29.137C-4.304,-29.239 -4.338,-29.358 -4.346,-29.471C-4.355,-29.6 -4.285,-29.738 -4.316,-29.862C-4.522,-30.678 -4.375,-31.507 -4.47,-32.326C-4.577,-33.244 -4.633,-34.166 -4.726,-35.085C-4.771,-35.53 -4.871,-35.972 -4.901,-36.417C-4.923,-36.756 -4.849,-37.098 -4.861,-37.438C-4.915,-38.927 -4.975,-40.415 -5.051,-41.903C-5.081,-42.468 -5.187,-43.03 -5.21,-43.594C-5.246,-44.436 -5.189,-45.282 -5.261,-46.121C-5.374,-47.428 -5.259,-48.73 -5.269,-50.034C-5.286,-52.034 -5.348,-54.034 -5.391,-56.033C-5.401,-56.521 -5.416,-57.009 -5.419,-57.497C-5.427,-58.852 -5.43,-60.208 -5.436,-61.564C-5.44,-62.619 -5.436,-63.674 -5.454,-64.729C-5.474,-65.887 -5.512,-67.045 -5.551,-68.203C-5.562,-68.532 -5.616,-68.86 -5.623,-69.189C-5.645,-70.229 -5.686,-71.269 -5.659,-72.308C-5.633,-73.306 -5.523,-74.303 -5.468,-75.301C-5.438,-75.841 -5.437,-76.382 -5.443,-76.922C-5.453,-77.91 -5.521,-78.9 -5.483,-79.887C-5.444,-80.899 -5.303,-81.909 -5.214,-82.921C-5.098,-84.249 -5.024,-85.577 -5.133,-86.91C-5.209,-87.826 -5.22,-88.745 -5.232,-89.663C-5.235,-89.88 -5.147,-90.103 -5.065,-90.314C-4.948,-90.614 -4.784,-90.902 -4.663,-91.201C-4.444,-91.74 -4.26,-92.287 -4.029,-92.821C-3.808,-93.333 -3.343,-93.713 -2.87,-94.083C-2.446,-94.413 -2.063,-94.757 -1.428,-94.889C-0.853,-95.009 -0.322,-95.272 0.224,-95.478C0.341,-95.523 0.464,-95.578 0.549,-95.654C1.074,-96.118 1.812,-96.287 2.471,-96.569C3.16,-96.863 3.914,-96.911 4.66,-97C4.855,-97.024 5.055,-97.025 5.249,-97.052C5.948,-97.151 6.618,-97.004 7.292,-96.901C7.865,-96.814 8.463,-96.823 8.999,-96.592C9.125,-96.538 9.284,-96.523 9.43,-96.513C10.04,-96.467 10.55,-96.236 11.047,-95.975C11.336,-95.824 11.634,-95.684 11.926,-95.538C12.159,-95.421 12.368,-95.428 12.615,-95.544C13.551,-95.983 14.501,-96.403 15.445,-96.832C16.707,-97.405 17.958,-97.993 19.231,-98.547C20.039,-98.898 20.843,-99.253 21.701,-99.53C22.291,-99.721 22.833,-100.003 23.397,-100.243C23.469,-100.272 23.545,-100.303 23.624,-100.311C24.348,-100.387 24.931,-100.724 25.553,-100.984C25.813,-101.093 25.916,-101.315 25.997,-101.535C26.029,-101.62 26.049,-101.724 26.122,-101.78C26.738,-102.257 27.069,-102.876 27.469,-103.463C27.751,-103.879 28.031,-104.297 28.354,-104.692C28.643,-105.043 29.067,-105.189 29.62,-105.179C31.033,-105.152 32.444,-105.115 33.829,-104.888C34.598,-104.762 35.34,-104.535 36.101,-104.377C37.015,-104.187 37.836,-103.826 38.696,-103.535C39.265,-103.342 39.735,-103.041 40.194,-102.725C40.703,-102.375 41.222,-102.034 41.7,-101.658C42.395,-101.111 42.906,-100.471 43.047,-99.676C43.106,-99.344 43.067,-98.988 43.445,-98.735C43.505,-98.695 43.485,-98.561 43.475,-98.473C43.451,-98.276 43.417,-98.08 43.373,-97.886C43.236,-97.29 43.113,-96.692 42.945,-96.101C42.804,-95.602 42.606,-95.113 42.437,-94.618C42.265,-94.116 42.095,-93.618 41.756,-93.16C41.401,-92.681 41.486,-92.137 41.561,-91.612C41.673,-90.827 41.796,-90.044 41.938,-89.263C42.076,-88.507 42.254,-87.757 42.395,-87.002C42.467,-86.614 42.498,-86.22 42.544,-85.828C42.612,-85.252 42.673,-84.674 42.745,-84.097C42.792,-83.718 42.871,-83.341 42.907,-82.961C42.994,-82.029 43.039,-81.094 43.152,-80.164C43.228,-79.538 43.164,-78.915 43.186,-78.292C43.209,-77.659 43.203,-77.025 43.25,-76.393C43.351,-75.054 43.496,-73.716 43.589,-72.375C43.685,-71.008 43.746,-69.639 43.81,-68.271C43.842,-67.573 43.815,-66.872 43.875,-66.176C43.97,-65.086 43.862,-63.997 43.898,-62.908C43.938,-61.683 44.042,-60.46 44.085,-59.235C44.134,-57.812 44.457,-56.413 44.608,-54.999C44.712,-54.031 44.946,-53.071 45.118,-52.107C45.153,-51.913 45.168,-51.717 45.2,-51.522C45.339,-50.658 45.48,-49.794 45.623,-48.93C45.72,-48.343 46.019,-47.823 46.437,-47.338C47.226,-46.423 47.881,-45.453 48.315,-44.392C48.412,-44.158 48.608,-43.95 48.713,-43.718C48.903,-43.298 49.063,-42.87 49.227,-42.444C49.487,-41.768 49.455,-41.091 49.201,-40.419C49.096,-40.14 48.975,-39.858 48.517,-39.831C48.458,-39.827 48.396,-39.786 48.348,-39.752C48.079,-39.555 47.769,-39.576 47.466,-39.664C46.953,-39.814 46.466,-39.998 46.139,-40.379C45.992,-40.552 45.71,-40.608 45.494,-40.535C45.178,-40.43 44.867,-40.315 44.553,-40.207C43.88,-39.974 43.331,-39.599 42.786,-39.221C42.29,-38.877 41.822,-38.503 41.301,-38.185C40.651,-37.788 39.968,-37.426 39.286,-37.064C38.168,-36.472 37.044,-35.885 35.913,-35.309C35.485,-35.091 35.034,-34.899 34.583,-34.712C34.132,-34.524 34.036,-34.436 34.139,-34.069C34.348,-33.319 34.418,-32.559 34.479,-31.796C34.538,-31.035 34.599,-30.269 34.751,-29.517C35.04,-28.104 34.986,-26.683 34.969,-25.264C34.956,-24.253 34.877,-23.241 34.808,-22.23C34.71,-20.796 34.56,-19.364 34.495,-17.93C34.415,-16.166 34.391,-14.4 34.359,-12.635C34.342,-11.713 34.295,-10.787 34.388,-9.871C34.451,-9.248 34.339,-8.614 34.558,-8.002C34.416,-6.894 34.669,-5.799 34.716,-4.697C34.756,-3.723 34.838,-2.751 34.923,-1.779C34.948,-1.494 35.05,-1.215 35.112,-0.932C35.124,-0.882 35.121,-0.828 35.115,-0.776C35.054,-0.234 35.195,0.293 35.274,0.827C35.385,1.571 35.474,2.322 35.492,3.071C35.528,4.574 35.523,6.077 35.51,7.58C35.499,8.858 35.433,10.135 35.431,11.413C35.43,12.004 35.54,12.593 35.568,13.185C35.59,13.63 35.591,14.079 35.544,14.522C35.503,14.915 35.486,15.058 35.652,15.322C35.841,15.34 36.033,15.36 36.233,15.379C36.217,15.451 36.206,15.501 36.195,15.55L35.998,15.55Z" style="fill:rgb(29,29,27);fill-rule:nonzero;"/>
                    </g>
                    <g transform="matrix(1,0,0,1,235.468,228.694)">
                        <path d="M0,-89.639C0.242,-89.639 0.428,-89.625 0.607,-89.647C0.669,-89.655 0.714,-89.752 0.767,-89.809C0.695,-89.849 0.623,-89.924 0.553,-89.922C0.34,-89.917 0.158,-89.846 0,-89.639ZM1.245,-89.826C1.403,-89.835 1.499,-89.844 1.594,-89.846C2.231,-89.857 2.854,-89.868 3.5,-89.773C4.333,-89.649 5.203,-89.67 6.057,-89.666C6.665,-89.663 7.228,-89.569 7.762,-89.34C7.873,-89.293 8.008,-89.254 8.129,-89.258C8.451,-89.269 8.772,-89.304 9.094,-89.331C9.795,-89.392 10.496,-89.452 11.197,-89.516C11.289,-89.525 11.378,-89.552 11.471,-89.572C11.466,-89.632 11.472,-89.672 11.457,-89.707C11.442,-89.743 11.416,-89.784 11.379,-89.805C10.877,-90.103 10.376,-90.405 9.739,-90.495C9.109,-90.585 8.459,-90.622 7.854,-90.773C7.07,-90.967 6.28,-90.969 5.482,-90.982C5.372,-90.983 5.261,-90.942 5.149,-90.923C4.813,-90.867 4.479,-90.774 4.141,-90.764C3.251,-90.74 2.451,-90.454 1.619,-90.26C1.499,-90.232 1.376,-90.163 1.296,-90.085C1.243,-90.033 1.262,-89.932 1.245,-89.826ZM-0.508,-28.775C-0.501,-28.728 -0.492,-28.708 -0.499,-28.702C-0.589,-28.629 -0.683,-28.559 -0.774,-28.487C-1.022,-28.288 -1.078,-28.136 -0.909,-27.972C-0.427,-27.504 0.092,-27.071 0.81,-26.823C1.688,-26.519 2.605,-26.333 3.55,-26.237C4.175,-26.173 4.802,-26.168 5.4,-26.361C5.658,-26.444 5.892,-26.576 6.151,-26.655C6.992,-26.912 7.839,-27.159 8.687,-27.402C9.286,-27.574 9.878,-27.77 10.535,-27.752C10.631,-27.749 10.728,-27.781 10.825,-27.795C11.678,-27.924 12.535,-28.039 13.384,-28.184C14.39,-28.356 15.396,-28.518 16.306,-28.957C16.626,-29.112 16.73,-29.276 16.784,-29.517C16.228,-29.681 15.699,-29.845 15.163,-29.991C15.011,-30.032 14.837,-30.032 14.673,-30.032C14.262,-30.032 13.851,-30.015 13.44,-30.017C12.189,-30.026 10.938,-30.046 9.687,-30.049C9.394,-30.049 9.101,-29.995 8.807,-29.974C8.549,-29.955 8.291,-29.939 8.032,-29.936C7.49,-29.929 6.949,-29.931 6.407,-29.929C5.783,-29.926 5.139,-29.841 4.541,-29.939C3.775,-30.065 3.028,-30.133 2.25,-30.083C1.548,-30.039 0.842,-30.038 0.138,-30.04C-0.221,-30.042 -0.489,-29.929 -0.619,-29.684C-0.762,-29.412 -0.833,-29.116 -0.928,-28.829C-0.937,-28.802 -0.889,-28.762 -0.875,-28.741C-0.743,-28.753 -0.625,-28.764 -0.508,-28.775ZM41.316,-96.892C41.566,-97.056 41.743,-97.154 41.89,-97.274C42.381,-97.674 42.724,-98.126 42.601,-98.721C42.52,-99.11 42.449,-99.501 42.347,-99.886C42.24,-100.295 42,-100.648 41.602,-100.932C41.357,-101.106 41.145,-101.309 40.921,-101.501C40.833,-101.577 40.761,-101.664 40.667,-101.733C40.388,-101.934 40.11,-102.137 39.817,-102.325C39.211,-102.714 38.657,-103.178 37.83,-103.271C37.766,-103.278 37.701,-103.294 37.643,-103.316C36.62,-103.713 35.559,-104.02 34.444,-104.204C33.849,-104.302 33.263,-104.456 32.663,-104.507C31.667,-104.592 30.664,-104.614 29.663,-104.662C29.269,-104.681 28.943,-104.553 28.719,-104.31C28.497,-104.068 28.326,-103.795 28.141,-103.533C27.858,-103.132 27.587,-102.726 27.301,-102.327C27.167,-102.14 27.011,-101.964 26.841,-101.754C27.012,-101.684 27.134,-101.624 27.266,-101.583C27.542,-101.498 27.61,-101.389 27.429,-101.221C27.296,-101.097 27.111,-101.007 26.935,-100.921C26.768,-100.84 26.581,-100.786 26.404,-100.718C25.581,-100.396 24.791,-100.022 23.923,-99.768C23.263,-99.576 22.632,-99.32 21.985,-99.097C21.26,-98.847 20.549,-98.579 19.876,-98.241C19.183,-97.892 18.453,-97.591 17.737,-97.27C17.223,-97.039 16.708,-96.808 16.19,-96.582C16.005,-96.502 15.802,-96.447 15.617,-96.366C14.899,-96.05 14.18,-95.736 13.473,-95.405C13.227,-95.289 12.909,-95.237 12.759,-94.955C13.14,-94.703 13.419,-94.352 13.909,-94.181C14.018,-94.144 14.112,-94.052 14.178,-93.967C14.596,-93.431 15.034,-92.903 15.406,-92.347C15.733,-91.858 16.167,-91.397 16.202,-90.808C16.216,-90.565 16.295,-90.345 16.54,-90.174C16.602,-90.131 16.643,-90.039 16.642,-89.97C16.641,-89.687 16.892,-89.579 17.155,-89.5C17.963,-89.258 18.795,-89.12 19.665,-89.212C20.185,-89.266 20.702,-89.351 21.224,-89.382C22.57,-89.46 23.892,-89.638 25.189,-89.933C25.584,-90.023 25.984,-90.103 26.365,-90.221C26.871,-90.376 27.358,-90.569 27.857,-90.739C28.717,-91.032 29.593,-91.301 30.332,-91.774C30.533,-91.903 30.661,-92.15 30.877,-92.206C31.22,-92.295 31.458,-92.481 31.732,-92.63C32.772,-93.2 33.906,-93.648 34.916,-94.258C35.382,-94.538 35.95,-94.709 36.464,-94.94C36.85,-95.114 37.23,-95.297 37.602,-95.489C37.888,-95.636 38.154,-95.808 38.435,-95.962C39.004,-96.275 39.589,-96.57 40.143,-96.899C40.344,-97.018 40.47,-97.216 40.639,-97.371C40.717,-97.442 40.809,-97.539 40.908,-97.551C41.1,-97.574 41.2,-97.455 41.234,-97.312C41.261,-97.2 41.279,-97.086 41.316,-96.892ZM-1.972,-88.612C-2.398,-88.868 -2.524,-88.858 -2.847,-88.559C-2.9,-88.51 -2.946,-88.453 -2.987,-88.397C-3.279,-87.994 -3.492,-87.566 -3.55,-87.102C-3.667,-86.176 -3.774,-85.249 -3.866,-84.321C-4.009,-82.877 -4.161,-81.434 -4.26,-79.988C-4.314,-79.2 -4.292,-78.407 -4.264,-77.617C-4.221,-76.394 -4.112,-75.172 -4.091,-73.949C-4.077,-73.071 -4.161,-72.191 -4.202,-71.312C-4.205,-71.26 -4.225,-71.208 -4.229,-71.156C-4.273,-70.529 -4.375,-69.907 -4.397,-69.276C-4.437,-68.13 -4.546,-66.986 -4.622,-65.84C-4.67,-65.117 -4.752,-64.392 -4.742,-63.669C-4.729,-62.748 -4.654,-61.827 -4.578,-60.907C-4.489,-59.843 -4.379,-58.78 -4.264,-57.717C-4.114,-56.326 -3.956,-54.934 -3.79,-53.544C-3.638,-52.272 -3.473,-51.001 -3.312,-49.73C-3.245,-49.193 -3.169,-48.657 -3.106,-48.119C-2.909,-46.43 -2.881,-44.733 -2.709,-43.042C-2.592,-41.886 -2.532,-40.727 -2.427,-39.57C-2.293,-38.089 -2.152,-36.608 -1.993,-35.129C-1.847,-33.777 -1.685,-32.427 -1.506,-31.077C-1.457,-30.707 -1.417,-30.324 -1.169,-29.925C-1.04,-30.041 -0.959,-30.136 -0.853,-30.205C-0.69,-30.311 -0.525,-30.448 -0.334,-30.488C0.076,-30.574 0.497,-30.634 0.932,-30.533C1.179,-30.476 1.447,-30.454 1.705,-30.458C2.263,-30.467 2.821,-30.526 3.378,-30.518C3.801,-30.513 4.239,-30.475 4.64,-30.376C5.039,-30.276 5.448,-30.251 5.806,-30.339C6.298,-30.46 6.78,-30.429 7.269,-30.439C7.792,-30.45 8.315,-30.448 8.837,-30.469C9.246,-30.486 9.652,-30.551 10.06,-30.556C10.651,-30.564 11.244,-30.524 11.835,-30.527C12.574,-30.532 13.306,-30.448 14.053,-30.521C14.528,-30.568 15.041,-30.485 15.516,-30.393C16.116,-30.277 16.695,-30.092 17.282,-29.936C17.331,-29.967 17.372,-29.989 17.406,-30.015C17.8,-30.314 17.903,-30.721 18.01,-31.117C18.131,-31.567 18.188,-32.028 18.301,-32.479C18.494,-33.261 18.527,-34.047 18.474,-34.839C18.421,-35.624 18.358,-36.41 18.339,-37.197C18.322,-37.922 18.396,-38.648 18.363,-39.372C18.284,-41.095 18.215,-42.819 18.026,-44.538C17.833,-46.297 17.698,-48.059 17.572,-49.821C17.495,-50.885 17.479,-51.952 17.447,-53.018C17.422,-53.848 17.415,-54.68 17.4,-55.51C17.384,-56.481 17.396,-57.452 17.438,-58.424C17.492,-59.662 17.568,-60.901 17.581,-62.139C17.591,-63.166 17.469,-64.194 17.507,-65.219C17.536,-65.98 17.364,-66.713 17.245,-67.455C17.119,-68.239 16.94,-69.018 16.832,-69.804C16.685,-70.884 16.408,-71.947 16.192,-73.017C16.043,-73.757 15.913,-74.499 15.82,-75.244C15.717,-76.069 15.669,-76.899 15.59,-77.726C15.509,-78.578 15.427,-79.431 15.331,-80.282C15.188,-81.54 15.139,-82.808 14.782,-84.048C14.671,-84.431 14.524,-84.815 14.483,-85.204C14.412,-85.893 14.233,-86.544 13.929,-87.197C13.625,-87.847 13.173,-88.384 12.584,-88.873C12.43,-89.001 12.279,-89.04 12.068,-89.047C10.861,-89.089 9.673,-88.932 8.484,-88.814C8.085,-88.774 7.74,-88.812 7.386,-88.928C7.295,-88.958 7.203,-88.986 7.109,-89.007C6.261,-89.191 5.39,-89.218 4.518,-89.242C3.996,-89.256 3.477,-89.243 2.95,-89.33C2.446,-89.413 1.889,-89.421 1.388,-89.337C0.938,-89.263 0.479,-89.149 0.039,-89.18C-0.678,-89.23 -1.243,-89.024 -1.789,-88.711C-1.841,-88.681 -1.895,-88.653 -1.972,-88.612ZM-4.82,-57.806C-4.861,-57.805 -4.903,-57.803 -4.944,-57.802C-4.944,-57.698 -4.947,-57.594 -4.943,-57.49C-4.896,-56.173 -4.84,-54.855 -4.802,-53.538C-4.774,-52.563 -4.753,-51.587 -4.76,-50.612C-4.768,-49.306 -4.815,-48.001 -4.826,-46.697C-4.83,-46.157 -4.781,-45.617 -4.756,-45.076C-4.718,-44.236 -4.685,-43.395 -4.64,-42.555C-4.593,-41.686 -4.534,-40.817 -4.48,-39.948C-4.445,-39.395 -4.382,-38.843 -4.382,-38.29C-4.383,-37.104 -4.352,-35.923 -4.188,-34.742C-4.051,-33.747 -4.035,-32.743 -3.957,-31.744C-3.941,-31.549 -3.88,-31.356 -3.854,-31.161C-3.808,-30.796 -3.688,-30.42 -3.757,-30.07C-3.816,-29.776 -3.801,-29.521 -3.669,-29.265C-3.285,-28.524 -2.889,-27.786 -2.489,-27.051C-2.022,-26.194 -1.242,-25.531 -0.323,-24.992C0.587,-24.459 1.536,-23.969 2.522,-23.519C3.929,-22.877 5.419,-22.549 7.012,-22.48C7.533,-22.458 8.064,-22.48 8.583,-22.534C9.429,-22.62 10.268,-22.749 11.109,-22.864C11.205,-22.877 11.298,-22.912 11.387,-22.945C11.98,-23.167 12.573,-23.392 13.166,-23.616C13.255,-23.649 13.349,-23.672 13.439,-23.704C14.379,-24.039 15.379,-24.29 16.111,-24.92C16.189,-24.987 16.274,-25.052 16.368,-25.104C17.031,-25.477 17.589,-25.938 18.078,-26.45C18.325,-26.708 18.628,-26.987 18.697,-27.288C18.794,-27.711 19.108,-27.956 19.447,-28.225C19.831,-28.529 20.196,-28.847 20.571,-29.158C20.877,-29.412 21.177,-29.671 21.495,-29.914C21.584,-29.982 21.722,-30.023 21.846,-30.043C22.196,-30.099 22.555,-30.124 22.903,-30.186C23.269,-30.252 23.636,-30.328 23.987,-30.433C24.876,-30.699 25.636,-31.153 26.358,-31.622C27.412,-32.306 28.513,-32.915 29.735,-33.384C30.165,-33.549 30.547,-33.764 31.024,-33.886C31.78,-34.08 32.473,-34.436 33.188,-34.731C33.786,-34.978 34.39,-35.219 34.967,-35.494C35.938,-35.959 36.902,-36.435 37.846,-36.934C38.667,-37.368 39.433,-37.872 40.268,-38.287C41.227,-38.764 42.067,-39.346 42.871,-39.967C43.402,-40.377 43.987,-40.695 44.707,-40.849C44.911,-40.893 45.109,-40.967 45.295,-41.048C45.88,-41.302 46.037,-41.287 46.444,-40.851C46.72,-40.556 47.054,-40.329 47.484,-40.214C47.657,-40.168 47.913,-40.144 48.044,-40.215C48.407,-40.409 48.731,-40.632 48.785,-41.042C48.864,-41.652 48.74,-42.219 48.453,-42.78C48.18,-43.312 47.935,-43.854 47.692,-44.396C47.345,-45.169 46.918,-45.919 46.293,-46.566C45.618,-47.265 45.215,-48.025 45.073,-48.895C44.871,-50.135 44.629,-51.37 44.426,-52.609C44.273,-53.536 44.158,-54.467 44.02,-55.395C43.893,-56.245 43.708,-57.093 43.636,-57.946C43.515,-59.392 43.445,-60.841 43.388,-62.29C43.357,-63.04 43.413,-63.793 43.404,-64.544C43.396,-65.215 43.314,-65.886 43.33,-66.556C43.378,-68.759 43.158,-70.952 42.96,-73.143C42.77,-75.249 42.713,-77.355 42.646,-79.463C42.613,-80.517 42.583,-81.572 42.38,-82.617C42.317,-82.942 42.277,-83.27 42.235,-83.597C42.062,-84.959 41.896,-86.322 41.717,-87.683C41.679,-87.97 41.576,-88.251 41.528,-88.538C41.347,-89.622 41.179,-90.707 40.999,-91.791C40.895,-92.421 40.953,-93.024 41.355,-93.592C41.514,-93.816 41.649,-94.057 41.743,-94.303C42.011,-95.008 42.258,-95.718 42.501,-96.429C42.558,-96.596 42.566,-96.774 42.597,-96.946C42.563,-96.959 42.529,-96.973 42.495,-96.986C42.22,-96.805 41.936,-96.631 41.67,-96.441C41.247,-96.136 41.227,-96.134 40.914,-96.508C40.899,-96.526 40.855,-96.527 40.804,-96.543C40.76,-96.527 40.693,-96.515 40.644,-96.485C39.82,-95.967 38.877,-95.592 38.049,-95.074C37.46,-94.704 36.769,-94.44 36.119,-94.134C34.916,-93.566 33.698,-93.019 32.512,-92.429C31.902,-92.125 31.348,-91.749 30.769,-91.405C30.624,-91.319 30.48,-91.232 30.335,-91.146C29.524,-90.66 28.589,-90.362 27.659,-90.074C26.774,-89.8 25.936,-89.424 24.971,-89.317C24.421,-89.256 23.892,-89.082 23.343,-89.016C22.384,-88.901 21.417,-88.825 20.452,-88.742C20.093,-88.71 19.729,-88.681 19.369,-88.687C18.345,-88.705 17.347,-88.792 16.384,-89.135C16.005,-89.27 15.851,-89.432 15.787,-89.716C15.772,-89.781 15.756,-89.846 15.748,-89.911C15.647,-90.761 15.355,-91.56 14.806,-92.298C14.546,-92.646 14.356,-93.031 13.882,-93.248C13.773,-93.298 13.681,-93.386 13.61,-93.472C13.177,-94.002 12.513,-94.365 12.043,-94.867C12.016,-94.896 11.963,-94.91 11.922,-94.931C11.492,-95.142 11.072,-95.369 10.628,-95.559C10.239,-95.726 9.837,-95.893 9.415,-95.985C8.773,-96.126 8.109,-96.202 7.454,-96.306C7.325,-96.326 7.191,-96.331 7.066,-96.362C6.461,-96.514 5.848,-96.57 5.218,-96.489C5.056,-96.469 4.889,-96.476 4.727,-96.454C4.098,-96.369 3.443,-96.338 2.848,-96.171C2.238,-95.999 1.657,-95.728 1.119,-95.435C0.471,-95.081 -0.25,-94.761 -0.585,-94.08C-0.652,-94.225 -0.719,-94.371 -0.786,-94.515C-0.85,-94.515 -0.91,-94.531 -0.943,-94.514C-1.494,-94.228 -2.074,-93.971 -2.578,-93.64C-2.924,-93.413 -3.205,-93.102 -3.438,-92.792C-3.639,-92.525 -3.737,-92.208 -3.872,-91.911C-4.168,-91.256 -4.249,-90.547 -4.648,-89.915C-4.709,-89.818 -4.689,-89.684 -4.69,-89.568C-4.697,-89.054 -4.708,-88.539 -4.698,-88.025C-4.686,-87.414 -4.655,-86.803 -4.628,-86.191C-4.612,-85.824 -4.56,-85.456 -4.575,-85.089C-4.603,-84.405 -4.668,-83.722 -4.717,-83.038C-4.801,-81.871 -4.897,-80.705 -4.961,-79.538C-4.991,-78.999 -4.951,-78.457 -4.955,-77.916C-4.96,-76.967 -4.915,-76.014 -4.999,-75.069C-5.152,-73.345 -5.213,-71.62 -5.218,-69.894C-5.219,-69.427 -5.109,-68.959 -5.051,-68.492L-4.931,-68.492C-4.913,-68.667 -4.891,-68.843 -4.877,-69.018C-4.838,-69.505 -4.802,-69.992 -4.767,-70.478C-4.697,-71.451 -4.617,-72.424 -4.566,-73.397C-4.542,-73.857 -4.569,-74.32 -4.584,-74.781C-4.619,-75.915 -4.646,-77.049 -4.705,-78.181C-4.75,-79.037 -4.721,-79.889 -4.648,-80.743C-4.589,-81.44 -4.588,-82.14 -4.52,-82.836C-4.376,-84.293 -4.088,-85.741 -4.069,-87.206C-4.068,-87.281 -4.019,-87.356 -3.982,-87.428C-3.839,-87.708 -3.704,-87.992 -3.542,-88.265C-3.437,-88.441 -3.333,-88.645 -3.151,-88.758C-2.796,-88.979 -2.541,-89.379 -1.951,-89.266C-1.88,-89.253 -1.774,-89.326 -1.696,-89.372C-1.3,-89.605 -0.878,-89.818 -0.523,-90.087C-0.098,-90.409 0.483,-90.44 0.949,-90.673C1.411,-90.545 1.786,-90.768 2.146,-90.913C2.618,-91.104 3.1,-91.18 3.612,-91.217C4.101,-91.252 4.6,-91.272 5.072,-91.368C5.449,-91.444 5.817,-91.451 6.194,-91.45C6.473,-91.449 6.754,-91.451 7.031,-91.426C7.548,-91.38 8.064,-91.328 8.576,-91.256C8.992,-91.196 9.401,-91.104 9.813,-91.022C10.258,-90.934 10.712,-90.866 11.078,-90.611C11.483,-90.326 11.9,-90.052 12.317,-89.778C12.493,-89.662 12.692,-89.567 12.864,-89.447C12.996,-89.355 13.146,-89.255 13.211,-89.132C13.382,-88.803 13.634,-88.549 14.031,-88.38C14.136,-88.335 14.248,-88.242 14.278,-88.154C14.47,-87.599 14.688,-87.046 14.804,-86.48C14.947,-85.778 15.1,-85.079 15.267,-84.381C15.615,-82.931 15.769,-81.459 15.814,-79.981C15.824,-79.655 15.851,-79.32 15.951,-79.005C16.101,-78.537 16.087,-78.065 16.117,-77.593C16.125,-77.462 16.121,-77.33 16.135,-77.199C16.186,-76.728 16.246,-76.257 16.294,-75.786C16.342,-75.314 16.337,-74.835 16.431,-74.369C16.653,-73.265 16.937,-72.169 17.164,-71.066C17.393,-69.95 17.599,-68.83 17.79,-67.709C17.953,-66.743 18.058,-65.774 18.084,-64.797C18.123,-63.347 18.137,-61.899 18.062,-60.449C17.984,-58.949 17.924,-57.447 17.923,-55.946C17.923,-54.509 18.01,-53.073 18.057,-51.636C18.073,-51.116 18.061,-50.594 18.102,-50.075C18.182,-49.062 18.3,-48.052 18.384,-47.04C18.46,-46.119 18.508,-45.198 18.578,-44.277C18.595,-44.041 18.662,-43.807 18.676,-43.572C18.724,-42.756 18.763,-41.939 18.797,-41.122C18.831,-40.305 18.857,-39.488 18.881,-38.671C18.904,-37.854 18.906,-37.037 18.942,-36.221C18.971,-35.563 19.061,-34.907 19.082,-34.249C19.119,-33.08 18.824,-31.942 18.514,-30.808C18.393,-30.368 18.38,-29.883 17.833,-29.591C17.798,-29.572 17.794,-29.518 17.766,-29.487C17.282,-28.947 16.751,-28.467 15.923,-28.231C15.395,-28.081 14.867,-27.953 14.317,-27.867C13.496,-27.736 12.682,-27.577 11.862,-27.445C11.187,-27.335 10.496,-27.279 9.832,-27.139C9.054,-26.976 8.291,-26.764 7.533,-26.546C6.9,-26.364 6.291,-26.127 5.658,-25.946C5.323,-25.85 4.961,-25.793 4.606,-25.764C3.489,-25.675 2.424,-25.946 1.345,-26.106C1.091,-26.143 0.851,-26.242 0.607,-26.32C0.093,-26.486 -0.275,-26.806 -0.689,-27.085C-1.533,-27.653 -1.88,-28.427 -2.167,-29.226C-2.305,-29.609 -2.267,-29.618 -1.793,-29.842C-1.813,-29.962 -1.832,-30.092 -1.856,-30.221C-1.957,-30.741 -2.085,-31.258 -2.154,-31.781C-2.267,-32.633 -2.344,-33.487 -2.431,-34.341C-2.517,-35.189 -2.595,-36.037 -2.682,-36.885C-2.733,-37.384 -2.806,-37.881 -2.848,-38.379C-2.94,-39.471 -3.022,-40.563 -3.101,-41.655C-3.176,-42.692 -3.225,-43.731 -3.316,-44.768C-3.441,-46.187 -3.588,-47.606 -3.738,-49.024C-3.808,-49.691 -3.912,-50.357 -3.991,-51.024C-4.061,-51.614 -4.109,-52.205 -4.183,-52.795C-4.259,-53.41 -4.365,-54.022 -4.436,-54.638C-4.529,-55.437 -4.597,-56.239 -4.685,-57.039C-4.713,-57.296 -4.774,-57.551 -4.82,-57.806ZM35.998,15.55C35.918,15.533 35.84,15.506 35.76,15.501C35.024,15.454 34.288,15.41 33.553,15.326L35.29,15.326C35.38,14.721 35.286,14.147 35.241,13.572C35.005,13.438 35.139,13.246 35.118,13.077C35.092,12.867 35.042,12.659 35.022,12.449C35.004,12.252 35.006,12.053 35.009,11.856C35.038,10.115 35.077,8.375 35.097,6.635C35.11,5.516 35.133,4.396 35.085,3.279C35.041,2.255 35.02,1.224 34.751,0.214C34.718,0.086 34.726,-0.049 34.719,-0.181C34.711,-0.299 34.754,-0.434 34.697,-0.534C34.501,-0.879 34.649,-1.243 34.577,-1.595C34.5,-1.971 34.479,-2.354 34.447,-2.735C34.417,-3.103 34.404,-3.472 34.382,-3.841C34.36,-4.21 34.34,-4.578 34.311,-4.947C34.253,-5.657 34.175,-6.366 34.133,-7.076C34.077,-8.05 34.029,-9.025 34.009,-10C33.974,-11.701 33.917,-13.402 33.955,-15.102C33.989,-16.629 34.14,-18.155 34.239,-19.681C34.304,-20.694 34.393,-21.707 34.427,-22.721C34.475,-24.13 34.531,-25.542 34.486,-26.951C34.46,-27.762 34.517,-28.584 34.257,-29.389C34.147,-29.727 34.187,-30.095 34.143,-30.449C34.012,-31.483 33.88,-32.518 33.731,-33.552C33.702,-33.753 33.59,-33.946 33.512,-34.155C32.835,-34.064 32.277,-33.897 31.737,-33.634C31.267,-33.406 31.035,-33.187 31.116,-32.709C31.18,-32.33 31.017,-31.928 30.972,-31.535C30.919,-31.064 30.871,-30.593 30.843,-30.121C30.781,-29.057 30.792,-27.987 30.659,-26.928C30.549,-26.057 30.594,-25.191 30.588,-24.324C30.584,-23.721 30.702,-23.119 30.734,-22.516C30.783,-21.608 30.8,-20.7 30.839,-19.792C30.854,-19.452 30.894,-19.112 30.923,-18.772C30.924,-18.759 30.931,-18.745 30.929,-18.732C30.84,-18.219 31,-17.716 31.029,-17.207C31.066,-16.551 31.114,-15.895 31.13,-15.24C31.174,-13.465 31.208,-11.691 31.236,-9.916C31.254,-8.796 31.216,-7.675 31.278,-6.556C31.321,-5.797 31.508,-5.043 31.602,-4.284C31.669,-3.735 31.685,-3.181 31.734,-2.63C31.794,-1.951 31.872,-1.272 31.929,-0.592C31.967,-0.145 32.009,0.303 32.002,0.75C31.986,1.883 31.972,3.018 31.903,4.15C31.832,5.306 31.684,6.46 31.592,7.615C31.471,9.141 31.339,10.666 31.273,12.193C31.235,13.06 31.313,13.929 31.353,14.797C31.36,14.973 31.428,15.147 31.472,15.341L31.022,15.341C30.769,14.706 30.676,14.073 30.848,13.422C30.861,13.372 30.878,13.313 30.859,13.267C30.58,12.557 30.712,11.829 30.754,11.113C30.81,10.184 30.975,9.259 31.081,8.332C31.18,7.466 31.3,6.601 31.346,5.733C31.442,3.942 31.516,2.15 31.556,0.358C31.571,-0.284 31.467,-0.928 31.409,-1.571C31.338,-2.359 31.271,-3.147 31.179,-3.933C31.129,-4.366 31.055,-4.799 30.955,-5.225C30.731,-6.174 30.709,-7.125 30.803,-8.086C30.847,-8.539 30.77,-9 30.765,-9.458C30.754,-10.539 30.727,-11.62 30.756,-12.701C30.805,-14.57 30.643,-16.431 30.498,-18.294C30.435,-19.11 30.403,-19.928 30.362,-20.744C30.318,-21.638 30.287,-22.532 30.234,-23.425C30.148,-24.889 30.208,-26.351 30.312,-27.813C30.425,-29.406 30.487,-30.999 30.372,-32.594C30.363,-32.706 30.315,-32.816 30.286,-32.927C29.875,-32.86 28.794,-32.458 28.518,-32.29C28.271,-32.139 28.012,-32.001 27.761,-31.855C27.324,-31.598 26.871,-31.357 26.456,-31.079C25.615,-30.518 24.671,-30.099 23.675,-29.752C23.501,-29.691 23.292,-29.696 23.042,-29.663C23.016,-29.504 22.972,-29.326 22.961,-29.147C22.92,-28.424 22.892,-27.701 22.853,-26.978C22.804,-26.083 22.707,-25.188 22.707,-24.293C22.706,-22.226 22.724,-20.158 22.79,-18.091C22.822,-17.095 22.989,-16.102 23.08,-15.107C23.109,-14.779 23.089,-14.449 23.094,-14.12C23.109,-13.026 23.13,-11.931 23.141,-10.837C23.148,-10.075 23.114,-9.312 23.148,-8.551C23.18,-7.842 23.276,-7.135 23.344,-6.427C23.364,-6.219 23.384,-6.012 23.402,-5.804C23.458,-5.175 23.538,-4.546 23.563,-3.917C23.608,-2.798 23.638,-1.679 23.641,-0.559C23.644,0.799 23.608,2.157 23.596,3.515C23.591,4.122 23.597,4.728 23.605,5.335C23.623,6.689 23.625,8.044 23.67,9.398C23.714,10.715 23.813,12.03 23.87,13.346C23.895,13.923 23.875,14.501 23.875,15.102L23.438,15.102C23.42,14.522 23.41,13.972 23.386,13.422C23.352,12.646 23.309,11.871 23.271,11.096C23.241,10.49 23.209,9.885 23.184,9.279C23.146,8.344 23.088,7.409 23.085,6.474C23.083,5.264 23.135,4.053 23.149,2.843C23.164,1.644 23.179,0.444 23.162,-0.754C23.145,-1.952 23.103,-3.151 23.047,-4.348C22.998,-5.428 22.96,-6.51 22.834,-7.584C22.712,-8.621 22.755,-9.658 22.724,-10.695C22.69,-11.775 22.715,-12.857 22.651,-13.936C22.572,-15.276 22.414,-16.613 22.316,-17.951C22.267,-18.636 22.277,-19.322 22.261,-20.008C22.23,-21.325 22.157,-22.642 22.183,-23.958C22.206,-25.116 22.345,-26.272 22.423,-27.429C22.457,-27.929 22.476,-28.43 22.483,-28.931C22.485,-29.096 22.432,-29.262 22.402,-29.439C22.026,-29.451 21.73,-29.436 21.466,-29.22C20.73,-28.618 19.96,-28.044 19.229,-27.44C19.083,-27.319 18.996,-27.118 18.97,-26.946C18.915,-26.59 18.761,-26.276 18.451,-26.028C17.846,-25.545 17.2,-25.095 16.607,-24.603C16.115,-24.195 15.508,-23.944 14.897,-23.691C13.877,-23.269 12.826,-22.903 11.747,-22.588C11.349,-22.472 10.969,-22.318 10.571,-22.202C10.39,-22.149 10.188,-22.135 9.993,-22.122C9.407,-22.085 8.821,-22.044 8.234,-22.028C7.544,-22.01 6.853,-22.016 6.162,-22.013C5.323,-22.008 4.571,-22.255 3.813,-22.509C3.175,-22.723 2.58,-23.006 1.954,-23.224C1.547,-23.365 1.217,-23.568 0.855,-23.744C-0.259,-24.285 -1.317,-24.888 -2.111,-25.731C-2.426,-26.065 -2.715,-26.423 -2.945,-26.798C-3.227,-27.258 -3.424,-27.75 -3.68,-28.221C-3.849,-28.533 -4.065,-28.828 -4.245,-29.137C-4.304,-29.239 -4.338,-29.358 -4.346,-29.471C-4.355,-29.6 -4.285,-29.738 -4.316,-29.862C-4.522,-30.678 -4.375,-31.507 -4.47,-32.326C-4.577,-33.244 -4.633,-34.166 -4.726,-35.085C-4.771,-35.53 -4.871,-35.972 -4.901,-36.417C-4.923,-36.756 -4.849,-37.098 -4.861,-37.438C-4.915,-38.927 -4.975,-40.415 -5.051,-41.903C-5.081,-42.468 -5.187,-43.03 -5.21,-43.594C-5.246,-44.436 -5.189,-45.282 -5.261,-46.121C-5.374,-47.428 -5.259,-48.73 -5.269,-50.034C-5.286,-52.034 -5.348,-54.034 -5.391,-56.033C-5.401,-56.521 -5.416,-57.009 -5.419,-57.497C-5.427,-58.852 -5.43,-60.208 -5.436,-61.564C-5.44,-62.619 -5.436,-63.674 -5.454,-64.729C-5.474,-65.887 -5.512,-67.045 -5.551,-68.203C-5.562,-68.532 -5.616,-68.86 -5.623,-69.189C-5.645,-70.229 -5.686,-71.269 -5.659,-72.308C-5.633,-73.306 -5.523,-74.303 -5.468,-75.301C-5.438,-75.841 -5.437,-76.382 -5.443,-76.922C-5.453,-77.91 -5.521,-78.9 -5.483,-79.887C-5.444,-80.899 -5.303,-81.909 -5.214,-82.921C-5.098,-84.249 -5.024,-85.577 -5.133,-86.91C-5.209,-87.826 -5.22,-88.745 -5.232,-89.663C-5.235,-89.88 -5.147,-90.103 -5.065,-90.314C-4.948,-90.614 -4.784,-90.902 -4.663,-91.201C-4.444,-91.74 -4.26,-92.287 -4.029,-92.821C-3.808,-93.333 -3.343,-93.713 -2.87,-94.083C-2.446,-94.413 -2.063,-94.757 -1.428,-94.889C-0.853,-95.009 -0.322,-95.272 0.224,-95.478C0.341,-95.523 0.464,-95.578 0.549,-95.654C1.074,-96.118 1.812,-96.287 2.471,-96.569C3.16,-96.863 3.914,-96.911 4.66,-97C4.855,-97.024 5.055,-97.025 5.249,-97.052C5.948,-97.151 6.618,-97.004 7.292,-96.901C7.865,-96.814 8.463,-96.823 8.999,-96.592C9.125,-96.538 9.284,-96.523 9.43,-96.513C10.04,-96.467 10.55,-96.236 11.047,-95.975C11.336,-95.824 11.634,-95.684 11.926,-95.538C12.159,-95.421 12.368,-95.428 12.615,-95.544C13.551,-95.983 14.501,-96.403 15.445,-96.832C16.707,-97.405 17.958,-97.993 19.231,-98.547C20.039,-98.898 20.843,-99.253 21.701,-99.53C22.291,-99.721 22.833,-100.003 23.397,-100.243C23.469,-100.272 23.545,-100.303 23.624,-100.311C24.348,-100.387 24.931,-100.724 25.553,-100.984C25.813,-101.093 25.916,-101.315 25.997,-101.535C26.029,-101.62 26.049,-101.724 26.122,-101.78C26.738,-102.257 27.069,-102.876 27.469,-103.463C27.751,-103.879 28.031,-104.297 28.354,-104.692C28.643,-105.043 29.067,-105.189 29.62,-105.179C31.033,-105.152 32.444,-105.115 33.829,-104.888C34.598,-104.762 35.34,-104.535 36.101,-104.377C37.015,-104.187 37.836,-103.826 38.696,-103.535C39.265,-103.342 39.735,-103.041 40.194,-102.725C40.703,-102.375 41.222,-102.034 41.7,-101.658C42.395,-101.111 42.906,-100.471 43.047,-99.676C43.106,-99.344 43.067,-98.988 43.445,-98.735C43.505,-98.695 43.485,-98.561 43.475,-98.473C43.451,-98.276 43.417,-98.08 43.373,-97.886C43.236,-97.29 43.113,-96.692 42.945,-96.101C42.804,-95.602 42.606,-95.113 42.437,-94.618C42.265,-94.116 42.095,-93.618 41.756,-93.16C41.401,-92.681 41.486,-92.137 41.561,-91.612C41.673,-90.827 41.796,-90.044 41.938,-89.263C42.076,-88.507 42.254,-87.757 42.395,-87.002C42.467,-86.614 42.498,-86.22 42.544,-85.828C42.612,-85.252 42.673,-84.674 42.745,-84.097C42.792,-83.718 42.871,-83.341 42.907,-82.961C42.994,-82.029 43.039,-81.094 43.152,-80.164C43.228,-79.538 43.164,-78.915 43.186,-78.292C43.209,-77.659 43.203,-77.025 43.25,-76.393C43.351,-75.054 43.496,-73.716 43.589,-72.375C43.685,-71.008 43.746,-69.639 43.81,-68.271C43.842,-67.573 43.815,-66.872 43.875,-66.176C43.97,-65.086 43.862,-63.997 43.898,-62.908C43.938,-61.683 44.042,-60.46 44.085,-59.235C44.134,-57.812 44.457,-56.413 44.608,-54.999C44.712,-54.031 44.946,-53.071 45.118,-52.107C45.153,-51.913 45.168,-51.717 45.2,-51.522C45.339,-50.658 45.48,-49.794 45.623,-48.93C45.72,-48.343 46.019,-47.823 46.437,-47.338C47.226,-46.423 47.881,-45.453 48.315,-44.392C48.412,-44.158 48.608,-43.95 48.713,-43.718C48.903,-43.298 49.063,-42.87 49.227,-42.444C49.487,-41.768 49.455,-41.091 49.201,-40.419C49.096,-40.14 48.975,-39.858 48.517,-39.831C48.458,-39.827 48.396,-39.786 48.348,-39.752C48.079,-39.555 47.769,-39.576 47.466,-39.664C46.953,-39.814 46.466,-39.998 46.139,-40.379C45.992,-40.552 45.71,-40.608 45.494,-40.535C45.178,-40.43 44.867,-40.315 44.553,-40.207C43.88,-39.974 43.331,-39.599 42.786,-39.221C42.29,-38.877 41.822,-38.503 41.301,-38.185C40.651,-37.788 39.968,-37.426 39.286,-37.064C38.168,-36.472 37.044,-35.885 35.913,-35.309C35.485,-35.091 35.034,-34.899 34.583,-34.712C34.132,-34.524 34.036,-34.436 34.139,-34.069C34.348,-33.319 34.418,-32.559 34.479,-31.796C34.538,-31.035 34.599,-30.269 34.751,-29.517C35.04,-28.104 34.986,-26.683 34.969,-25.264C34.956,-24.253 34.877,-23.241 34.808,-22.23C34.71,-20.796 34.56,-19.364 34.495,-17.93C34.415,-16.166 34.391,-14.4 34.359,-12.635C34.342,-11.713 34.295,-10.787 34.388,-9.871C34.451,-9.248 34.339,-8.614 34.558,-8.002C34.416,-6.894 34.669,-5.799 34.716,-4.697C34.756,-3.723 34.838,-2.751 34.923,-1.779C34.948,-1.494 35.05,-1.215 35.112,-0.932C35.124,-0.882 35.121,-0.828 35.115,-0.776C35.054,-0.234 35.195,0.293 35.274,0.827C35.385,1.571 35.474,2.322 35.492,3.071C35.528,4.574 35.523,6.077 35.51,7.58C35.499,8.858 35.433,10.135 35.431,11.413C35.43,12.004 35.54,12.593 35.568,13.185C35.59,13.63 35.591,14.079 35.544,14.522C35.503,14.915 35.486,15.058 35.652,15.322C35.841,15.34 36.033,15.36 36.233,15.379C36.217,15.451 36.206,15.501 36.195,15.55L35.998,15.55Z" style="fill:none;fill-rule:nonzero;stroke:rgb(29,29,27);stroke-width:0.18px;"/>
                    </g>
                    <g transform="matrix(-1,0,0,1,535.901,-107.181)">
                        <rect x="267.829" y="351.224" width="0.243" height="0.013" style="fill:rgb(29,29,27);stroke:rgb(29,29,27);stroke-width:0.18px;"/>
                    </g>
                    <g transform="matrix(1,0,0,1,267.851,163.382)">
                        <path d="M0,1.882C-0.243,1.931 -0.412,1.962 -0.579,2C-0.894,2.071 -1.203,2.189 -1.523,2.214C-2.264,2.271 -2.976,2.21 -3.452,1.655C-3.508,1.59 -3.569,1.527 -3.634,1.467C-4.381,0.787 -4.243,-0.601 -3.163,-1.201C-2.692,-1.464 -2.266,-1.778 -1.828,-2.076C-1.482,-2.312 -1.212,-2.598 -1.001,-2.923C-0.855,-3.15 -0.885,-3.364 -1.054,-3.558C-1.219,-3.748 -1.406,-3.931 -1.613,-4.093C-1.905,-4.323 -2.005,-4.309 -2.3,-4.067C-2.369,-4.01 -2.443,-3.957 -2.505,-3.895C-2.864,-3.538 -3.341,-3.348 -3.896,-3.282C-4.359,-3.226 -4.836,-3.232 -5.23,-3.449C-5.612,-3.658 -6.017,-3.696 -6.449,-3.698C-7.02,-3.7 -7.444,-3.492 -7.661,-3.078C-7.869,-2.68 -8.021,-2.262 -8.178,-1.847C-8.282,-1.57 -8.366,-1.287 -8.429,-1.002C-8.517,-0.603 -8.598,-0.202 -8.643,0.201C-8.696,0.67 -8.71,1.142 -8.736,1.613C-8.75,1.876 -8.795,2.143 -8.75,2.4C-8.666,2.88 -8.543,3.356 -8.405,3.828C-8.285,4.241 -8.05,4.603 -7.668,4.923C-7.256,5.266 -6.739,5.464 -6.25,5.699C-4.838,6.376 -3.304,5.973 -2.446,5.34C-1.549,4.679 -0.828,3.884 -0.331,2.983C-0.157,2.667 0.044,2.34 0,1.882ZM-9.379,2.155C-9.218,0.741 -9.286,-0.573 -8.777,-1.834C-8.627,-2.206 -8.498,-2.585 -8.369,-2.963C-8.252,-3.304 -8.015,-3.584 -7.714,-3.834C-7.455,-4.049 -7.148,-4.182 -6.762,-4.197C-6.157,-4.221 -5.593,-4.158 -5.065,-3.883C-4.52,-3.598 -3.521,-3.685 -3.028,-4.028C-2.78,-4.2 -2.543,-4.382 -2.304,-4.563C-2.049,-4.756 -1.818,-4.789 -1.576,-4.603C-1.2,-4.313 -0.839,-4.007 -0.506,-3.686C-0.157,-3.35 -0.152,-3.111 -0.462,-2.753C-0.806,-2.356 -1.14,-1.947 -1.545,-1.592C-1.884,-1.295 -2.299,-1.044 -2.717,-0.817C-3.291,-0.507 -3.501,-0.081 -3.554,0.449C-3.609,1.007 -2.824,1.787 -2.014,1.735C-1.483,1.701 -0.996,1.573 -0.503,1.433C-0.261,1.364 0.004,1.327 0.261,1.315C0.572,1.3 0.704,1.407 0.666,1.643C0.552,2.353 0.352,3.049 -0.129,3.663C-0.546,4.197 -0.936,4.751 -1.534,5.179C-1.582,5.214 -1.616,5.261 -1.65,5.306C-2.116,5.919 -2.845,6.218 -3.674,6.41C-4.319,6.56 -4.973,6.671 -5.61,6.458C-6.29,6.23 -6.983,5.995 -7.59,5.668C-8.304,5.284 -8.855,4.761 -8.991,4.029C-9.115,3.365 -9.265,2.704 -9.379,2.155Z" style="fill:rgb(29,29,27);fill-rule:nonzero;stroke:rgb(29,29,27);stroke-width:0.18px;"/>
                    </g>
                    <g transform="matrix(1,0,0,1,265.563,144.737)">
                        <path d="M0,-0.3C0.01,-0.992 -0.447,-1.518 -1.046,-1.628C-1.208,-1.658 -2.667,-1.421 -2.797,-1.332C-3.047,-1.161 -3.309,-0.997 -3.526,-0.802C-3.99,-0.387 -4.216,0.251 -3.859,0.847C-3.632,1.225 -3.063,1.492 -2.63,1.417C-1.994,1.305 -1.407,1.094 -0.889,0.792C-0.386,0.499 -0.035,0.103 0,-0.3M0.499,-0.264C0.446,0.202 0.08,0.689 -0.466,1.089C-1.052,1.517 -1.792,1.71 -2.539,1.87C-2.989,1.966 -3.379,1.804 -3.719,1.581C-4.123,1.315 -4.409,0.971 -4.533,0.57C-4.597,0.366 -4.551,0.127 -4.496,-0.086C-4.313,-0.787 -3.698,-1.24 -3.028,-1.657C-2.053,-2.266 -1.161,-2.22 -0.188,-1.667C0.196,-1.448 0.5,-0.879 0.499,-0.264" style="fill:rgb(29,29,27);fill-rule:nonzero;"/>
                    </g>
                    <g transform="matrix(1,0,0,1,265.563,144.737)">
                        <path d="M0,-0.3C0.01,-0.992 -0.447,-1.518 -1.046,-1.628C-1.208,-1.658 -2.667,-1.421 -2.797,-1.332C-3.047,-1.161 -3.309,-0.997 -3.526,-0.802C-3.99,-0.387 -4.216,0.251 -3.859,0.847C-3.632,1.225 -3.063,1.492 -2.63,1.417C-1.994,1.305 -1.407,1.094 -0.889,0.792C-0.386,0.499 -0.035,0.103 0,-0.3ZM0.499,-0.264C0.446,0.202 0.08,0.689 -0.466,1.089C-1.052,1.517 -1.792,1.71 -2.539,1.87C-2.989,1.966 -3.379,1.804 -3.719,1.581C-4.123,1.315 -4.409,0.971 -4.533,0.57C-4.597,0.366 -4.551,0.127 -4.496,-0.086C-4.313,-0.787 -3.698,-1.24 -3.028,-1.657C-2.053,-2.266 -1.161,-2.22 -0.188,-1.667C0.196,-1.448 0.5,-0.879 0.499,-0.264Z" style="fill:none;fill-rule:nonzero;stroke:rgb(29,29,27);stroke-width:0.18px;"/>
                    </g>
                    <g transform="matrix(1,0,0,1,264.08,154.849)">
                        <path d="M0,2.052C0.301,1.94 0.536,1.867 0.747,1.764C0.819,1.73 0.809,1.575 0.877,1.551C1.404,1.369 1.66,0.968 2.012,0.654C2.262,0.43 2.466,0.146 2.426,-0.231C1.376,0.284 0.804,1.11 0.045,1.793C0.004,1.83 0.022,1.908 0,2.052ZM3.018,-0.228C2.94,0.23 2.784,0.642 2.396,0.968C1.59,1.643 0.687,2.23 -0.256,2.777C-0.486,2.91 -0.772,2.799 -0.818,2.545C-0.836,2.446 -0.812,2.331 -0.766,2.238C-0.581,1.866 -0.398,1.502 -0.018,1.209C0.476,0.828 0.913,0.401 1.384,0.001C1.517,-0.112 1.687,-0.197 1.835,-0.299C2.017,-0.424 2.207,-0.544 2.37,-0.684C2.573,-0.858 2.788,-0.851 2.9,-0.632C2.967,-0.501 2.983,-0.353 3.018,-0.228Z" style="fill:rgb(29,29,27);fill-rule:nonzero;stroke:rgb(29,29,27);stroke-width:0.18px;"/>
                    </g>
                    <g transform="matrix(1,0,0,1,236.065,192.245)">
                        <path d="M0,-16.68C-0.011,-16.568 -0.034,-16.426 -0.039,-16.283C-0.103,-14.531 -0.146,-12.779 -0.23,-11.028C-0.315,-9.286 -0.145,-7.552 -0.071,-5.815C-0.032,-4.906 0.027,-3.998 0.064,-3.09C0.113,-1.907 0.151,-0.724 0.188,0.459C0.196,0.717 0.281,0.927 0.613,1.021C1.437,1.253 2.292,1.372 3.154,1.456C3.921,1.53 4.69,1.591 5.46,1.644C6.493,1.716 7.523,1.769 8.552,1.575C9.044,1.483 9.556,1.444 10.063,1.411C10.961,1.353 11.874,1.382 12.731,1.095C13.182,0.943 13.675,0.852 14.09,0.654C14.62,0.402 15.09,0.069 15.634,-0.257C15.637,-0.305 15.66,-0.41 15.651,-0.513C15.611,-1.037 15.571,-1.562 15.517,-2.085C15.416,-3.055 15.293,-4.025 15.201,-4.996C15.114,-5.91 15.025,-6.825 14.988,-7.741C14.926,-9.268 14.946,-10.797 14.661,-12.315C14.503,-13.159 14.424,-14.012 14.323,-14.862C14.22,-15.741 14.135,-16.62 14.039,-17.5C14.023,-17.643 14.004,-17.788 13.962,-17.929C13.904,-18.126 13.752,-18.243 13.479,-18.26C13.234,-18.275 12.993,-18.335 12.748,-18.343C12.372,-18.354 11.974,-18.397 11.623,-18.319C11.182,-18.222 10.75,-18.202 10.307,-18.213C9.646,-18.228 8.992,-18.201 8.343,-18.089C8.055,-18.039 7.759,-18.004 7.465,-17.993C6.725,-17.966 5.993,-17.918 5.269,-17.771C4.859,-17.687 4.43,-17.665 4.01,-17.611C3.591,-17.556 3.172,-17.499 2.753,-17.438C2.608,-17.417 2.463,-17.391 2.323,-17.356C1.839,-17.236 1.354,-17.118 0.877,-16.984C0.604,-16.908 0.346,-16.802 0,-16.68M0.293,-17.251C0.762,-17.407 1.203,-17.589 1.671,-17.7C2.283,-17.845 2.91,-18.003 3.54,-18.032C4.5,-18.076 5.418,-18.274 6.36,-18.379C6.961,-18.446 7.58,-18.436 8.17,-18.539C9.113,-18.703 10.073,-18.599 11.009,-18.71C11.68,-18.79 12.342,-18.856 13.018,-18.81C13.312,-18.791 13.605,-18.76 13.897,-18.725C14.316,-18.674 14.389,-18.606 14.424,-18.269C14.534,-17.206 14.635,-16.142 14.759,-15.079C14.866,-14.162 14.998,-13.246 15.124,-12.33C15.18,-11.925 15.287,-11.522 15.308,-11.115C15.368,-9.998 15.388,-8.88 15.436,-7.763C15.459,-7.225 15.496,-6.688 15.552,-6.152C15.659,-5.13 15.775,-4.108 15.908,-3.088C15.995,-2.42 16.118,-1.755 16.222,-1.089C16.246,-0.932 16.246,-0.772 16.278,-0.617C16.374,-0.159 16.083,0.121 15.644,0.364C15.159,0.632 14.703,0.931 14.231,1.214C14.154,1.26 14.069,1.309 13.979,1.331C13.433,1.464 12.893,1.629 12.334,1.709C11.658,1.804 10.965,1.846 10.277,1.875C9.604,1.903 8.943,1.932 8.281,2.077C7.833,2.176 7.33,2.16 6.857,2.135C5.744,2.078 4.632,1.995 3.522,1.902C2.756,1.837 1.995,1.739 1.233,1.65C0.882,1.609 0.535,1.547 0.184,1.507C-0.175,1.466 -0.268,1.412 -0.289,1.114C-0.338,0.431 -0.382,-0.252 -0.403,-0.935C-0.445,-2.305 -0.462,-3.675 -0.505,-5.045C-0.522,-5.584 -0.522,-6.131 -0.638,-6.659C-0.774,-7.288 -0.648,-7.912 -0.711,-8.539C-0.775,-9.167 -0.767,-9.802 -0.747,-10.432C-0.716,-11.433 -0.636,-12.433 -0.6,-13.434C-0.564,-14.431 -0.567,-15.43 -0.533,-16.428C-0.523,-16.687 -0.467,-16.951 -0.383,-17.203C-0.286,-17.493 -0.148,-17.51 0.166,-17.307C0.19,-17.291 0.222,-17.282 0.293,-17.251" style="fill:rgb(29,29,27);fill-rule:nonzero;"/>
                    </g>
                    <g transform="matrix(1,0,0,1,236.065,192.245)">
                        <path d="M0,-16.68C-0.011,-16.568 -0.034,-16.426 -0.039,-16.283C-0.103,-14.531 -0.146,-12.779 -0.23,-11.028C-0.315,-9.286 -0.145,-7.552 -0.071,-5.815C-0.032,-4.906 0.027,-3.998 0.064,-3.09C0.113,-1.907 0.151,-0.724 0.188,0.459C0.196,0.717 0.281,0.927 0.613,1.021C1.437,1.253 2.292,1.372 3.154,1.456C3.921,1.53 4.69,1.591 5.46,1.644C6.493,1.716 7.523,1.769 8.552,1.575C9.044,1.483 9.556,1.444 10.063,1.411C10.961,1.353 11.874,1.382 12.731,1.095C13.182,0.943 13.675,0.852 14.09,0.654C14.62,0.402 15.09,0.069 15.634,-0.257C15.637,-0.305 15.66,-0.41 15.651,-0.513C15.611,-1.037 15.571,-1.562 15.517,-2.085C15.416,-3.055 15.293,-4.025 15.201,-4.996C15.114,-5.91 15.025,-6.825 14.988,-7.741C14.926,-9.268 14.946,-10.797 14.661,-12.315C14.503,-13.159 14.424,-14.012 14.323,-14.862C14.22,-15.741 14.135,-16.62 14.039,-17.5C14.023,-17.643 14.004,-17.788 13.962,-17.929C13.904,-18.126 13.752,-18.243 13.479,-18.26C13.234,-18.275 12.993,-18.335 12.748,-18.343C12.372,-18.354 11.974,-18.397 11.623,-18.319C11.182,-18.222 10.75,-18.202 10.307,-18.213C9.646,-18.228 8.992,-18.201 8.343,-18.089C8.055,-18.039 7.759,-18.004 7.465,-17.993C6.725,-17.966 5.993,-17.918 5.269,-17.771C4.859,-17.687 4.43,-17.665 4.01,-17.611C3.591,-17.556 3.172,-17.499 2.753,-17.438C2.608,-17.417 2.463,-17.391 2.323,-17.356C1.839,-17.236 1.354,-17.118 0.877,-16.984C0.604,-16.908 0.346,-16.802 0,-16.68ZM0.293,-17.251C0.762,-17.407 1.203,-17.589 1.671,-17.7C2.283,-17.845 2.91,-18.003 3.54,-18.032C4.5,-18.076 5.418,-18.274 6.36,-18.379C6.961,-18.446 7.58,-18.436 8.17,-18.539C9.113,-18.703 10.073,-18.599 11.009,-18.71C11.68,-18.79 12.342,-18.856 13.018,-18.81C13.312,-18.791 13.605,-18.76 13.897,-18.725C14.316,-18.674 14.389,-18.606 14.424,-18.269C14.534,-17.206 14.635,-16.142 14.759,-15.079C14.866,-14.162 14.998,-13.246 15.124,-12.33C15.18,-11.925 15.287,-11.522 15.308,-11.115C15.368,-9.998 15.388,-8.88 15.436,-7.763C15.459,-7.225 15.496,-6.688 15.552,-6.152C15.659,-5.13 15.775,-4.108 15.908,-3.088C15.995,-2.42 16.118,-1.755 16.222,-1.089C16.246,-0.932 16.246,-0.772 16.278,-0.617C16.374,-0.159 16.083,0.121 15.644,0.364C15.159,0.632 14.703,0.931 14.231,1.214C14.154,1.26 14.069,1.309 13.979,1.331C13.433,1.464 12.893,1.629 12.334,1.709C11.658,1.804 10.965,1.846 10.277,1.875C9.604,1.903 8.943,1.932 8.281,2.077C7.833,2.176 7.33,2.16 6.857,2.135C5.744,2.078 4.632,1.995 3.522,1.902C2.756,1.837 1.995,1.739 1.233,1.65C0.882,1.609 0.535,1.547 0.184,1.507C-0.175,1.466 -0.268,1.412 -0.289,1.114C-0.338,0.431 -0.382,-0.252 -0.403,-0.935C-0.445,-2.305 -0.462,-3.675 -0.505,-5.045C-0.522,-5.584 -0.522,-6.131 -0.638,-6.659C-0.774,-7.288 -0.648,-7.912 -0.711,-8.539C-0.775,-9.167 -0.767,-9.802 -0.747,-10.432C-0.716,-11.433 -0.636,-12.433 -0.6,-13.434C-0.564,-14.431 -0.567,-15.43 -0.533,-16.428C-0.523,-16.687 -0.467,-16.951 -0.383,-17.203C-0.286,-17.493 -0.148,-17.51 0.166,-17.307C0.19,-17.291 0.222,-17.282 0.293,-17.251Z" style="fill:none;fill-rule:nonzero;stroke:rgb(29,29,27);stroke-width:0.18px;"/>
                    </g>
                    <g transform="matrix(1,0,0,1,249.662,151.876)">
                        <path d="M0,16.171C0.074,15.81 0.156,15.476 0.21,15.138C0.392,14 0.51,12.859 0.473,11.71C0.463,11.434 0.535,11.157 0.524,10.882C0.478,9.751 0.406,8.62 0.362,7.488C0.343,7.001 0.392,6.513 0.367,6.026C0.342,5.554 0.262,5.084 0.208,4.613C0.185,4.42 0.136,4.224 0.146,4.031C0.183,3.261 0.085,2.508 -0.214,1.771C-0.4,1.314 -0.771,0.967 -1.185,0.646C-1.292,0.562 -1.475,0.518 -1.631,0.5C-2.362,0.415 -3.095,0.343 -3.828,0.27C-4.316,0.222 -4.805,0.163 -5.295,0.139C-6.034,0.103 -6.775,0.091 -7.515,0.072C-8.485,0.047 -9.456,0.005 -10.427,0.005C-11.579,0.004 -12.709,0.153 -13.828,0.379C-14.703,0.555 -15.591,0.688 -16.474,0.834C-16.78,0.885 -16.867,0.937 -16.873,1.197C-16.876,1.367 -16.964,1.484 -17.067,1.625C-17.203,1.811 -17.292,2.038 -17.318,2.254C-17.396,2.908 -17.437,3.566 -17.487,4.222C-17.525,4.721 -17.579,5.221 -17.584,5.72C-17.593,6.537 -17.602,7.356 -17.546,8.171C-17.505,8.76 -17.363,9.345 -17.26,9.932C-17.178,10.4 -17.183,10.878 -17.109,11.338C-16.959,12.286 -16.736,13.238 -15.742,13.93C-15.223,14.291 -14.741,14.682 -14.203,15.031C-13.677,15.372 -13.068,15.536 -12.484,15.764C-11.554,16.128 -10.567,16.137 -9.587,16.059C-8.757,15.993 -7.941,15.815 -7.118,15.69C-6.796,15.641 -6.471,15.606 -6.149,15.557C-5.77,15.498 -5.396,15.407 -5.014,15.373C-4.328,15.312 -3.638,15.279 -2.948,15.244C-2.654,15.228 -2.354,15.256 -2.063,15.227C-1.676,15.188 -1.29,15.125 -0.911,15.047C-0.731,15.011 -0.562,14.925 -0.451,15.11C-0.359,15.262 -0.472,15.447 -0.689,15.532C-0.704,15.538 -0.718,15.546 -0.734,15.547C-1.25,15.616 -1.735,15.782 -2.28,15.767C-3.831,15.725 -5.359,15.881 -6.874,16.147C-7.529,16.261 -8.179,16.429 -8.865,16.387C-8.911,16.384 -8.961,16.403 -9.007,16.418C-9.833,16.683 -10.692,16.595 -11.544,16.565C-11.688,16.56 -11.837,16.531 -11.973,16.489C-13.268,16.085 -14.449,15.539 -15.418,14.723C-15.733,14.458 -16.098,14.23 -16.424,13.972C-16.934,13.569 -17.19,13.054 -17.342,12.51C-17.487,11.989 -17.647,11.471 -17.62,10.922C-17.602,10.546 -17.671,10.159 -17.766,9.787C-17.972,8.982 -18.031,8.168 -18.048,7.351C-18.067,6.468 -18.064,5.585 -18.055,4.702C-18.046,3.928 -17.898,3.163 -17.808,2.395C-17.792,2.264 -17.788,2.129 -17.746,2.004C-17.653,1.727 -17.542,1.455 -17.435,1.182C-17.4,1.095 -17.304,1.009 -17.315,0.93C-17.36,0.603 -17.06,0.517 -16.782,0.453C-16.298,0.342 -15.8,0.267 -15.307,0.181C-14.828,0.098 -14.345,0.03 -13.87,-0.062C-13.636,-0.108 -13.421,-0.218 -13.187,-0.258C-12.82,-0.32 -12.446,-0.361 -12.073,-0.388C-10.348,-0.512 -8.624,-0.484 -6.898,-0.383C-6.376,-0.352 -5.846,-0.398 -5.322,-0.372C-4.7,-0.342 -4.081,-0.277 -3.461,-0.22C-3.053,-0.183 -2.647,-0.102 -2.239,-0.095C-1.005,-0.072 -0.245,0.447 0.146,1.341C0.412,1.949 0.618,2.567 0.633,3.227C0.652,3.988 0.766,4.748 0.813,5.51C0.842,5.983 0.806,6.459 0.832,6.933C0.893,8.078 1.007,9.222 1.036,10.367C1.08,12.12 1.004,13.871 0.703,15.612C0.68,15.742 0.654,15.874 0.602,15.997C0.501,16.237 0.419,16.259 0,16.171Z" style="fill:rgb(29,29,27);fill-rule:nonzero;stroke:rgb(29,29,27);stroke-width:0.18px;"/>
                    </g>
                    <g transform="matrix(1,0,0,1,236.123,164.509)">
                        <path d="M0,0.285C-0.079,-0.063 0.022,-0.214 0.385,-0.214C0.825,-0.213 1.268,-0.184 1.703,-0.131C2.596,-0.02 3.479,0.142 4.374,0.234C5.397,0.339 6.405,0.176 7.401,0.007C7.978,-0.091 8.543,-0.229 9.112,-0.353C9.74,-0.488 10.359,-0.567 10.974,-0.298C11.128,-0.231 11.288,-0.193 11.237,-0.023C11.184,0.155 11.017,0.248 10.802,0.238C10.608,0.229 10.41,0.189 10.226,0.136C9.658,-0.031 9.11,0.112 8.588,0.239C7.15,0.588 5.706,0.852 4.189,0.733C4.172,0.732 4.156,0.733 4.14,0.731C3.126,0.582 2.116,0.421 1.098,0.292C0.751,0.248 0.389,0.285 0,0.285Z" style="fill:rgb(29,29,27);fill-rule:nonzero;stroke:rgb(29,29,27);stroke-width:0.18px;"/>
                    </g>
                    <g transform="matrix(1,0,0,1,243.874,154.783)">
                        <path d="M0,-0.024C-1.291,-0.102 -2.259,0.033 -3.219,0.228C-4.073,0.402 -4.952,0.35 -5.819,0.407C-6.242,0.434 -6.661,0.496 -7.082,0.541C-7.31,0.565 -7.538,0.588 -7.767,0.61C-8.075,0.64 -8.384,0.67 -8.693,0.695C-8.807,0.704 -8.937,0.722 -9.034,0.689C-9.122,0.659 -9.199,0.572 -9.23,0.496C-9.241,0.468 -9.116,0.372 -9.039,0.358C-8.559,0.274 -8.079,0.178 -7.592,0.136C-6.909,0.077 -6.253,-0.122 -5.553,-0.09C-5.177,-0.073 -4.794,-0.072 -4.42,-0.107C-3.883,-0.156 -3.348,-0.234 -2.817,-0.321C-1.749,-0.496 -0.677,-0.539 0.414,-0.499C0.974,-0.479 1.543,-0.616 2.108,-0.685C2.188,-0.695 2.276,-0.746 2.343,-0.731C2.455,-0.703 2.618,-0.65 2.637,-0.585C2.657,-0.514 2.563,-0.387 2.474,-0.339C2.357,-0.276 2.198,-0.254 2.053,-0.238C1.274,-0.153 0.494,-0.075 0,-0.024Z" style="fill:rgb(29,29,27);fill-rule:nonzero;stroke:rgb(29,29,27);stroke-width:0.18px;"/>
                    </g>
                    <g transform="matrix(1,0,0,1,246.382,158.933)">
                        <path d="M0,-0.449C-0.12,-0.366 -0.18,-0.296 -0.26,-0.276C-0.347,-0.255 -0.459,-0.263 -0.548,-0.287C-1.144,-0.453 -1.742,-0.356 -2.347,-0.337C-3.469,-0.301 -4.522,0.034 -5.652,0.06C-6.863,0.087 -8.069,0.244 -9.275,0.358C-9.813,0.408 -10.321,0.313 -10.829,0.206C-11.085,0.152 -11.168,0.002 -11.082,-0.186C-11,-0.366 -10.845,-0.426 -10.612,-0.317C-10.128,-0.09 -9.613,-0.082 -9.083,-0.124C-7.679,-0.236 -6.272,-0.336 -4.871,-0.467C-4.187,-0.531 -3.514,-0.667 -2.831,-0.742C-2.281,-0.803 -1.725,-0.837 -1.17,-0.851C-0.914,-0.857 -0.643,-0.812 -0.4,-0.742C-0.254,-0.7 -0.15,-0.564 0,-0.449Z" style="fill:rgb(29,29,27);fill-rule:nonzero;stroke:rgb(29,29,27);stroke-width:0.18px;"/>
                    </g>
                    <g transform="matrix(1,0,0,1,270.722,129.944)">
                        <path d="M0,-3.527C-0.247,-3.2 -0.247,-3.202 -0.705,-3.18C-1.031,-3.165 -1.357,-3.151 -1.683,-3.125C-2.323,-3.076 -2.891,-2.907 -3.317,-2.495C-3.361,-2.452 -3.537,-2.428 -3.562,-2.453C-3.624,-2.515 -3.677,-2.617 -3.657,-2.691C-3.545,-3.103 -3.199,-3.353 -2.7,-3.443C-2.029,-3.564 -1.35,-3.655 -0.631,-3.766C-0.646,-3.75 -0.617,-3.768 -0.607,-3.791C-0.449,-4.173 -0.213,-4.262 0.225,-4.062C0.566,-3.905 0.878,-3.708 1.207,-3.534C1.629,-3.311 2.05,-3.086 2.482,-2.877C2.588,-2.826 2.738,-2.835 2.866,-2.811C2.943,-2.796 3.066,-2.786 3.083,-2.748C3.195,-2.512 3.503,-2.484 3.705,-2.348C4.46,-1.839 4.841,-1.207 4.676,-0.395C4.63,-0.169 4.633,0.07 4.659,0.3C4.687,0.556 4.491,0.735 4.165,0.677C3.542,0.567 2.907,0.48 2.311,0.308C1.668,0.122 1.04,-0.116 0.451,-0.392C-0.241,-0.717 -0.961,-0.948 -1.745,-1.061C-2.306,-1.142 -2.872,-1.206 -3.433,-1.29C-3.733,-1.335 -4.02,-1.424 -4.072,-1.708C-4.088,-1.798 -4.048,-1.92 -3.977,-1.988C-3.939,-2.023 -3.741,-2.003 -3.675,-1.955C-3.402,-1.759 -3.058,-1.789 -2.742,-1.739C-2.131,-1.644 -1.505,-1.596 -0.905,-1.47C-0.35,-1.354 0.144,-1.11 0.637,-0.867C1.208,-0.588 1.823,-0.363 2.422,-0.12C2.506,-0.086 2.62,-0.058 2.707,-0.073C2.977,-0.122 3.219,-0.069 3.476,-0.009C3.877,0.084 4.062,-0.012 4.164,-0.335C4.348,-0.923 4.049,-1.378 3.563,-1.798C3.246,-2.074 2.853,-2.25 2.462,-2.435C1.762,-2.768 1.059,-3.097 0.353,-3.423C0.244,-3.473 0.114,-3.494 0,-3.527Z" style="fill:rgb(29,29,27);fill-rule:nonzero;stroke:rgb(29,29,27);stroke-width:0.18px;"/>
                    </g>
                    <g transform="matrix(1,0,0,1,263.175,145.226)">
                        <path d="M0,-1.05C-0.095,-0.773 -0.336,-0.533 -0.166,-0.21C0.281,-0.267 0.556,-0.508 0.76,-0.79C0.906,-0.992 0.592,-1.069 0.474,-1.213C0.496,-1.374 0.624,-1.505 0.813,-1.466C0.979,-1.432 1.185,-1.305 1.232,-1.184C1.295,-1.025 1.275,-0.813 1.197,-0.654C0.932,-0.111 0.284,0.295 -0.505,0.455C-0.703,0.367 -0.776,0.216 -0.799,0.037C-0.846,-0.336 -0.667,-0.661 -0.466,-0.979C-0.38,-1.114 -0.23,-1.152 0,-1.05Z" style="fill:rgb(29,29,27);fill-rule:nonzero;stroke:rgb(29,29,27);stroke-width:0.18px;"/>
                    </g>
                    <g transform="matrix(1,0,0,1,244.228,183.887)">
                        <path d="M0,0.648C-0.129,0.48 -0.049,0.3 -0.025,0.119C0.097,-0.786 0.106,-1.692 -0.049,-2.595C-0.071,-2.722 -0.153,-2.842 -0.2,-2.967C-0.296,-3.226 -0.211,-3.412 0.099,-3.519C1.018,-3.835 1.735,-4.388 2.545,-4.831C2.747,-4.941 2.946,-5.055 3.139,-5.162C3.452,-4.927 3.463,-4.828 3.225,-4.637C3.19,-4.609 3.154,-4.582 3.114,-4.559C2.365,-4.133 1.627,-3.694 0.861,-3.289C0.584,-3.143 0.483,-2.981 0.517,-2.734C0.555,-2.446 0.596,-2.157 0.611,-1.868C0.631,-1.461 0.625,-1.054 0.637,-0.647C0.64,-0.549 0.667,-0.452 0.69,-0.31C0.882,-0.393 1.018,-0.457 1.16,-0.512C1.771,-0.748 2.442,-0.812 3.09,-0.762C4.147,-0.68 4.833,-0.13 4.733,0.827C4.667,1.48 4.399,2.078 4.083,2.669C3.816,3.17 3.47,3.634 3.016,4.038C2.799,4.231 2.546,4.414 2.267,4.542C1.509,4.888 0.744,5.219 0.117,5.718C0.053,5.768 -0.055,5.802 -0.146,5.806C-0.23,5.81 -0.355,5.784 -0.395,5.735C-0.438,5.682 -0.422,5.585 -0.4,5.513C-0.386,5.47 -0.307,5.443 -0.262,5.405C0.244,4.972 0.811,4.6 1.474,4.333C2.231,4.028 2.846,3.603 3.24,3.002C3.514,2.584 3.762,2.151 3.967,1.709C4.101,1.419 4.169,1.104 4.213,0.795C4.3,0.174 3.654,-0.333 2.839,-0.315C1.964,-0.295 1.206,-0.065 0.593,0.454C0.446,0.579 0.297,0.762 0,0.648Z" style="fill:rgb(29,29,27);fill-rule:nonzero;stroke:rgb(29,29,27);stroke-width:0.18px;"/>
                    </g>
                    <g transform="matrix(1,0,0,1,238.125,186.287)">
                        <path d="M0,-1.856C0.204,-1.922 0.332,-1.976 0.467,-2.007C1.202,-2.174 1.73,-1.96 2.292,-1.47C2.768,-1.055 2.975,-0.532 3.157,0.011C3.399,0.735 3.463,1.46 3.408,2.201C3.369,2.723 3.196,3.207 2.861,3.661C2.457,4.208 1.789,4.413 1.081,4.563C0.797,4.623 0.499,4.648 0.205,4.663C0.089,4.669 -0.052,4.625 -0.148,4.569C-0.294,4.482 -0.32,4.346 -0.24,4.212C-0.163,4.083 -0.027,4.092 0.136,4.1C1.089,4.145 1.949,3.957 2.473,3.273C2.705,2.971 2.846,2.591 2.89,2.235C3.014,1.211 2.851,0.205 2.301,-0.734C2.062,-1.145 1.685,-1.485 1.053,-1.525C0.734,-1.545 0.438,-1.524 0.242,-1.263C0.118,-1.098 -0.069,-0.964 -0.219,-0.811C-0.387,-0.638 -0.553,-0.641 -0.653,-0.85C-0.721,-0.991 -0.772,-1.165 -0.733,-1.307C-0.508,-2.127 -0.509,-2.951 -0.619,-3.781C-0.685,-4.271 -0.651,-4.752 -0.411,-5.216C-0.297,-5.436 -0.134,-5.579 0.148,-5.679C0.777,-5.905 1.385,-6.169 2.003,-6.415C2.12,-6.461 2.246,-6.525 2.365,-6.523C2.475,-6.521 2.639,-6.458 2.674,-6.388C2.71,-6.317 2.622,-6.203 2.581,-6.11C2.572,-6.091 2.53,-6.078 2.5,-6.067C1.935,-5.86 1.365,-5.659 0.805,-5.443C0.54,-5.341 0.285,-5.219 0.043,-5.085C-0.035,-5.042 -0.097,-4.931 -0.095,-4.852C-0.086,-4.262 -0.06,-3.672 -0.037,-3.083C-0.028,-2.846 -0.01,-2.61 -0.001,-2.373C0.004,-2.219 0,-2.065 0,-1.856Z" style="fill:rgb(29,29,27);fill-rule:nonzero;stroke:rgb(29,29,27);stroke-width:0.18px;"/>
                    </g>
                </g>
            </g>
        </g>
    </g>
</svg>
