<?xml version="1.0" encoding="UTF-8" standalone="no"?>
<!DOCTYPE svg PUBLIC "-//W3C//DTD SVG 1.1//EN" "http://www.w3.org/Graphics/SVG/1.1/DTD/svg11.dtd">
<svg width="100%" height="100%" viewBox="0 0 2276 2276" version="1.1" xmlns="http://www.w3.org/2000/svg" xmlns:xlink="http://www.w3.org/1999/xlink" xml:space="preserve" xmlns:serif="http://www.serif.com/" style="fill-rule:evenodd;clip-rule:evenodd;stroke-linejoin:round;stroke-miterlimit:2;">
    <g transform="matrix(1,0,0,1,-8447,-3309)">
        <g id="_9" serif:id="9" transform="matrix(1,0,0,1,9881.99,93.7914)">
            <rect x="-1434.93" y="3215.91" width="2274.98" height="2274.98" style="fill:none;"/>
            <g transform="matrix(4.16667,0,0,4.16667,-1414.8,4066.19)">
                <path d="M527.77,78.9C529.1,79.69 530.44,80.48 531.77,81.28C531.71,81.46 531.66,81.64 531.6,81.82L528.8,81.82C525.8,81.81 522.8,81.81 519.81,81.77C518.9,81.76 518.1,81.81 517.94,82.95C517.53,82.84 517.2,82.75 516.65,82.6C516.39,84.02 515.9,85.39 515.94,86.74C516.05,90.5 515.17,94.1 514.61,97.76C513.76,103.36 513.07,108.99 512.43,114.62C511.26,124.89 510.33,135.18 508.92,145.42C507.7,154.28 506.51,163.14 505.55,172.03C504.96,177.46 504.84,182.95 504.49,188.4C504.43,189.39 504.25,190.38 504.21,191.38C504.16,192.49 504.27,193.6 504.2,194.71C504.06,196.97 503.84,199.23 503.66,201.5C503.21,207.23 502.73,212.96 502.36,218.7C502.28,219.95 502.49,221.26 502.76,222.49C503.32,225.01 502.56,227.4 502.26,229.84C502.08,231.26 502.08,232.7 502.03,234.13C501.91,237.52 501.79,240.91 501.7,244.3C501.67,245.37 501.74,246.44 501.75,247.51C501.76,249.42 501.77,251.34 501.77,253.25L501.77,256.62C503.05,256.29 504.07,256.03 505.28,255.73C504.49,257.12 503.34,257.72 502.11,258.14C501.35,258.4 501.01,258.81 500.94,259.57C500.89,260.08 500.7,260.59 500.69,261.1C500.67,262.39 500.01,262.94 498.62,262.99C498.62,262.04 498.57,261.1 498.63,260.16C498.7,259.15 498.27,258.82 497.3,258.86C493.31,259.02 489.32,259.08 485.33,259.28C480.62,259.52 475.92,259.84 471.22,260.2C469.43,260.33 467.63,260.54 465.88,260.92C461.03,261.97 456.16,261.32 451.32,261C447.4,260.74 443.51,259.94 439.63,259.23C438.46,259.02 437.64,259.07 437.02,260.13C436.84,260.43 436.55,260.66 436.26,260.99C436.1,260.82 435.94,260.7 435.86,260.55C430.87,251.32 424.71,242.86 418.69,234.31C415.86,230.29 413.19,226.17 410.39,222.13C409.69,221.13 408.86,220.14 407.89,219.41C401.73,214.83 397.66,208.65 394.08,202.01C392.76,199.56 392.56,197.39 393.5,194.74C394.27,192.58 394.42,190.13 394.49,187.8C394.69,181.89 394.85,175.98 394.73,170.07C394.55,160.69 394.02,151.32 393.86,141.94C393.75,135.59 393.89,129.24 394.12,122.89C394.45,113.6 396.01,104.37 395.61,95.03C395.5,92.52 395.3,90.01 395.18,87.5C395.15,86.83 394.87,86.57 394.24,86.57C393.64,86.57 393.04,86.49 392.45,86.52C382.68,86.95 372.91,87.42 363.14,87.81C360.41,87.92 357.67,87.83 354.92,87.69C356.4,87.58 357.88,87.41 359.37,87.36C367.15,87.07 374.93,86.83 382.72,86.53C383.65,86.49 384.57,86.25 385.54,86.1L384.99,81.92C380.19,82.33 375.41,82.74 370.65,83.15C370.17,84.79 371.69,84.87 372.34,85.77C371.23,85.95 370.44,85.6 369.86,84.88C368.98,83.78 367.89,83.43 366.5,83.5C364.27,83.6 362.03,83.53 359.88,83.53C362.24,83.28 364.69,82.95 367.15,82.78C368.3,82.7 368.73,82.2 368.64,81.15C368.55,80.16 368.39,79.19 368.25,78.15C363.08,77.66 358.05,78.22 352.98,78.87C352.88,80.46 352.78,81.96 352.69,83.54L357.7,83.54C357.71,83.59 357.71,83.65 357.72,83.7C356.65,83.9 355.55,84.01 354.52,84.32C353.94,84.49 353.11,84.91 353,85.36C352.87,85.91 353.33,86.64 353.66,87.23C353.81,87.5 354.25,87.61 354.63,87.84C353.14,89.19 351.82,88.29 350.41,88.32C351.7,87.7 352.14,86.82 351.68,85.51C351.45,84.85 351.19,84.52 350.43,84.55C346.72,84.69 343.01,84.74 339.3,84.9C334.79,85.09 330.29,85.36 325.79,85.61C325.43,85.63 325,85.59 324.74,85.77C323.53,86.63 322.28,86.22 320.98,86.13C318.48,85.95 315.96,85.99 313.44,85.93C312.84,85.92 312.25,85.87 311.66,85.73C314.86,85.56 318.06,85.39 321.39,85.22C321.25,83.7 321.2,82.31 320.93,80.96C320.85,80.54 320.13,79.93 319.72,79.95C316.93,80.09 314.16,80.38 311.37,80.61C310.7,80.67 310.43,81.01 310.36,81.67C310.12,83.84 309.82,86.01 309.54,88.18C309.41,88.16 309.34,88.16 309.33,88.14C308.51,86.11 306.84,86.24 305.09,86.36C302.02,86.56 298.95,86.67 295.88,86.79C295.29,86.81 294.69,86.69 294.09,86.72C293.73,86.74 293.14,86.81 293.05,87.02C292.65,87.95 291.98,87.73 291.34,87.52C290.28,87.18 289.25,86.76 288.07,86.32C288.27,86.21 288.33,86.15 288.41,86.13C288.95,85.96 289.9,85.89 289.96,85.63C290.21,84.52 290.24,83.36 290.19,82.22C290.18,82.05 289.31,81.78 288.85,81.8C285.14,81.97 281.43,82.19 277.72,82.4C276.13,82.49 274.53,82.64 272.94,82.73C271.98,82.79 271.56,83.31 271.63,84.21C271.71,85.28 271.85,86.35 271.97,87.42C272.02,87.84 272.08,88.25 272.16,88.76C270.78,88.34 270.61,87.29 270.48,86.27C270.35,85.24 270.31,84.2 270.22,83.02C267.08,83.2 264,83.38 260.83,83.56C260.75,84.66 260.68,85.68 260.6,86.93L267.83,86.93C266.08,87.51 264.67,88.06 263.21,88.43C262.5,88.61 261.71,88.5 260.96,88.44C257.88,88.19 254.8,87.92 252.67,87.74C254.23,87.63 256.79,87.44 259.13,87.27C259.27,84.91 259.4,82.57 259.54,80.17L245.56,80.17C245.7,81.33 245.8,82.47 246.02,83.58C246.07,83.82 246.54,84.13 246.83,84.15C248.14,84.21 249.46,84.18 250.8,84.43C250.28,84.5 249.76,84.59 249.23,84.63C248.96,84.65 248.67,84.56 248.4,84.58C246.3,84.75 245.51,85.09 246.22,87.51C247.38,87.62 248.56,87.74 249.73,87.85C249.74,87.9 249.74,87.95 249.75,87.99C248.6,88.29 247.45,88.59 246.31,88.88C246.2,88.91 246.06,88.97 245.96,88.94C242.45,87.58 238.85,88.61 235.31,88.63C228.17,88.67 221.02,89.06 213.88,89.28C205.42,89.54 196.95,89.77 188.49,90C187.74,90.02 187.2,90.24 186.91,90.99C186.74,91.42 186.46,91.81 186.04,92.55C185.54,89.92 183.81,90.16 182.1,90.23C177.63,90.42 173.16,90.57 168.69,90.7C167.58,90.73 166.5,90.67 166.46,92.46C164.96,90.67 163.17,90.69 161.29,90.77C153.95,91.08 146.59,91.15 139.27,91.68C136.69,91.87 134.12,92.07 131.54,92.24C126.41,92.59 121.3,93.35 116.21,94.09C114.41,94.35 112.78,95.01 110.8,94.85C108.32,94.66 105.76,95.41 103.08,95.78C103.78,96.74 104.71,96.83 105.58,96.81C118.16,96.55 130.74,96.3 143.31,95.97C152.37,95.74 161.43,95.39 170.49,95.11C171,95.09 171.52,95.2 172.03,95.45C149.25,96.66 126.44,97.03 103.36,97.63C103.36,99.07 103.33,100.48 103.36,101.9C103.56,110.92 103.66,119.95 104.05,128.96C104.23,133.21 105.03,137.44 105.48,141.69C106.42,150.5 107.72,159.28 107.8,168.16C107.84,173.33 108.87,178.39 109.83,183.45C110.56,187.29 111.62,191.11 111.85,194.99C112.09,198.9 111.56,202.87 111.24,206.8C110.99,209.86 110.57,212.91 110.17,215.96C110.06,216.82 109.92,217.76 109.47,218.46C108.77,219.55 108.64,220.67 108.71,221.88C108.89,225.22 108.47,228.46 107.48,231.68C106.89,233.6 107,235.74 106.46,237.68C105.62,240.71 104.49,243.66 103.5,246.64C102.37,250.09 101.38,253.59 100.09,256.97C99.41,258.73 98.25,260.31 97.21,261.91C95.65,264.32 93.93,266.62 92.44,269.06C91.29,270.94 89.76,271.93 87.5,272.06C87.12,271.05 86.75,270.06 86.35,269C84,269.35 83.43,271.82 81.46,272.95C82.44,269.98 84.69,268.18 86.54,265.57C84.7,265.7 83.14,265.69 81.62,265.93C75.35,266.94 69.05,267.78 62.86,269.17C58.69,270.11 54.52,270.47 50.3,270.72C47.6,270.88 44.89,271.18 42.21,271.54C38.12,272.09 34.55,270.89 31.33,268.48C30.1,267.56 29.69,266.15 29.47,264.7C28.92,261.08 28.35,257.46 27.87,253.83C27.64,252.09 27.52,250.33 27.5,248.58C27.47,246.56 26.91,244.82 25.41,243.41C25.19,243.2 25.07,242.89 24.86,242.56C26.5,241.76 26.85,244.1 28.37,243.77C28.37,241.22 28.47,238.64 28.35,236.07C27.94,227.38 27.29,218.69 27.01,210C26.63,198.09 25.35,186.27 23.92,174.46C23.26,169.04 23.06,163.56 22.62,158.11C22.48,156.38 22.26,154.65 22.08,152.93C21.92,152.93 21.76,152.94 21.6,152.94C21.55,153.51 21.44,154.08 21.44,154.65C21.42,161.92 21.46,169.2 21.38,176.47C21.32,181.74 20.95,187.01 20.99,192.28C21.09,204.62 21.33,216.96 21.58,229.29C21.64,232.19 21.43,235.12 22.57,237.92C23.01,239 22.34,239.82 20.71,240.53C20.56,239.77 20.3,239.04 20.29,238.3C20.23,230.67 20.22,223.05 20.19,215.42C20.19,214.78 20.12,214.14 20.12,213.51C20.17,204.48 20.2,195.45 20.28,186.42C20.42,171.8 20.58,157.18 20.76,142.56C20.83,136.59 20.17,130.68 19.42,124.78C18.77,119.65 18.69,114.51 19.38,109.37C19.58,107.92 19.49,106.42 19.58,104.95C19.62,104.32 19.72,103.68 19.91,103.08C20.72,100.47 20.04,99.69 17.29,100.06C13.06,100.64 8.82,101.18 4.58,101.73C3.07,101.93 1.66,101.66 -0.04,100.69C0.63,100.4 1.01,100.11 1.42,100.07C6.75,99.62 12.09,99.2 17.42,98.79C18.36,98.72 18.86,98.43 18.78,97.34C18.69,95.91 18.88,94.46 18.76,93.03C18.66,91.82 18.31,90.64 18.04,89.45C17.95,89.06 17.6,88.64 17.69,88.33C18.15,86.63 16.87,86.03 15.86,85.24C15.64,85.07 15.39,84.92 15.21,84.72C15.02,84.5 14.88,84.23 14.73,83.98C15.04,83.92 15.36,83.79 15.66,83.82C17.91,84.02 20.16,84.3 22.42,84.43C22.88,84.46 23.52,84.04 23.84,83.64C25.26,81.81 26.6,79.92 27.98,78.06C28.1,77.9 28.31,77.8 28.65,77.81C27.28,80.28 25.91,82.75 24.53,85.22C24.59,85.31 24.66,85.4 24.72,85.5C25.72,85.3 26.71,85.09 27.71,84.91C30.25,84.43 32.77,83.84 35.33,83.52C38.54,83.12 41.77,82.79 44.99,82.72C48.09,82.66 51.21,82.8 54.29,83.19C58.03,83.65 61.69,83.34 65.37,82.86C66.26,82.74 67.17,82.75 68.07,82.74C71.26,82.74 74.45,82.85 77.63,82.74C79.97,82.66 82.29,82.28 84.63,82.06C84.92,82.03 85.29,82.08 85.5,82.25C86.52,83.07 87.69,83.1 88.91,83.08C90.3,83.06 91.7,83.15 93.09,83.14C93.96,83.13 94.92,83.22 95.67,82.89C96.6,82.48 97.25,82.59 98.08,83.04C99.56,83.85 101.12,83.58 102.59,82.96C102.94,82.81 103.13,82.24 103.35,81.84C103.57,81.44 103.73,81 103.97,80.45C104.73,81.58 104.78,83.38 106.67,82.84C107.84,82.5 108.97,82.02 110.33,81.52C110.71,82.11 111.49,82.79 112.71,82.54C113.72,82.33 114.72,82.11 115.96,81.85C116.86,83.04 118.39,82.94 119.98,82.61C123.9,81.8 127.81,81.01 131.85,81.75C132.39,81.85 132.95,81.76 133.53,81.76C133.72,81.23 133.89,80.75 134.15,80.01C134.53,80.41 134.76,80.74 135.07,80.95C135.66,81.36 136.27,81.97 136.91,82.01C138.94,82.15 140.98,82.04 143.02,82.07C143.95,82.09 144.1,81.46 144.29,80.79C144.53,79.96 144.81,79.14 145.09,78.24C146.19,78.77 146.06,79.4 145.9,80.03C145.51,81.59 145.6,81.82 147.11,81.71C148.31,81.63 149.48,81.23 150.67,81.01C151,80.95 151.36,80.95 151.69,81.03C154.05,81.57 156.4,81.95 158.74,80.9C159.01,80.78 159.49,80.83 159.74,81C160.75,81.66 161.76,81.45 162.85,81.25C164.08,81.02 165.35,80.91 166.61,80.9C167.92,80.88 169.24,81.02 170.55,81.12C172.03,81.23 173.48,81.32 173.96,79.23C174.35,79.78 174.55,80.18 174.85,80.45C175.14,80.7 175.55,80.99 175.89,80.98C178.04,80.88 180.19,80.68 182.35,80.56C184.04,80.47 185.3,79.86 185.76,77.71C186.73,79.79 188.34,79.73 189.99,79.69C194.62,79.58 199.25,79.51 203.88,79.44C205.64,79.41 207.28,79.03 208.73,77.57C209.18,79.22 210.35,78.95 211.41,78.97C215.84,79.04 220.27,79.17 224.71,79.2C230.77,79.24 236.83,79.21 242.72,79.21C243.13,78.1 243.41,77.32 243.69,76.56C244.02,76.66 244.14,76.67 244.16,76.71C244.84,78.65 246.32,78.83 248.14,78.77C251.89,78.65 255.65,78.73 259.48,78.73C259.67,78.13 259.85,77.55 260.09,76.78C260.4,77.12 260.65,77.28 260.72,77.5C261.16,78.82 262.03,79.05 263.37,79C275.91,78.5 288.38,77.26 300.83,75.67C305.33,75.1 309.92,75.3 314.47,75.05C322.6,74.6 330.73,74.05 338.86,73.57C343.13,73.32 347.4,73.2 351.66,72.85C357.03,72.41 362.38,71.77 367.74,71.27C373.74,70.7 379.76,70.24 385.76,69.64C392,69.02 398.21,68.17 404.46,67.67C411.38,67.11 418.32,66.62 425.26,66.48C435.02,66.29 444.71,65.64 454.38,64.23C460.41,63.35 466.55,63.14 472.63,62.63C484.01,61.68 495.39,60.76 506.77,59.79C509.87,59.53 512.96,59.13 516.12,58.79C516.04,58.64 516.01,58.51 515.94,58.46C509.99,54.37 503.95,50.39 498.1,46.16C488.88,39.49 479.73,32.71 470.65,25.84C465.86,22.21 462.1,17.59 458.97,12.46C458.85,12.26 458.71,12.06 458.4,11.96L460.68,16.22C460.58,16.29 460.48,16.36 460.39,16.43C460.15,16.14 459.88,15.86 459.68,15.55C457.66,12.43 455.64,9.32 453.66,6.18C452.82,4.86 451.81,3.99 450.13,4.31C450.02,4.33 449.89,4.32 449.77,4.28C445.24,2.92 440.65,3.68 436.08,3.89C418.44,4.71 400.78,4.89 383.12,4.8C376.77,4.77 370.41,4.51 364.07,4.71C359.37,4.86 354.7,5.66 350,6.01C344.35,6.43 338.68,6.66 333.02,7.02C326.53,7.43 320.04,7.89 313.54,8.31C304.97,8.86 296.4,9.37 287.83,9.93C280.34,10.42 272.86,11.02 265.37,11.45C259.95,11.76 254.52,11.96 249.09,12.07C234.71,12.36 220.33,12.41 205.96,12.86C194.31,13.22 182.67,14.01 171.03,14.63C160.46,15.19 149.9,15.76 139.33,16.38C131.52,16.84 123.71,17.37 115.89,17.88C110.38,18.24 104.9,18.06 99.39,17.42C95.89,17.01 92.3,17.35 88.75,17.32C83.48,17.27 78.21,17.18 72.94,17.14C71.59,17.13 70.23,17.19 68.88,17.23C67.83,17.26 67.11,17.84 66.52,18.67C65.67,19.87 64.79,21.05 63.92,22.25C63.83,22.2 63.74,22.16 63.65,22.11C64.32,20.65 65,19.19 65.72,17.62C65.18,17.62 64.71,17.65 64.25,17.61C63.6,17.55 63.36,17.83 63.05,18.43C61.34,21.71 59.52,24.94 57.71,28.16C57.5,28.54 57.03,28.78 56.49,28.93C57.23,27.41 57.97,25.88 58.73,24.36C59.4,23 60.08,21.64 60.79,20.3C61.41,19.13 61.86,17.96 60.99,16.58L66.19,16.58C66.69,15.85 67.05,15.24 67.5,14.72C67.65,14.54 68.13,14.46 68.34,14.57C68.51,14.66 68.64,15.15 68.54,15.36C68.07,16.45 68.62,16.58 69.52,16.58C77.03,16.54 84.54,16.44 92.05,16.52C96.4,16.57 100.74,17.02 105.09,17.09C110.11,17.16 115.15,17.15 120.17,16.92C129.26,16.51 138.35,15.97 147.44,15.4C156.13,14.85 164.8,14.12 173.49,13.6C181.18,13.14 188.88,12.74 196.58,12.52C209,12.18 221.43,12.15 233.84,11.73C246.65,11.3 259.45,10.54 272.25,9.94C279.87,9.58 287.49,9.35 295.11,8.91C302.05,8.51 308.97,7.87 315.9,7.43C325.42,6.83 334.96,6.37 344.48,5.76C349.38,5.45 354.27,4.98 359.16,4.5C366.93,3.74 374.71,3.82 382.5,3.97C387.09,4.06 391.68,3.82 396.27,3.67C406.65,3.35 417.03,3.02 427.4,2.65C432.03,2.48 436.65,2.22 441.28,1.97C441.81,1.94 442.53,1.84 442.83,1.49C443.71,0.45 444.86,0.48 446,0.44C448.98,0.35 451.85,0.92 454.7,1.83C456.95,2.55 458.13,4.02 458.87,6.15C461.08,12.5 465.18,17.56 469.98,22.12C475.65,27.51 482.18,31.79 488.43,36.43C493.5,40.19 498.57,43.96 503.76,47.54C505.26,48.58 506.98,49.29 508.26,50.67C508.39,50.81 508.84,50.77 509.09,50.68C509.65,50.48 510.18,50.19 510.71,49.94C510.77,50.03 510.86,50.11 510.84,50.15C510.17,52.23 510.15,52.26 511.99,53.43C513.711,54.537 515.491,55.552 517.32,56.47C517,56.02 516.69,55.57 516.26,54.97C517.59,55.06 518.76,55.13 520.05,55.22L520.05,58.28C521.11,58.4 522.05,58.51 523.26,58.65C523.26,59.47 523.25,60.32 523.26,61.18C523.29,63.22 523.28,65.26 523.39,67.29C523.51,69.42 524.39,71.11 526.42,72.1C527.08,72.43 527.67,72.97 528.18,73.52C528.46,73.83 528.75,74.51 528.6,74.76C528.36,75.14 527.77,75.33 527.3,75.53C526.95,75.68 526.27,75.67 526.24,75.84C526.14,76.34 526.13,76.97 526.36,77.39C526.7,78 527.28,78.47 527.75,79C526.81,78.84 525.87,78.69 524.93,78.53C523.08,78.22 522.32,77.4 522.11,75.41C522.75,75.62 523.36,75.81 523.96,76C524.64,74.49 524.45,73.59 523.27,72.47C522.95,73.1 522.63,73.72 522.31,74.35C521.16,74.09 520.11,73.86 519.07,73.63C517.97,73.38 517.39,73.85 517.26,74.93C517.12,76 516.96,77.06 516.86,78.13C516.7,79.88 517.32,80.75 519.06,80.85C521.84,81.01 524.63,81 527.41,81.06C527.82,81.07 528.22,81.06 528.74,81.06C528.39,80.16 528.08,79.53 527.77,78.9ZM486.3,235.18L486.3,237.06C487.07,237.1 487.78,237.19 488.49,237.17C489.32,237.15 489.83,236.69 489.88,235.84C489.97,234.29 490.09,232.74 490.07,231.2C490.07,230.85 489.57,230.27 489.24,230.22C488.68,230.14 487.88,229.81 487.61,230.85C487.31,232 486.87,233.1 486.48,234.23C486.51,233.71 486.53,233.2 486.56,232.68C486.59,232.09 486.76,231.47 486.63,230.91C486.54,230.54 486.04,230.26 485.73,229.95C485.5,230.27 485.13,230.57 485.07,230.92C484.8,232.4 484.58,233.9 484.42,235.4C484.38,235.83 484.61,236.29 484.77,236.98C485.44,236.2 485.87,235.69 486.3,235.18ZM435.5,78.73C431.99,77.4 428.39,78.14 424.82,78.3C423.14,78.38 421.47,78.64 419.62,78.84C420.52,80.73 422.02,80.65 423.56,80.74C421.38,81.78 420.47,81.64 419,80.07C418.23,79.25 417.33,78.92 416.2,79.05C414.97,79.2 413.73,79.24 412.5,79.37C409.45,79.68 406.41,80 403.18,80.34C403.29,81.16 403.2,81.95 403.51,82.52C403.83,83.1 404.53,83.48 405.03,83.92C403.17,84.27 402.7,84 401.91,81.69C401.62,80.83 401.26,80.47 400.32,80.56C395.99,80.99 391.66,81.36 387.33,81.8C387.04,81.83 386.6,82.18 386.54,82.45C386.4,83.14 386.39,83.88 386.41,84.59C386.44,85.47 386.83,85.92 387.85,85.87C389.8,85.79 391.77,85.79 393.72,85.87C394.76,85.91 395.29,85.66 395.27,84.53C395.26,83.9 395.44,83.27 396.34,83.23C396.42,83.47 396.49,83.65 396.53,83.84C396.93,85.63 396.93,85.65 398.8,85.57C402.63,85.41 406.46,85.26 410.28,85.03C416.89,84.62 423.5,84.13 430.12,83.71C431.67,83.61 433.11,83.48 433.38,81.57C435.65,82.2 436.09,82.03 437.05,80.23L435.43,78.7C435.86,78.79 436.29,78.84 436.71,78.97C438.7,79.55 440.34,78.83 441.83,77.5C440.01,77.54 438.21,77.69 436.43,77.96C436.11,77.99 435.82,78.46 435.5,78.73ZM501.18,223.52C501.22,223.16 501.25,222.97 501.26,222.77C501.77,210.01 501.99,197.22 503.33,184.51C504.35,174.83 504.66,165.08 506.36,155.45C507.54,148.77 508.16,142 508.94,135.25C509.91,126.92 510.75,118.58 511.72,110.25C512.61,102.56 513.59,94.87 514.5,87.18C514.71,85.42 514.77,83.64 514.91,81.83C513.99,81.71 513.36,81.57 512.72,81.56C500.86,81.46 488.99,81.14 477.13,81.37C467,81.57 456.87,82.4 446.75,83.01C443.6,83.2 440.46,83.53 437.34,83.92C435.31,84.18 434.5,85.12 434.19,87.11C433.81,89.53 433.79,91.89 435.28,94.04C435.04,94.23 434.87,94.42 434.66,94.5C433.5,94.97 433.26,95.79 433.27,97.03C433.33,101.66 433.25,106.3 433.18,110.93C433.07,118.39 432.81,125.86 432.84,133.32C432.89,144.26 433.21,155.2 433.28,166.14C433.31,171.85 433.13,177.56 432.88,183.27C432.65,188.57 432.07,193.85 432.74,199.17C433.04,201.53 432.96,203.94 432.99,206.33C433.01,207.95 432.71,209.61 432.93,211.2C434.04,219.32 434.12,227.45 433.3,235.57C432.63,242.21 433.57,248.53 436.28,254.61C436.95,256.12 438.04,256.96 439.6,257.45C447.02,259.79 454.7,260.09 462.36,260.04C466.84,260.01 471.3,258.97 475.79,258.61C480.76,258.21 485.75,258.04 490.74,257.79C493.25,257.66 495.76,257.61 498.27,257.43C498.65,257.4 499.23,256.96 499.31,256.62C499.69,255.04 500.08,253.43 500.17,251.81C500.45,246.63 500.61,241.44 500.79,236.25C500.89,233.34 500.99,230.42 501.02,227.51C501.04,225.6 500.45,224.75 498.64,224.5C496.75,224.24 494.83,224.28 492.92,224.22C492.69,224.21 492.29,224.39 492.24,224.55C491.88,225.81 491.55,227.08 491.3,228.36C491.16,229.07 491.49,229.42 492.3,229.46C493.65,229.52 495.01,229.67 496.34,229.92C496.97,230.04 497.53,230.5 498.39,230.94C496.9,231.65 495.84,231.33 494.77,231.01C493.89,230.75 493.02,230.46 492.12,230.33C491.85,230.29 491.29,230.68 491.22,230.96C490.91,232.28 490.65,233.62 490.51,234.96C490.33,236.67 490.57,236.92 492.26,237.34C493.06,237.54 493.84,237.77 494.08,238.84C493.1,238.79 492.22,238.79 491.35,238.69C490.63,238.6 490.24,238.89 490.22,239.55C490.17,240.85 490.21,242.16 490.21,243.53C491.92,243.73 493.79,243.46 495.11,245.2C493.49,244.98 492.02,244.78 490.39,244.55C490.91,245.38 491.32,246.03 491.76,246.74L488.92,248.82C488.16,245.99 486.05,245.71 483.7,245.73C482.03,245.74 480.35,245.56 478.67,245.53C476.93,245.49 475.19,245.52 473.55,245.52C473.02,247.63 473.44,249.27 474.64,250.72C473.53,251.13 473.31,251.02 473.11,249.93C472.86,248.49 472.65,247.04 472.42,245.52C470.82,245.7 469.33,245.86 467.83,246.03C467.79,246.8 467.77,247.41 467.74,248.02L467.56,248.05C467.3,247.41 467.04,246.77 466.8,246.16C462.91,246.39 462.91,246.39 462.4,249.66C462.04,248.53 461.75,247.61 461.45,246.64C460.25,246.74 459.13,246.77 458.03,246.95C457.66,247.01 457.22,247.37 457.05,247.72C456.57,248.66 455.63,248.98 454.75,248.38C454.29,248.07 453.83,247.75 453.37,247.44C453.26,247.59 453.21,247.7 453.12,247.78C452.77,248.1 452.42,248.41 452.07,248.72C451.89,248.29 451.59,247.86 451.56,247.42C451.36,244.95 451.2,242.48 451.07,240.01C451.01,238.9 450.77,237.7 451.09,236.68C451.89,234.1 451.87,231.47 451.95,228.85C452.18,221.47 452.31,214.08 452.5,206.69C452.51,206.14 452.75,205.59 452.88,205.03C453.05,205.02 453.23,205.02 453.4,205.01C453.61,206.15 454.02,207.29 454,208.42C453.95,210.73 453.64,213.03 453.49,215.34C453.07,221.79 452.75,228.25 452.24,234.7C451.98,237.9 452.15,240.99 453.14,244.04C453.37,244.74 453.66,245.09 454.43,245.12C456.38,245.2 458.34,245.36 460.29,245.45C461.63,245.51 461.99,245.14 462.08,243.82C462.16,242.6 462.25,241.38 462.33,240.17C462.42,240.18 462.52,240.18 462.61,240.19L462.61,245.28L466.58,244.63C466.75,243.57 466.89,242.75 467.02,241.94C467.13,241.89 467.23,241.83 467.34,241.78C467.95,243.26 469.16,243.14 470.33,243.14L475.14,243.14C474.76,243.45 474.51,243.64 474.27,243.84C474.32,243.97 474.37,244.09 474.42,244.22C475.04,244.02 476.06,243.98 476.21,243.6C476.86,241.94 477.33,240.2 477.71,238.46C478.04,236.99 478.15,235.46 478.38,233.97C478.93,230.42 479.45,226.86 480.1,223.33C480.41,221.66 481.3,220.02 479.41,218.6C481.56,217.9 481.66,216.31 481.61,214.64C481.57,213.24 480.4,213.31 479.34,212.96C479.8,212.85 480.16,212.85 480.4,212.69C480.81,212.42 481.15,212.04 481.52,211.71C481.1,211.38 480.71,210.83 480.26,210.77C479.12,210.63 477.96,210.73 476.76,210.73C476.56,212 476.35,213.17 476.21,214.35C475.98,216.25 475.97,218.19 475.54,220.04C475.03,222.24 475.12,222.69 477.17,223.35C476.64,223.83 475.45,223.1 475.33,224.38C475.19,225.8 475.02,227.22 474.86,228.71C475.49,228.83 476.04,228.94 476.59,229.04C475.17,229.35 474.28,230.1 474.12,231.6C473.99,230.9 473.87,230.2 473.74,229.49C473.18,229.46 472.67,229.44 472.16,229.42C472.33,229.12 472.5,228.99 472.67,229C474.02,229.1 474.26,228.37 474.34,227.18C474.63,223.16 475.05,219.15 475.41,215.13C475.54,213.72 475.65,212.3 475.77,210.86C474.18,210.86 472.75,210.87 471.32,210.86C470.42,210.85 470.05,211.32 469.97,212.18C469.9,212.95 469.74,213.71 469.62,214.47C469.53,214.47 469.45,214.46 469.36,214.46C469.14,213.26 468.93,212.06 468.68,210.68C469.67,209.73 469.66,209.13 468.38,208.51C468.62,207.88 468.88,207.27 469.08,206.63C469.8,204.35 469.4,203.77 467.08,203.62C466.96,203.61 466.84,203.59 466.72,203.6C465.36,203.63 464.89,204.06 464.96,205.42C465.06,207.31 465.24,209.2 465.38,211.08C465.39,211.23 465.29,211.38 465.27,211.53C465,213.37 464.68,215.21 464.48,217.06C464.26,219.13 464.17,221.22 464.02,223.3C463.9,223.3 463.78,223.31 463.66,223.31C463.61,222.98 463.5,222.66 463.51,222.33C463.72,218.59 464.03,214.84 464.15,211.1C464.22,208.92 464.01,206.73 463.91,204.55C463.88,203.96 463.59,203.62 462.92,203.65C461.45,203.71 459.98,203.73 458.5,203.76C457.6,203.78 457.35,204.26 457.47,205.09C457.64,206.32 457.82,207.55 457.87,208.78C457.94,210.28 457.89,211.79 457.89,213.29C457.78,213.3 457.67,213.3 457.56,213.31C457.38,211.78 457.27,210.24 457,208.73C456.75,207.33 456.38,205.94 455.93,204.59C455.82,204.26 455.18,203.94 454.77,203.93C453.34,203.9 451.89,203.96 450.46,204.08C448.04,204.29 445.57,204.39 443.69,206.32C443.16,206.87 442.63,206.6 442.2,206.01C443.54,204.26 445.29,203.2 447.4,203.07C452.26,202.76 457.13,202.6 461.99,202.39C464.07,202.3 464.07,202.32 464.8,200.36C464.82,200.3 464.92,200.27 465.14,200.12C465.27,200.56 465.45,200.93 465.5,201.32C465.62,202.28 466.06,202.62 467.08,202.59C468.59,202.54 470.11,202.68 471.61,202.82C473.15,202.96 474.71,203.45 476.22,203.32C477.53,203.21 478.6,203.4 479.85,203.8C482.73,204.72 483.7,204.67 483.93,201.87C483.96,201.57 484.25,201.28 484.42,200.99C484.55,201.03 484.67,201.07 484.8,201.11C484.75,201.64 484.71,202.16 484.66,202.69C484.5,204.28 484.54,204.39 486.17,204.53C487.76,204.67 489.35,204.74 490.95,204.73C493.29,204.72 494.49,207.3 493.51,209.25C493.13,209.99 493.13,210.94 493,211.8C492.83,212.89 493.35,213.47 494.38,213.82C495.16,214.09 495.86,214.59 496.59,214.99C496.53,215.12 496.47,215.24 496.42,215.37C495.36,215.12 494.3,214.88 493.24,214.63C492.5,216.27 491.9,217.8 493.75,219.23C491.96,219.96 491.89,221.35 492.11,222.79C492.15,223.06 492.57,223.46 492.83,223.46C495.56,223.54 498.32,223.52 501.18,223.52ZM39.64,224.57L39.64,220.23C38.89,220.01 38.2,219.8 37.51,219.6L37.54,219.34C38.25,219.15 38.95,218.96 39.87,218.72C39.62,215.27 39.37,211.85 39.12,208.43L39.66,208.25C40.01,208.95 40.45,209.62 40.67,210.36C40.93,211.19 40.94,212.09 41.17,212.93C41.25,213.2 41.72,213.57 41.98,213.54C44.85,213.26 47.71,212.91 50.39,212.6C51.16,212.82 51.86,213.21 52.56,213.2C57.31,213.16 62.07,213.16 66.82,212.92C71.28,212.69 75.73,212.2 80.18,211.78C81.5,211.65 82.48,210.94 82.93,209.61C83.03,209.32 83.3,209.1 83.55,208.78C84.68,210.23 85.12,211.47 84.35,213.2C83.68,214.73 83.64,216.53 83.26,218.2C82.86,219.92 83.21,220.41 84.98,220.37C85.37,220.36 85.76,220.28 86.25,220.21L86.25,210.23L86.31,210.23C86.51,215.2 86.7,220.17 86.9,225.14L86.85,225.14C86.67,223.86 86.48,222.58 86.25,220.96C85.08,221.51 83.91,221.74 83.26,222.45C82.34,223.44 83.1,224.6 84.84,225.27C85.2,225.41 85.47,225.75 85.79,226C85.48,226.21 85.17,226.42 84.86,226.62C84.73,226.7 84.57,226.74 84.42,226.8C82.48,227.52 82.42,227.63 82.81,229.9L93.46,229.9C93.42,229.07 93.4,228.43 93.36,227.8C93.23,225.77 93.04,223.74 92.99,221.7C92.81,214.71 92.73,207.72 92.52,200.74C92.44,197.99 92.17,195.24 91.88,192.51C91.33,187.39 90.64,182.28 90.13,177.16C89.43,170.13 88.84,163.08 88.19,156.05C88.14,155.54 87.97,155.04 87.85,154.54C87.72,154.56 87.58,154.57 87.45,154.59C86.65,172.23 86.08,189.87 86.22,207.54C86.12,207.31 86.07,207.08 86.07,206.85C86.07,197.87 85.97,188.88 86.11,179.9C86.25,170.44 86.84,160.98 86.8,151.52C86.77,143.38 86.14,135.25 85.74,127.11C85.7,126.24 85.42,125.38 85.21,124.3C84.96,124.61 84.87,124.68 84.84,124.78C84.4,126.16 84.01,127.56 83.51,128.92C82.96,130.4 81.67,130.93 79.69,130.98C75.52,131.09 71.34,131.25 67.18,131.53C63.04,131.81 58.91,132.36 54.77,132.61C49.91,132.9 45.03,132.91 40.17,133.18C38.45,133.28 36.72,133.69 35.06,134.17C34.23,134.41 33.49,134.87 32.72,134.26C31.95,133.65 31.69,132.79 31.92,131.71C35.2,131.55 38.46,131.41 41.72,131.23C48.82,130.83 55.95,130.72 63,129.9C68.03,129.32 73.01,128.44 78.1,128.54C79.99,128.57 81.07,127.28 81.03,125.22C79.5,125.54 78,126.03 76.47,126.13C73.53,126.33 70.57,126.19 67.63,126.4C63.09,126.71 58.57,127.37 54.02,127.56C46.88,127.86 39.75,128.11 32.66,129.12C31.41,129.3 30.7,129.55 30.7,130.96C30.7,131.9 30.14,132.47 29.02,132.34C29.07,131.29 29.17,130.3 29.16,129.31C29.13,127.41 29.76,126.34 31.49,125.58C32.12,125.3 32.83,125.18 33.13,125.96C33.65,127.31 34.63,127.39 35.85,127.29C38.79,127.04 41.74,126.85 44.69,126.66C55.69,125.93 66.68,125.25 77.67,124.46C80.2,124.28 82.7,123.75 85.26,123.37C85.15,122.07 85.08,120.96 84.96,119.85C84.52,115.79 84.21,111.73 85.42,107.73C85.9,106.13 86.32,104.5 86.68,102.86C86.91,101.8 86.99,100.71 87.18,99.4C83.97,99.4 81.02,99.37 78.07,99.41C74.32,99.46 70.56,99.65 66.81,99.65C62.42,99.65 58.02,99.47 53.63,99.44C50,99.41 46.36,99.46 42.73,99.52C39.94,99.57 37.15,99.68 34.36,99.8C33.92,99.82 33.49,100.01 33.15,100.1C33.15,100.86 33.39,101.65 33.1,101.95C32.37,102.71 31.45,103.3 30.52,103.82C30.26,103.97 29.74,103.64 29.34,103.53C29.58,103.19 29.75,102.66 30.07,102.55C31.11,102.2 31.31,101.59 30.94,100.6C30.54,100.69 30.19,100.75 29.85,100.84C26.62,101.67 26.62,101.67 26.57,104.99C26.56,105.43 26.51,105.87 26.48,106.3C26.36,108.45 26.08,110.6 26.14,112.75C26.29,118.34 26.58,123.92 26.82,129.5C27.06,135.12 27.31,140.75 27.54,146.37C27.57,147.01 27.42,147.66 27.35,148.31C27.25,148.3 27.15,148.29 27.05,148.29C27.01,148.02 26.95,147.75 26.94,147.48C26.75,142.17 26.64,136.86 26.35,131.56C25.95,124.35 25.43,117.14 24.93,109.94C24.81,108.3 24.5,108.06 22.53,107.59L22.53,110L22.62,126.17C22.66,132.64 22.53,139.12 22.78,145.58C22.92,149.23 23.76,152.85 24.15,156.5C24.74,161.98 25.19,167.47 25.73,172.95C26.56,181.33 27.46,189.71 28.22,198.1C28.47,200.87 28.25,203.69 28.43,206.47C28.72,210.96 29.29,215.44 29.51,219.94C29.84,226.59 29.82,233.26 30.21,239.91C30.66,247.64 31.55,255.34 31.94,263.06C32.13,266.73 34.06,268.32 37.18,269.34C39.88,270.22 42.5,269.73 45.1,269.16C48.59,268.39 52.04,267.71 55.64,268.36C56.87,268.58 58.21,268.54 59.44,268.31C67.84,266.76 76.22,265.14 84.6,263.52C86.33,263.18 86.65,262.73 86.77,260.9C86.82,260.1 86.93,259.3 87.01,258.51C87.19,258.5 87.37,258.49 87.55,258.47C87.73,259.76 87.91,261.06 88.09,262.33C89.81,262.36 90.57,261.94 90.98,260.35C92.16,255.77 93.08,251.17 91.94,246.4C91.62,245.06 91.63,243.64 91.48,242.26L91.74,242.23C92.15,243.19 92.57,244.16 93.08,245.36C93.22,244.93 93.28,244.8 93.31,244.65C94.17,240.33 94.13,236 93.41,231.67C93.37,231.4 92.85,231.03 92.54,231.02C91.23,230.95 89.9,230.99 88.58,230.99L82.7,230.99L82.7,238.1C83.95,238.25 85.4,237.73 86.25,239.29C84.84,239.22 83.57,239.17 82.09,239.1C81.96,242.38 81.82,245.55 81.74,248.73C81.73,249.05 82.07,249.49 82.37,249.68C83.08,250.12 83.87,250.45 84.96,250.99C83.22,251.41 81.99,251.92 81.75,253.55C81.72,253.75 81.32,253.89 80.96,254.16C80.72,253.1 80.52,252.24 80.32,251.33C79.15,251.55 78.09,251.73 77.04,251.96C70.76,253.29 64.45,254.54 58.21,256.05C56.7,256.42 55.29,256.8 53.7,256.72C51.16,256.58 48.61,256.71 46.06,256.72C44.32,256.73 42.58,256.72 40.63,256.72C40.78,258.68 40.96,260.58 41.05,262.48C41.08,263.12 40.92,263.8 40.71,264.41C40.63,264.63 40.13,264.7 39.82,264.84C39.71,264.56 39.52,264.28 39.52,264C39.51,263.49 39.63,262.97 39.68,262.45C39.83,260.86 40.12,259.23 39.15,257.8C38.74,257.19 38.82,256.75 39.11,256.17C39.89,254.67 40.06,253.15 39.11,251.6C38.65,251.74 38.22,251.88 37.78,252.02L37.63,251.75C38.02,251.47 38.48,251.26 38.79,250.91C39.18,250.47 39.71,249.94 39.74,249.42C39.83,247.55 39.77,245.67 39.7,243.79C39.68,243.19 39.48,242.6 39.36,242C39.28,242 39.19,242.01 39.11,242.01C38.95,242.39 38.78,242.78 38.57,243.27C37.75,243.07 36.94,242.87 36.13,242.67C36.12,242.54 36.12,242.42 36.11,242.29C37.02,241.95 37.94,241.64 38.83,241.24C39.14,241.1 39.57,240.76 39.58,240.5C39.64,238.52 39.61,236.54 39.61,234.48C37.75,234.44 35.94,234.88 34.38,233.38C35.98,233.04 37.44,232.79 38.85,232.39C39.22,232.29 39.66,231.81 39.76,231.42C40.14,230 39.11,229.4 37.95,228.95C40.1,227.44 40.18,227.28 39.63,225.52C36.42,226.09 36.42,226.09 35.13,225.43C36.65,225.11 38.09,224.85 39.64,224.57ZM396.85,86.3L396.85,87.77C396.96,97.36 396.62,106.93 395.89,116.5C395.49,121.83 395.47,127.19 395.38,132.54C395.3,136.97 395.28,141.4 395.4,145.83C395.5,149.18 395.93,152.52 396.1,155.86C396.22,158.33 396.12,160.81 396.18,163.29C396.25,166.72 396.47,170.14 396.45,173.57C396.43,177.44 395.95,181.32 396.18,185.17C396.4,188.86 396.15,192.42 395.18,195.95C394.76,197.47 394.67,198.9 395.56,200.32C396.09,201.16 396.44,202.11 396.9,202.99C399.82,208.6 403.27,213.77 408.54,217.51C410.85,219.15 412.07,221.66 413.63,223.94C419.53,232.58 425.55,241.14 431.53,249.72C431.72,249.99 431.95,250.24 432.34,250.72C432.28,249.98 432.24,249.55 432.22,249.12C432.02,244.9 431.47,240.66 431.7,236.46C432.27,226.39 432.07,216.35 431.5,206.3C431.21,201.2 430.87,196.09 430.97,190.99C431.18,180.09 431.87,169.21 431.96,158.31C432.05,148.69 431.51,139.07 431.42,129.45C431.37,124.18 431.64,118.92 431.79,113.65C431.94,108.02 432.08,102.39 432.3,96.77C432.39,94.41 432.48,92.12 431.72,89.79C431.37,88.72 431.78,87.38 431.91,86.17C431.97,85.61 432.2,85.06 432.42,84.29C420.48,84.95 408.77,85.62 396.85,86.3ZM44.42,229.37C43.38,229.57 42.64,229.72 41.9,229.87C40.64,230.13 40.33,231.07 41.06,232.18C41.24,232.45 41.26,232.9 41.21,233.24C41.11,233.82 40.85,234.38 40.74,234.96C40.37,236.92 40.85,237.77 42.7,238.49C43.26,238.71 43.84,238.89 44.41,239.09C44.39,239.19 44.37,239.29 44.35,239.38L40.7,239.38L40.7,245.91C41.83,245.65 42.88,245.4 44.07,245.13C43.4,246.9 41.99,246.78 40.75,246.88L40.75,254.62C42.33,254.76 43.84,254.97 45.35,255.01C48.78,255.1 52.23,255.4 55.63,255.07C59.31,254.72 62.94,253.8 66.57,253.03C70.67,252.16 74.74,251.17 78.83,250.26C79.95,250.01 80.67,249.58 80.64,248.24C80.61,246.53 80.8,244.81 80.85,243.1C80.89,241.88 80.86,240.66 80.86,239.39C77.91,238.85 75.04,239.56 72.11,239.84L74.6,238.79L74.17,237.72C76.72,237.02 79.43,239.19 81.85,237.06C79.31,235.3 76.46,235.52 73.69,235.41C73.7,235.31 73.7,235.2 73.71,235.1L81.4,235.1L81.4,230.85L75.89,230.85C75.88,230.74 75.88,230.62 75.87,230.51C76.92,230.4 77.97,230.26 79.03,230.18C81.75,229.97 82.04,229.61 81.72,226.92C81.62,226.05 81.32,225.5 80.34,225.51C79.66,225.51 78.99,225.42 78.31,225.36L74.45,224.97C74.46,224.92 74.46,224.86 74.47,224.81L81.82,224.45L81.82,221.67L73.61,221.67C73.96,221.3 74.33,221.18 74.71,221.13C76.73,220.86 78.74,220.57 80.77,220.35C81.69,220.25 82.22,220.01 82.11,218.9C81.99,217.75 82.08,216.59 82.08,215.43L82.08,212.66C71.68,214.7 61.31,213.72 51.07,214.7C51,214.97 50.93,215.16 50.91,215.36C50.55,219.58 50.17,223.79 49.87,228.02C49.84,228.44 50.33,228.89 50.56,229.31C48.84,231.24 49.46,233.84 48.71,236.53C50.27,236.4 51.51,236.26 52.75,236.19C53.75,236.13 54.09,235.57 54.17,234.64C54.47,231.24 54.79,227.83 55.15,224.43C55.24,223.59 55.38,222.69 56.47,222.3L54.81,235.92C55.34,236.05 55.74,236.15 56.21,236.27C54.61,237.11 54.37,238.32 55.47,239.5C54.34,241.37 54.32,246.64 55.39,248.09C55.22,248.62 55.01,249.08 54.92,249.56C54.83,250.03 54.86,250.53 54.84,251.01L54.59,251.01C54.5,250.3 54.41,249.6 54.31,248.83C53.78,248.74 53.26,248.66 53.04,248.63C53.4,247.8 54.01,247.01 54.03,246.21C54.08,244.25 53.86,242.29 53.74,240.33C53.74,240.26 53.68,240.19 53.59,239.99C52.69,240.08 51.75,240.26 50.81,240.24C49.33,240.21 48.15,240.58 47.62,242.11C47.61,242.14 47.5,242.14 47.36,242.17C47.33,241.04 46.72,240.53 45.53,240.62C47.56,240.27 47.32,238.59 47.8,237.3C47.2,237.14 46.71,237 46.13,236.85C48.33,236.01 48.57,235.67 48.6,234.18C48.62,233.12 48.75,232.05 49,231.02C49.23,230.05 49.03,229.52 48,229.48C47.09,229.44 46.18,229.47 45.16,229.47C46.45,228.7 48.1,229.37 49.14,228.09C48.65,227.76 48.31,227.52 48.25,227.49C48.59,226.81 49.02,226.29 49.1,225.72C49.4,223.47 49.61,221.21 49.82,218.94C49.92,217.79 49.99,216.64 49.98,215.49C49.98,215.21 49.6,214.71 49.39,214.7C46.83,214.61 44.27,214.68 41.84,215.62C41.56,215.73 41.23,216.04 41.16,216.31C40.86,217.48 40.6,218.68 41.59,219.69C40.42,221.81 40.51,224.04 40.83,226.26C41.2,228.8 41.27,228.79 43.79,229.23C43.86,229.24 43.98,229.27 44.42,229.37ZM93.87,258.06C94.09,257.97 94.2,257.96 94.23,257.9C96.21,254.04 98.66,250.33 100.06,246.26C102.39,239.48 104.05,232.48 105.97,225.56C106.12,225.04 106.13,224.44 106.07,223.9C105.85,222.12 105.54,220.35 105.3,218.57C104.36,211.37 103.33,204.18 102.55,196.96C101.93,191.25 101.59,185.5 101.22,179.77C100.68,171.41 100.14,163.04 99.75,154.67C99.55,150.52 99.82,146.35 99.63,142.21C99.17,132.59 99.15,122.98 99.39,113.35C99.52,108.45 99.15,103.54 98.96,98.63C98.94,98.21 98.55,97.47 98.29,97.46C96.59,97.35 94.89,97.41 93.04,97.41L93.04,101.41C92.28,100.81 91.71,100.36 90.93,99.76C90.81,103.44 90.61,106.82 90.61,110.21C90.62,125.11 90.25,140.01 91.27,154.89C92.07,166.64 92.85,178.39 93.75,190.13C94.73,202.87 96.24,215.57 95.98,228.38C95.97,229.02 96.37,229.66 96.58,230.3L97.02,230.24C95.41,232.78 96.02,235.6 95.92,238.31C95.9,238.87 96.38,239.45 96.6,240.03C96.85,240.71 97.34,241.45 97.23,242.07C96.84,244.22 96.42,246.39 95.68,248.43C94.53,251.55 94.44,254.79 93.87,258.06ZM516.19,61.13C515.5,61.07 514.88,60.92 514.27,60.97C509.18,61.41 504.1,61.94 499.01,62.34C490.41,63.01 481.81,63.63 473.21,64.21C469.23,64.48 465.18,64.25 461.26,64.87C450,66.64 438.67,67.54 427.3,67.98C425.86,68.04 424.42,68.03 422.99,68.12C421.84,68.19 420.6,68.41 420.27,69.68C419.85,71.3 419.71,72.98 419.42,74.81L421.04,74.81C424.64,74.8 428.23,74.78 431.83,74.77C433.49,74.76 433.99,74.37 434.41,72.73C434.62,71.92 434.72,71.06 435.07,70.32C435.22,69.99 435.88,69.9 436.3,69.71C436.37,70.11 436.59,70.56 436.48,70.91C436.16,72.03 435.72,73.12 435.26,74.37C440.23,74.78 444.99,75 449.83,74.49C449.71,71.96 449.15,69.4 451.55,67.59C452.27,68.36 452.22,69.16 451.9,69.99C451.63,70.7 451.29,71.39 451.1,72.11C450.71,73.59 451.31,74.56 452.83,74.79C453.77,74.94 454.73,74.93 455.69,74.91C465.63,74.8 475.57,74.64 485.46,73.38C490.49,72.74 495.54,72.31 500.57,71.68C501.46,71.57 502.48,71.14 503.11,70.53C504.01,69.66 504.98,69.41 506.13,69.4C510,69.36 513.88,69.32 517.75,69.23C518.68,69.21 519.6,68.99 520.7,68.85C520.16,66.55 519.67,64.5 519.19,62.45C519.05,62.47 518.91,62.48 518.77,62.5C518.32,64.44 517.88,66.39 517.45,68.25C515.78,68.21 515.5,67.4 515.72,66.05C515.99,64.52 516.03,62.96 516.19,61.13ZM107.09,218.42C107.31,218.44 107.54,218.47 107.76,218.49C108.01,217.19 108.36,215.89 108.48,214.58C108.77,211.52 108.77,208.42 109.21,205.39C110.08,199.36 109.99,193.46 108.68,187.45C107.43,181.7 106.75,175.8 106.17,169.93C105.3,161.07 104.76,152.18 104.02,143.31C103.68,139.25 103.03,135.22 102.83,131.16C102.58,125.98 102.7,120.78 102.57,115.59C102.45,110.84 102.24,106.09 102,101.35C101.94,100.08 101.6,98.83 101.4,97.57L100.95,97.57C100.84,97.95 100.65,98.34 100.64,98.72C100.5,102.55 100.3,106.38 100.28,110.21C100.24,117.52 100.24,124.83 100.36,132.14C100.53,142.56 100.69,152.99 101.09,163.4C101.67,178.61 102.98,193.76 105.21,208.82C105.69,212.05 106.45,215.23 107.09,218.42ZM437.91,83.09C438.55,83.09 438.94,83.12 439.32,83.09C442.82,82.82 446.32,82.55 449.82,82.27C464.32,81.15 478.85,80.72 493.39,80.63C500.06,80.59 506.73,80.75 513.41,80.81C515.04,80.82 515.62,80.1 514.87,78.64C514.33,77.61 513.43,76.6 512.43,76.01C510.14,74.66 507.55,74.56 504.98,74.97C499.67,75.8 494.46,76.67 488.95,76.16C484.18,75.71 479.23,76.53 474.42,77.19C469.19,77.91 464,78.63 458.69,78.44C457.11,78.38 455.5,78.97 453.9,79.25C453.08,79.39 452.21,79.74 451.44,79.58C448.28,78.91 445.25,79.65 442.19,80.18C440.45,80.47 439.11,81.38 437.91,83.09ZM403.93,75.81C405.24,75.75 406.39,75.7 407.54,75.65C410.33,75.54 413.13,75.49 415.92,75.29C416.55,75.25 417.54,74.86 417.7,74.4C418.36,72.46 418.78,70.44 419.31,68.31C418.75,68.31 418.44,68.29 418.13,68.31C412.87,68.64 407.59,68.8 402.36,69.38C397.53,69.91 392.75,70.88 387.95,71.71C387.55,71.78 386.94,72.19 386.89,72.52C386.7,73.8 386.69,75.1 386.6,76.52C391.58,76.33 396.44,76.16 401.31,75.96C402.25,75.92 402.86,75.36 403.07,74.43C403.28,73.5 403.48,72.56 403.68,71.62C403.89,70.65 404.39,70.48 405.23,71.05C404.79,72.63 404.38,74.15 403.93,75.81ZM322.65,85.01C323.26,85.01 323.74,85.03 324.21,85.01C329.15,84.82 334.1,84.63 339.04,84.43C342.59,84.29 346.13,84.12 349.68,83.97C350.49,83.94 351.25,83.77 351.37,82.81C351.53,81.52 351.61,80.22 351.75,78.56C341.93,78.97 332.31,79.37 322.65,79.78L322.65,85.01ZM321.2,77.15C321.88,78.4 322.51,79.26 323.95,79.15C326.77,78.95 329.59,78.79 332.42,78.7C337.96,78.51 343.51,78.28 349.05,78.27C351.61,78.27 352.32,77.58 351.43,74.6C351.39,74.45 351.29,74.32 351.25,74.24C349.09,74.24 346.97,74.11 344.87,74.27C342.09,74.49 339.34,75.08 336.56,75.25C332.06,75.53 327.55,75.55 323.05,75.77C319.83,75.93 316.61,76.26 313.39,76.49C312.61,76.55 311.81,76.5 311.03,76.5L311.03,79.84C313.34,79.71 315.53,79.54 317.72,79.47C319.35,79.44 321,79.55 321.2,77.15ZM186.77,81.82C186.68,83.07 186.56,84.22 186.54,85.37C186.52,86.36 187.06,86.76 188.07,86.71C192.41,86.52 196.76,86.35 201.1,86.22C203,86.16 204.9,86.21 206.79,86.21L206.79,80.79C200.12,81.13 193.52,81.47 186.77,81.82ZM229.93,84.9L236.91,84.9C236.91,84.96 236.92,85.02 236.92,85.08L230.28,85.95C230.5,87.58 231,87.98 232.39,87.96C235.78,87.9 239.17,87.87 242.56,87.8C243.33,87.78 244.09,87.65 244.91,87.56C244.73,86.54 244.59,85.73 244.44,84.88L241.37,84.88C242.08,84.58 242.82,84.53 243.55,84.39C243.84,84.33 244.24,84.12 244.35,83.88C245.07,82.25 243.94,80.45 242.18,80.47C239.47,80.49 236.75,80.54 234.04,80.64C232.67,80.69 231.3,80.87 229.93,81L229.93,84.9ZM227.7,80.76C226.92,80.76 226.25,80.75 225.58,80.76C222.27,80.79 218.96,80.86 215.66,80.84C213.79,80.83 211.91,80.69 210.04,80.61C209.34,80.58 208.66,80.78 208.61,81.56C208.52,83.01 208.59,84.46 208.59,85.99C215.04,85.76 221.36,85.54 227.71,85.32C227.7,83.76 227.7,82.37 227.7,80.76ZM385.23,76.49C385.35,74.8 385.45,73.28 385.58,71.45C380.65,71.88 375.92,72.27 371.21,72.74C370.8,72.78 370.17,73.38 370.11,73.78C369.96,74.88 370.06,76.02 370.06,77.25C375.23,76.99 380.17,76.74 385.23,76.49ZM89.44,101.79C89.28,101.76 89.11,101.74 88.95,101.71C88.83,102.91 88.62,104.1 88.6,105.3C88.44,114.08 88.25,122.86 88.21,131.64C88.19,135.98 88.38,140.33 88.67,144.67C88.81,146.76 89.38,148.82 89.76,150.89C89.69,134.5 90.53,118.13 89.44,101.79ZM126.08,90.07C126.08,88.39 126.09,86.84 126.08,85.28C126.07,83.9 125.69,83.58 124.33,83.75C121.83,84.06 119.33,84.34 116.84,84.69C116.46,84.74 115.98,84.97 115.77,85.27C114.91,86.48 114.55,87.87 114.68,89.35C114.7,89.63 115.07,90.08 115.32,90.11C118.86,90.5 122.4,90.65 126.08,90.07ZM369.96,77.91C369.88,79.1 369.71,80.13 369.76,81.15C369.8,81.87 369.95,82.65 371.1,82.53C375.47,82.08 379.84,81.7 384.21,81.26C384.46,81.24 384.88,80.97 384.89,80.8C384.95,79.63 384.92,78.45 384.92,77.24C379.84,77.48 374.99,77.69 369.96,77.91ZM53.22,92.76C52.56,93.78 51.94,94.73 51.27,95.77C55.61,95.77 59.75,95.79 63.9,95.75C64.95,95.74 65.38,95.13 65.03,94L63.47,94C61.78,93.99 61.34,93.66 61.18,91.94C61.07,90.68 61.16,89.41 61.16,88.24C60.92,88.1 60.85,88.04 60.78,88.03C59.55,87.95 58.31,87.86 57.08,87.81C55.51,87.75 55.06,88.17 55.03,89.79C55.02,90.38 55.1,90.98 55.21,91.57C55.38,92.55 55.6,93.51 55.86,94.79C54.84,94 54.06,93.4 53.22,92.76ZM482.09,229.68C482.81,229.37 484.12,229.22 484.41,228.6C485,227.32 485.05,225.79 485.32,224.36C484.26,224.14 483.2,223.9 482.13,223.69C481.98,223.66 481.76,223.66 481.67,223.75C481.34,224.05 480.86,224.35 480.77,224.73C480.4,226.28 480.15,227.85 479.86,229.42C479.41,231.84 478.97,234.25 478.49,236.87L480.73,236.87C483.19,236.87 483.2,236.87 483.72,234.52C483.85,233.94 483.97,233.35 484.05,232.76C484.35,230.55 484.02,230.09 482.09,229.68ZM478.07,237.36C478.07,238.94 478.03,240.36 478.09,241.78C478.12,242.66 478.4,243.37 479.57,242.96C479.89,242.85 480.33,242.83 480.63,242.96C482.43,243.75 484.3,243.53 486.17,243.51C489.35,243.49 489.41,243.46 489.35,240.2C489.33,239.27 489.27,238.29 488.05,238.09C487,237.91 485.88,237.54 485.49,239.13C485.42,239.42 484.94,239.76 484.62,239.8C484.43,239.82 484.12,239.32 483.96,239.01C483.69,238.47 483.7,237.77 482.79,237.73C481.35,237.67 479.93,237.51 478.07,237.36ZM353.07,77.73C354.42,77.73 355.57,77.76 356.72,77.72C359.99,77.6 363.26,77.5 366.52,77.29C367.18,77.25 368.24,76.86 368.37,76.42C368.65,75.46 368.46,74.35 368.46,73.21C367.71,73.32 367.25,73.43 366.79,73.46C364.13,73.63 361.48,73.83 358.82,73.93C356.89,74 354.95,73.94 352.89,73.94C352.96,75.38 353.01,76.52 353.07,77.73ZM135.13,90.22C138.08,90.54 140.9,90.5 143.65,89.9L143.65,83.73C141.45,83.73 139.35,83.76 137.25,83.72C136.14,83.7 135.6,84.3 135.49,85.26C135.31,86.87 135.25,88.5 135.13,90.22ZM481.67,218.41C484.46,218.41 487.08,218.43 489.7,218.4C491.22,218.38 491.79,217.81 491.9,216.32C492.04,214.47 491.91,214.28 490.15,213.94C489.69,213.85 489.23,213.78 488.73,213.7C488.37,214.7 488.03,215.65 487.61,216.83C487.2,215.11 487.14,213.69 487.68,212.24C487.81,211.9 487.41,210.99 487.16,210.96C485.97,210.79 484.74,210.74 483.54,210.84C483.24,210.87 482.9,211.57 482.78,212.01C482.74,212.15 483.34,212.49 483.66,212.71C483.85,212.83 484.08,212.89 484.43,213.03C483.67,213.2 483.07,213.33 482.48,213.46C482.23,215.06 481.98,216.55 481.67,218.41ZM386.49,81.12C390.57,80.73 394.46,80.35 398.35,79.97C399.22,79.88 400.09,79.78 400.96,79.64C402.1,79.45 402.09,78.66 402,77.73C401.91,76.81 401.55,76.59 400.63,76.65C397.89,76.84 395.14,76.89 392.39,77.01C390.53,77.09 388.67,77.2 386.75,77.3C386.65,78.58 386.58,79.76 386.49,81.12ZM184.78,81.72C182.12,82.04 179.59,82.16 177.15,82.67C174.03,83.32 174.79,82.7 174.69,85.87C174.66,86.89 175.18,87.32 176.18,87.26C177.69,87.17 179.21,87.09 180.72,87C182.06,86.91 183.41,86.81 184.78,86.71L184.78,81.72ZM290.37,80.84C290.37,80.32 290.38,79.97 290.37,79.62C290.36,79.25 290.33,78.87 290.3,78.45C284.15,79.28 278,78.57 271.97,80.08C272.09,80.89 272.19,81.55 272.3,82.32C278.34,81.82 284.28,81.34 290.37,80.84ZM72.78,95.76C72.96,93.65 73.11,91.7 73.3,89.77C73.36,89.14 73.17,88.73 72.54,88.68C71.09,88.57 69.63,88.48 68.17,88.47C67.91,88.47 67.47,88.91 67.43,89.19C67.19,90.91 66.96,92.65 66.89,94.38C66.85,95.44 67.57,96.1 68.65,96.08C70,96.05 71.34,95.88 72.78,95.76ZM133.94,90.4L133.94,83.74L127.24,83.74C127.24,84.59 127.18,85.27 127.25,85.94C127.39,87.19 127.55,88.45 127.81,89.68C127.87,89.96 128.34,90.36 128.63,90.37C130.38,90.43 132.13,90.4 133.94,90.4ZM208.71,86.75C209.33,88.38 210.11,88.88 211.63,88.72C212.34,88.64 213.05,88.5 213.77,88.49C217.92,88.4 222.07,88.36 226.23,88.27C227.17,88.25 228.12,88.13 229.09,88.05C228.41,85.96 228.41,85.95 226.42,85.97C225.22,85.98 224.03,85.99 222.83,86.05C218.14,86.27 213.44,86.51 208.71,86.75ZM299.97,81.33C297.71,81.33 295.56,81.3 293.41,81.34C292.69,81.35 291.9,81.51 291.76,82.41C291.63,83.31 291.59,84.23 291.61,85.14C291.62,85.36 292.03,85.76 292.26,85.76C295.04,85.8 297.82,85.79 300.76,85.79C300.48,84.21 300.23,82.78 299.97,81.33ZM45.08,87.57L45.08,95.78L50.2,95.78C49.32,94.29 49.25,92.82 49.47,91.27C49.61,90.29 49.6,89.28 49.54,88.29C49.53,88.04 49.1,87.62 48.84,87.6C47.61,87.53 46.38,87.57 45.08,87.57ZM196.52,89.2L196.52,88.76L205.37,88.76C206.14,88.76 206.86,88.63 206.86,87.63C206.86,86.56 206.01,86.86 205.46,86.86C200.96,86.91 196.45,86.98 191.95,87.09C190.52,87.13 189.08,87.24 187.67,87.45C187.32,87.5 186.86,88.05 186.79,88.44C186.67,89.11 187.22,89.22 187.81,89.21C190.71,89.19 193.62,89.2 196.52,89.2ZM481.83,219.11C481.57,220.02 481.21,220.86 481.15,221.71C481.11,222.21 481.56,223.2 481.79,223.2C483.32,223.19 484.99,223.85 486.34,222.45C487.03,223.95 487.93,223.1 488.53,222.85C489.1,223.2 489.65,223.74 489.89,223.63C490.41,223.39 491.03,222.86 491.13,222.36C491.33,221.43 491.19,220.43 491.19,219.06C490.55,219.76 490.14,220.21 489.9,220.48C489.48,220.01 489.18,219.36 488.72,219.21C487.77,218.9 487.3,219.59 487.06,220.45C486.91,220.98 486.67,221.48 486.47,221.99C486.38,221.96 486.29,221.94 486.19,221.91L486.19,219.13C484.69,219.11 483.3,219.11 481.83,219.11ZM403.36,79.51C408.23,79.07 412.95,78.65 417.65,78.23C417.81,76.13 417.74,76 415.87,76.06C412.33,76.18 408.79,76.36 405.25,76.49C404.26,76.53 403.69,76.98 403.55,77.97C403.49,78.4 403.44,78.84 403.36,79.51ZM158.74,88.48C158.56,86.71 158.39,85.11 158.23,83.52L152.01,83.52L152.01,89.19C154.24,88.95 156.41,88.72 158.74,88.48ZM469.97,210.31C471.61,210.31 473.15,210.36 474.69,210.28C475.1,210.26 475.75,209.94 475.85,209.62C476.23,208.38 476.48,207.09 476.69,205.81C476.79,205.2 476.54,204.77 475.78,204.71C474.55,204.62 473.33,204.42 472.11,204.26C471.24,204.15 470.72,204.53 470.59,205.39C470.38,206.99 470.19,208.6 469.97,210.31ZM166.21,87.85C168.62,87.65 170.94,87.46 173.36,87.25C173.24,85.81 173.14,84.51 173.03,83.15L166.21,83.15L166.21,87.85ZM40.22,87.57C39.96,89.64 39.57,91.7 39.46,93.79C39.33,96.25 39.47,96.28 41.89,96.28C42.79,96.28 43.34,95.92 43.35,94.95C43.37,93 43.44,91.04 43.41,89.09C43.39,87.83 42.96,87.48 41.71,87.49C41.3,87.49 40.91,87.53 40.22,87.57ZM308.43,85.4L308.43,80.81C306.87,80.81 305.39,80.73 303.92,80.85C303.21,80.91 301.98,81.28 301.93,81.63C301.77,82.81 302.03,84.04 302.17,85.25C302.18,85.32 302.52,85.4 302.71,85.4C304.58,85.41 306.46,85.4 308.43,85.4ZM150.21,83.34C149,83.45 147.93,83.62 146.86,83.62C145.99,83.62 145.55,84.04 145.52,84.78C145.45,86.38 145.5,87.98 145.5,89.74C147.3,89.57 148.74,89.42 150.21,89.28L150.21,83.34ZM166.16,88.83C166.12,88.96 166.07,89.09 166.03,89.21C166.38,89.38 166.73,89.7 167.07,89.69C172.73,89.58 178.38,89.44 184.03,89.29C184.57,89.28 185.09,89.19 185.03,88.44C184.97,87.64 184.41,87.63 183.82,87.66C183.14,87.7 182.47,87.74 181.79,87.75C179.49,87.79 177.15,87.5 174.98,88.62C174.8,88.71 174.51,88.65 174.29,88.59C171.55,87.85 168.86,88.44 166.16,88.83ZM492.78,74.34L492.84,74.95C495.23,74.78 497.64,74.74 500,74.42C504.3,73.83 508.54,72.73 512.94,72.97C513.9,73.02 514.76,72.61 515.27,71.38C512.39,71.53 509.66,71.51 506.99,71.87C504.31,72.23 501.7,73.04 499.04,73.52C496.97,73.9 494.86,74.08 492.78,74.34ZM433.64,76.54L433.58,76.01C433.19,75.86 432.8,75.58 432.41,75.59C428.5,75.66 424.6,75.78 420.69,75.89C419.9,75.91 419.34,76.27 419.38,77.11C419.43,78.06 420.2,77.92 420.82,77.89C424.48,77.71 428.15,77.55 431.81,77.3C432.44,77.26 433.04,76.81 433.64,76.54ZM35.76,86.94C35.63,88.92 35.4,90.77 35.42,92.63C35.43,93.72 35.78,94.82 36.1,95.88C36.2,96.2 36.75,96.6 37.04,96.57C37.33,96.54 37.75,96.02 37.79,95.68C38.13,92.96 38.39,90.23 38.69,87.41C37.73,87.25 36.88,87.12 35.76,86.94ZM260.66,83.05C263.4,82.9 266.02,82.77 268.64,82.59C270.36,82.47 270.63,82.09 270.39,80.2C268.06,80.2 265.72,80.17 263.38,80.21C260.47,80.26 261.05,79.65 260.66,83.05ZM114.37,93.44C119.91,92.84 125.46,92.34 130.95,91.26C130.55,91.04 130.16,91.01 129.77,91C125.18,91 120.6,90.99 116.01,91C114.17,91 113.87,91.44 114.37,93.44ZM478,207.32C477.56,208.14 477.17,208.68 477,209.29C476.93,209.57 477.32,210.27 477.49,210.26C478.83,210.2 480.16,210.06 481.48,209.86C481.75,209.82 482.09,209.42 482.16,209.12C482.42,207.95 482.59,206.75 482.8,205.55C481.97,205.47 480.94,205.34 479.91,205.26C478.01,205.11 477.58,205.65 478,207.32ZM309.19,76.97C307,76.97 304.94,76.95 302.88,77C302.62,77.01 302.24,77.32 302.14,77.58C301.84,78.38 301.64,79.22 301.36,80.19C303.99,80.06 306.48,79.94 309.01,79.82C309.08,78.76 309.14,77.81 309.19,76.97ZM49.92,86.73C50.23,84.86 50.2,84.64 49.35,84.47C46.91,83.97 44.46,83.73 42.01,84.4C40.44,84.83 40.27,85.2 41.04,86.84C41.67,86.7 42.32,86.53 42.98,86.43C43.51,86.35 44.17,86.13 44.58,86.34C46.34,87.29 48.14,86.77 49.92,86.73ZM90.26,93.2C92.13,92.97 92.22,93.02 92.93,94.85C93.12,95.34 93.29,95.96 93.95,95.68C94.38,95.49 94.94,95 94.97,94.61C95.09,93.08 95.02,91.53 95.02,89.92C93.4,89.77 91.87,89.62 90.26,89.47L90.26,93.2ZM300.49,77.07C299.58,77.22 298.84,77.32 298.1,77.46C296.37,77.78 294.64,78.05 292.94,78.47C292.55,78.57 292.13,79.16 292.04,79.59C291.98,79.88 292.48,80.59 292.73,80.58C295.19,80.55 297.64,80.41 300.1,80.3C300.24,79.16 300.36,78.19 300.49,77.07ZM100.6,94.91C101.92,94.91 103.15,94.96 104.38,94.9C106.52,94.8 106.85,94.42 106.85,92.27C106.85,91.99 106.96,91.63 106.82,91.45C106.6,91.14 106.22,90.74 105.92,90.75C105.54,90.76 105.14,91.1 104.82,91.39C103.1,92.9 103.1,92.91 101.44,91.43C101.39,91.39 101.29,91.4 101.18,91.39C100.3,92.46 100.19,93.64 100.6,94.91ZM95.35,89.01C95.45,87.92 95.65,86.96 95.57,86.03C95.53,85.56 95.03,84.83 94.65,84.76C93.73,84.61 92.74,84.69 91.81,84.85C90.79,85.03 90.01,87.72 90.7,88.49C90.82,88.62 91.04,88.69 91.23,88.71C92.54,88.82 93.85,88.9 95.35,89.01ZM160.08,83.26C160.16,84.77 160.19,86.18 160.34,87.57C160.36,87.81 160.85,88.2 161.11,88.19C162.12,88.13 163.13,87.93 164.13,87.78L164.13,83.07C162.88,83.13 161.69,83.19 160.08,83.26ZM113.83,84.37C112.83,84.37 111.95,84.34 111.09,84.39C110.86,84.41 110.5,84.65 110.44,84.87C109.94,86.49 109.5,88.12 109,89.86C110.1,89.79 111.05,89.69 111.99,89.69C112.65,89.69 112.87,89.37 112.97,88.78C113.22,87.37 113.52,85.97 113.83,84.37ZM73.52,87.75L73.52,84.46C71.86,84.46 70.38,84.44 68.91,84.47C68.08,84.48 67.68,84.99 67.67,85.78C67.66,86.29 67.74,86.8 67.79,87.37C69.74,87.49 71.59,87.62 73.52,87.75ZM78.02,88.84C77.37,88.84 76.76,88.77 76.18,88.87C75.87,88.92 75.42,89.21 75.37,89.46C75.08,90.82 74.78,92.19 74.73,93.57C74.7,94.3 75.17,95.06 75.44,95.89C77.59,94.42 78.55,91.64 78.02,88.84ZM102.48,85.08L99.98,85.08C97.48,85.09 97.48,85.09 97.11,87.58C97.07,87.85 97.01,88.14 97.03,88.41C97.05,88.62 97.12,88.88 97.27,89.01C98.33,89.9 100.1,89.66 100.81,88.47C101.42,87.46 101.87,86.36 102.48,85.08ZM435.46,76.87C438.19,77.29 448.81,76.62 450.41,75.86C449.81,75.73 449.37,75.56 448.92,75.55C444.9,75.51 440.87,75.51 436.85,75.49C435.92,75.49 435.48,75.95 435.46,76.87ZM83.69,96.07C83.56,94.67 83.48,93.37 83.28,92.08C83.23,91.79 82.8,91.41 82.48,91.33C81.1,90.95 79.65,91.73 79.44,92.9C79.15,94.49 80.07,95.75 81.68,95.93C82.29,95.99 82.92,96.02 83.69,96.07ZM488.67,213.11C489.73,213.11 490.66,213.18 491.58,213.07C491.9,213.03 492.39,212.58 492.42,212.28C492.51,211.3 492.56,210.27 492.36,209.32C492.26,208.86 491.64,208.34 491.14,208.17C490.42,207.92 489.84,208.33 489.64,209.13C489.35,210.36 489.04,211.59 488.67,213.11ZM106.95,88.85C107.04,88.88 107.13,88.92 107.23,88.95C107.57,87.55 107.91,86.15 108.28,84.66C107.37,84.66 106.61,84.6 105.86,84.68C105.41,84.73 104.74,84.92 104.61,85.23C104.01,86.68 103.44,88.17 104.07,89.92C105.1,89.12 106.03,88.39 107.11,87.53C107.04,88.09 107,88.47 106.95,88.85ZM94.43,261.81C94.53,261.86 94.63,261.91 94.73,261.95C97.27,260.12 100.4,253.69 100.05,250.54C98.17,254.3 96.3,258.06 94.43,261.81ZM60.95,87.04C61.54,85.3 61.35,85 59.7,84.89L56.37,84.65C55.65,84.6 55.08,84.78 55.04,85.63C55,86.47 55.36,87.03 56.27,87.04C57.82,87.05 59.36,87.04 60.95,87.04ZM51.76,236.9C51.08,236.95 50.41,237 49.73,237.04C48.89,237.09 48.32,237.44 48.4,238.36C48.48,239.29 49,239.84 49.99,239.74C51.02,239.63 52.07,239.54 53.06,239.28C53.4,239.19 53.83,238.61 53.85,238.23C53.9,236.99 53.59,236.83 51.76,236.9ZM75.48,84.64C75.48,85.5 75.45,86.22 75.5,86.93C75.51,87.16 75.66,87.48 75.85,87.58C77.66,88.54 79.48,87.44 79.52,85.4C79.54,84.54 79.14,84.08 78.31,84.15C77.38,84.24 76.45,84.47 75.48,84.64ZM30.22,95.69C30.34,95.68 30.46,95.68 30.58,95.67C30.74,93.23 30.92,90.79 31.06,88.34C31.1,87.66 30.92,87 30.09,86.95C29.2,86.9 29.46,87.68 29.33,88.16C29.29,88.31 29.26,88.47 29.24,88.63C29.05,91.07 29.08,93.47 30.22,95.69ZM84.16,85.87C84.14,85.07 83.99,84.29 83.02,84.2C82.43,84.15 81.48,83.69 81.33,84.66C81.16,85.75 80.34,86.84 81.07,88.01C81.12,88.09 81.28,88.11 81.39,88.15C83.04,88.75 84.14,87.84 84.16,85.87ZM490.58,226.55L490.63,226.55C490.66,226.19 490.78,225.81 490.68,225.49C490.55,225.04 490.36,224.41 490.02,224.25C489.35,223.95 488.85,224.34 488.68,225.11C488.47,226.08 488.21,227.03 487.95,227.99C487.76,228.69 488.07,228.99 488.72,229.17C490.02,229.53 490.46,229.25 490.57,227.86C490.61,227.43 490.58,226.99 490.58,226.55ZM62.88,87.95C62.88,89.13 62.75,90.14 62.93,91.08C63.04,91.63 63.65,92.08 64.04,92.58C64.56,92.03 65.32,91.57 65.54,90.92C65.8,90.15 65.6,89.22 65.6,88.32C64.69,88.2 63.95,88.09 62.88,87.95ZM85.66,88.13C88.32,88.9 88.87,88.48 88.66,85.92C88.65,85.8 88.69,85.62 88.62,85.57C88.24,85.27 87.84,84.78 87.43,84.76C86.48,84.72 85.78,85.15 85.8,86.3C85.82,86.89 85.71,87.48 85.66,88.13ZM485.51,209.92C486.1,209.79 486.92,209.66 487.71,209.42C487.99,209.34 488.39,209 488.38,208.81C488.36,208.53 488.05,208.11 487.79,208.04C487,207.83 486.17,207.66 485.35,207.64C483.89,207.6 483.01,208.11 483.15,208.88C483.38,210.11 484.46,209.74 485.51,209.92ZM89.24,270.13C90.96,269.14 91.08,267.45 91.19,265.53C90.5,265.87 89.93,266.11 89.39,266.42C87.4,267.59 87.35,268.62 89.24,270.13ZM33.75,87.09C33.66,87.05 33.57,87 33.48,86.96C33.25,87.22 32.85,87.47 32.82,87.75C32.6,89.8 32.42,91.85 32.31,93.91C32.3,94.15 32.75,94.41 32.98,94.67C33.23,94.43 33.7,94.2 33.71,93.96C33.77,91.67 33.75,89.38 33.75,87.09ZM21.63,122.6L21.63,112.42C20.47,115.8 20.35,119.2 21.63,122.6ZM50.98,93.11C52.85,91.96 53.09,90.23 53.36,88.56C53.39,88.38 52.83,87.95 52.52,87.92C52.05,87.87 51.32,87.59 51.26,88.51C51.16,89.98 51.08,91.44 50.98,93.11ZM487.76,226.11C487.65,225.49 487.61,225.02 487.47,224.57C487.42,224.4 487.15,224.2 486.97,224.18C486.82,224.17 486.55,224.38 486.5,224.55C486.15,225.77 485.8,226.99 485.57,228.23C485.51,228.53 485.92,228.91 486.11,229.25C486.46,229.05 487,228.92 487.11,228.63C487.42,227.78 487.57,226.88 487.76,226.11ZM96.95,94.37C97.09,94.44 97.24,94.51 97.38,94.58C98.24,93.24 99.1,91.91 100.13,90.32C98.78,90.26 97.89,90.21 96.95,90.17L96.95,94.37ZM62.55,85.21C63.24,86.03 63.64,86.84 64.27,87.14C64.69,87.33 65.73,86.95 65.98,86.53C66.29,86.01 66.05,85.17 66.05,84.33C64.88,84.63 63.96,84.86 62.55,85.21ZM85.55,89.26C85.4,90.8 86.02,91.51 88.28,92.49C88.38,91.49 88.47,90.53 88.58,89.49C87.5,89.4 86.52,89.33 85.55,89.26ZM23.42,89.02C22.95,91.77 23.26,93.79 24.39,95.05C24.52,93.34 24.67,91.72 24.75,90.09C24.78,89.29 24.42,88.77 23.42,89.02ZM470.01,76.31C470.01,76.2 470,76.1 470,75.99L461.65,76.53C464.5,77.59 467.29,77.58 470.01,76.31ZM26.83,87.77C26.71,90.15 26.59,92.53 26.45,95.13C27.89,93.32 28.13,89.59 26.83,87.77ZM87.19,111.32C86.61,113.9 86.63,116.46 87.42,119C87.94,116.42 87.88,113.87 87.19,111.32ZM38.68,86.46C38.77,86.34 38.86,86.22 38.95,86.09C38.67,85.77 38.42,85.23 38.09,85.17C36.45,84.88 34.82,84.95 33.3,85.71C33.3,85.84 33.29,85.97 33.29,86.1L38.68,86.46ZM112.35,90.95L111.73,90.77C111.07,91.69 110.42,92.61 109.76,93.53C109.87,93.69 109.99,93.85 110.1,94.02C110.85,93.78 111.88,93.75 112.26,93.23C112.64,92.72 112.35,91.72 112.35,90.95ZM83.39,89.87C83.42,89.76 83.46,89.65 83.49,89.53C82.66,89.29 81.82,88.84 81.02,88.89C80.62,88.92 80.29,89.88 79.81,90.59C80.27,90.59 80.39,90.61 80.5,90.59C81.47,90.36 82.43,90.11 83.39,89.87ZM488.51,207.12C488.51,206.97 488.52,206.82 488.52,206.67C486.77,205.49 485.37,205.54 484.45,206.93C485.87,206.99 487.19,207.06 488.51,207.12ZM153.46,89.99L159.12,89.99C157.24,89.21 155.4,89.27 153.46,89.99ZM51.41,86.71L53.61,86.71C53.27,85.85 53,85.16 52.73,84.47C52.6,84.5 52.47,84.52 52.34,84.55C52.04,85.25 51.74,85.95 51.41,86.71ZM455.74,77.03C455.73,76.91 455.71,76.79 455.7,76.67L451.41,77.12C451.42,77.25 451.44,77.38 451.45,77.5C452.95,77.94 454.35,77.59 455.74,77.03ZM457.03,8.94C456.25,7.25 455.47,5.57 454.66,3.82C453.96,4.78 454.08,5.02 457.03,8.94ZM515.53,73.97C514.72,74.32 514.16,74.56 513.57,74.82C514.08,75.46 514.5,75.99 514.93,76.51C515.04,76.44 515.16,76.37 515.27,76.3C515.35,75.6 515.43,74.9 515.53,73.97ZM161.51,89.01C162.77,90.42 163.56,90.42 164.44,89.01L161.51,89.01Z" style="fill-rule:nonzero;"/>
            </g>
            <g transform="matrix(4.16667,0,0,4.16667,-1414.8,4066.19)">
                <path d="M265.31,91.89C235.22,93.24 205.15,95.01 175.02,95.48C175.01,95.34 175.01,95.2 175,95.06C205.1,93.87 235.19,92.69 265.29,91.5C265.3,91.62 265.3,91.76 265.31,91.89ZM51.92,39.32C51.35,40.78 50.94,42.33 50.19,43.69C48,47.67 45.6,51.55 43.42,55.54C41.91,58.31 40.51,61.13 38.81,63.81C37.98,65.12 37.68,66.77 37.08,68.24C36.91,68.64 36.57,69.1 36.19,69.25C35.44,69.56 34.61,69.67 33.56,69.93C35.74,65.94 37.77,62.2 39.84,58.47C39.95,58.27 40.27,58.03 40.47,58.05C41.5,58.13 41.7,57.47 41.88,56.68C42.05,55.95 42.25,55.2 42.62,54.55C45.44,49.59 48.31,44.66 51.17,39.71C51.29,39.51 51.41,39.32 51.54,39.12C51.66,39.19 51.79,39.25 51.92,39.32ZM343.9,88.19C342.49,89.13 297.77,90.83 296.66,90.07C312.4,89.44 328.15,88.81 343.9,88.19ZM492.68,48.94C494.51,50.08 496.34,51.22 498.18,52.35C498.26,52.27 498.35,52.19 498.43,52.11C498.11,51.42 497.79,50.73 497.46,50.01C498.74,50.49 500.08,52.17 501.37,54.92C497.72,53.89 495.28,51.3 492.68,48.94ZM57.99,31.61C59.7,28.67 61.41,25.73 63.13,22.78L63.64,23.08C61.9,26.01 60.17,28.94 58.43,31.87C58.29,31.78 58.14,31.7 57.99,31.61ZM284.19,90.55C284.08,90.65 283.95,90.84 283.85,90.83C281.99,90.58 280.23,91.31 278.4,91.32C277.79,91.32 277.17,91.26 276.56,91.23L276.56,90.91L284.13,90.25C284.15,90.34 284.17,90.44 284.19,90.55Z" style="fill-rule:nonzero;"/>
            </g>
            <g transform="matrix(4.16667,0,0,4.16667,-1414.8,4066.19)">
                <ellipse cx="290.26" cy="90.57" rx="5.67" ry="0.12"/>
            </g>
            <g transform="matrix(4.16667,0,0,4.16667,-1414.8,4066.19)">
                <path d="M56.47,29.9C55.68,31.23 54.89,32.57 54.1,33.9C53.96,33.82 53.82,33.75 53.68,33.67C54.42,32.3 55.17,30.93 55.91,29.56C56.09,29.68 56.28,29.79 56.47,29.9ZM462.09,18.2C463,19.46 463.92,20.72 464.83,21.98C464.68,22.08 464.53,22.19 464.37,22.29C463.44,21.03 462.51,19.77 461.58,18.5C461.75,18.41 461.92,18.3 462.09,18.2ZM485.76,43.83C484.61,42.87 483.45,41.91 482.3,40.95C484.01,41.2 484.96,42.44 485.76,43.83ZM285.49,86.75L276.21,86.75L276.21,86.63L285.46,86.63C285.46,86.67 285.48,86.71 285.49,86.75ZM467.33,26.14C466.71,25.4 466.09,24.66 465.45,23.89C466.17,23.65 466.95,24.4 467.62,25.86C467.53,25.96 467.43,26.05 467.33,26.14ZM267.38,91.42L273.13,91.42L273.13,91.59L267.38,91.59L267.38,91.42ZM473.21,16.83C472.43,16.13 471.65,15.44 470.86,14.74C470.97,14.61 471.08,14.49 471.19,14.36L473.54,16.44C473.43,16.58 473.32,16.7 473.21,16.83ZM52.9,35.74C52.47,36.53 52.05,37.31 51.62,38.1C51.48,38.03 51.34,37.96 51.21,37.89C51.64,37.1 52.06,36.31 52.49,35.52C52.63,35.59 52.76,35.67 52.9,35.74Z" style="fill-rule:nonzero;"/>
            </g>
            <g transform="matrix(4.16667,0,0,4.16667,-1414.8,4066.19)">
                <path d="M443.93,120.82C444.01,121.55 444.08,122.1 444.16,122.86C445.99,122.74 447.77,122.66 449.54,122.5C454.46,122.06 459.35,122.29 464.23,123.06C469.86,123.94 475.52,123.88 481.19,123.71C484.94,123.6 488.69,123.87 492.44,123.87C494.75,123.87 497.06,123.68 499.37,123.6C500.29,123.57 500.8,123.09 500.8,122.19C500.8,121.32 500.82,120.42 500.61,119.59C500.08,117.55 500.65,115.83 502.1,113.86C502.39,114.9 502.8,115.65 502.78,116.4C502.7,119.26 502.49,122.13 502.32,125.08C499.58,125.89 496.81,125.7 494.02,125.55C489.16,125.29 484.25,124.57 479.46,125.03C473.11,125.65 466.96,124.69 460.74,124.09C455.85,123.61 451.01,123.85 446.21,124.88C446.02,124.92 445.8,124.93 445.63,125.03C445.08,125.33 444.54,125.68 443.99,125.98C443.92,126.02 443.76,125.92 443.67,125.86C442.87,125.35 442.08,124.83 441.38,124.38C441.78,123.49 442.44,122.68 442.39,121.93C442.33,121.1 441.61,120.32 441.16,119.51C441.91,118.67 442.76,118.39 443.85,118.42C449.64,118.59 455.43,118.8 461.21,118.79C469.4,118.78 477.58,118.66 485.77,118.46C488.92,118.38 492.05,117.93 495.2,117.7C495.97,117.64 496.75,117.78 497.54,117.82C497.26,119.46 496.83,119.84 495.69,119.88C493.15,119.96 490.6,120.11 488.06,120.19C486.03,120.25 484,120.26 481.96,120.28C480.52,120.3 479.09,120.27 477.65,120.33C468.36,120.69 459.06,121.1 449.77,121.41C448.39,121.46 447,121.12 445.62,120.97C445.11,120.93 444.6,120.89 443.93,120.82ZM501.77,150.43C501.83,151.03 502.01,151.66 501.93,152.24C501.34,156.66 500.73,161.09 500.05,165.5C499.69,167.86 499.19,170.21 498.72,172.56C498.59,173.2 498.33,173.81 498.14,174.43C498.02,174.4 497.91,174.37 497.79,174.35C498.7,168 499.6,161.65 500.51,155.3C500.43,155.24 500.35,155.18 500.26,155.12C499.83,155.53 499.36,155.9 498.99,156.36C498.62,156.82 498.33,157.36 498.04,157.88C497.58,158.72 497.01,159.02 496,158.7C488.54,156.36 480.89,154.85 473.11,154.34C467.91,153.99 462.66,154.31 457.43,154.35C456.15,154.36 454.88,154.45 453.6,154.56C451.99,154.7 451.64,155.01 451.51,156.58C451.23,160 450.98,163.42 450.76,166.85C450.37,172.94 450.01,179.04 449.65,185.14C449.64,185.26 449.67,185.37 449.7,185.72C450.83,185.84 452,186.07 453.16,186.06C462.15,185.99 470.98,187.39 479.82,188.81C483.37,189.38 486.93,189.88 490.48,190.39C491.86,190.59 492.12,190.88 491.93,192.35C487.77,191.58 483.62,190.84 479.48,190.04C471.74,188.56 463.96,187.45 456.06,187.43C454.82,187.43 453.45,187.28 452.61,188.61C452.51,188.77 452.04,188.82 451.8,188.74C450.13,188.19 448.49,187.59 446.83,187.01C446.83,186.89 446.8,186.78 446.83,186.76C448.64,185.35 448.53,183.31 448.72,181.33C449.05,177.83 449.71,174.35 449.79,170.85C449.9,166.11 449.62,161.36 449.47,156.61C449.42,154.98 449.18,153.35 449.14,151.71C449.12,150.97 449.38,150.22 449.51,149.47C449.62,149.46 449.73,149.46 449.84,149.45C450.29,150.22 450.74,151 451.4,152.13C451.82,151.17 452.18,150.5 452.42,149.79C452.66,149.08 452.78,148.34 452.95,147.61C453.08,147.63 453.22,147.64 453.35,147.66C453.23,149.21 453.11,150.76 452.97,152.5C455.3,152.62 457.63,152.76 459.96,152.85C465.03,153.03 470.14,152.83 475.15,153.45C481.12,154.18 487.01,155.55 492.92,156.72C497.41,157.61 496.43,157.7 498.81,154.56C499.79,153.26 500.6,151.83 501.49,150.46C501.57,150.46 501.67,150.44 501.77,150.43ZM484.97,134.76C483.17,134.78 481.83,133.73 481.57,132.39C481.36,131.29 482.15,130.04 483.53,129.62C484.42,129.35 485.41,129.17 486.31,129.28C488.02,129.49 488.81,131.39 487.85,132.83C487.1,133.97 486.02,134.68 484.97,134.76ZM473.21,104.04C477.1,103.85 481,103.67 484.89,103.48C484.96,105.15 484.57,105.6 483.07,105.8C481.55,106.01 480.03,106.46 478.51,106.44C476.99,106.42 475.45,106.04 473.96,105.65C473.51,105.53 473.22,104.83 472.86,104.4C472.98,104.28 473.1,104.16 473.21,104.04ZM491.65,100.94C495.24,100.87 498.7,100.33 501.85,102.37C501.62,103.47 501.02,103.96 499.91,103.87C498.16,103.73 496.41,103.64 494.65,103.52C493.1,103.42 492.27,102.46 491.65,100.94ZM497.2,179.12C496.97,181.44 496.74,183.76 496.52,186.09C496.1,190.49 495.42,194.88 496.14,199.31C496.18,199.54 496.18,199.81 496.08,200.01C495.91,200.35 495.64,200.64 495.42,200.95C495.19,200.67 494.91,200.42 494.73,200.11C494.14,199.08 494.34,198.09 494.64,196.95C495.1,195.24 495.18,193.42 495.37,191.65C495.79,187.77 496.17,183.89 496.58,180.01C496.61,179.68 496.74,179.37 496.82,179.05C496.95,179.06 497.08,179.09 497.2,179.12ZM498.93,129.99C500.21,130.05 501.1,130.68 501.43,131.88C501.48,132.05 501.49,132.3 501.4,132.42C500.72,133.33 499.88,134.36 498.72,134.13C497.63,133.91 496.46,133.27 495.72,132.45C495.12,131.8 495.92,130.93 496.65,130.58C497.34,130.25 498.16,130.18 498.93,129.99ZM498.01,143.83C498.01,145.04 497.27,145.81 496.1,145.79C495.04,145.77 494.29,145.04 494.27,143.98C494.25,142.91 495.33,141.63 496.26,141.62C497.22,141.61 498,142.61 498.01,143.83ZM483.93,142.01C484.69,142.34 485.35,142.61 486,142.91C486.84,143.3 486.97,143.97 486.37,144.7C485.82,145.36 484.44,145.57 483.73,145.06C482.92,144.47 483.06,143.7 483.4,142.92C483.54,142.64 483.72,142.38 483.93,142.01ZM467.9,231.74C468.07,229.71 468.23,227.68 468.4,225.65L468.74,225.68C469.41,227.76 469.32,229.8 468.23,231.76C468.12,231.75 468.01,231.75 467.9,231.74ZM473.51,234.4L474.51,237.02C474.15,237.68 473.61,238.65 473.07,239.63C473.21,237.98 473.36,236.27 473.51,234.4ZM466.79,236.48C467.44,236.52 467.96,236.55 468.46,236.57C468.22,237.09 467.96,237.51 467.83,237.97C467.7,238.44 467.71,238.94 467.42,239.43C467.22,238.5 467.02,237.57 466.79,236.48ZM469.27,219.26C469.19,220.61 469.1,221.96 469.02,223.31C468.9,223.3 468.79,223.29 468.67,223.29C468.77,221.94 468.86,220.59 468.96,219.24C469.06,219.24 469.16,219.25 469.27,219.26ZM468.46,250.47C468.17,249.79 467.99,249.37 467.78,248.89C468.17,248.64 468.52,248.41 469.1,248.04C468.86,248.92 468.7,249.56 468.46,250.47ZM77.93,205.47C77.9,205.4 77.88,205.36 77.88,205.32C77.65,202.67 77.63,202.57 74.94,202.9C66.61,203.93 58.36,202.88 50.09,202.19C46.72,201.91 43.36,202.12 40.09,202.91C37.79,203.46 35.59,203.38 33.28,202.67C33.94,200.7 35.71,201.81 36.98,201.32C36.98,199.15 37.09,196.88 36.96,194.63C36.48,185.94 35.93,177.26 35.36,168.57C35.32,167.95 34.91,167.35 34.67,166.74C34.52,166.37 34.17,165.88 34.3,165.64C34.46,165.35 35.01,165.1 35.38,165.12C36.85,165.17 38.33,165.26 39.79,165.46C45.14,166.2 50.46,165.76 55.79,165.16C59.2,164.78 62.63,164.58 66.06,164.52C69.83,164.45 73.57,164.49 76.73,162.68C78.45,166.3 78.02,170.08 77.96,173.9C77.86,180.44 78.28,186.99 78.48,193.53C78.52,194.93 78.54,196.32 78.58,197.72C78.62,199.13 79.11,200.25 80.49,200.91C81.44,201.37 81.46,201.91 80.6,202.49C79.93,202.94 79.48,203.39 79.43,204.28C79.38,205.12 78.75,205.48 77.93,205.47ZM37.52,167.29C37.52,169.55 37.57,171.56 37.5,173.58C37.43,175.69 37.05,177.8 37.13,179.89C37.36,186.27 37.75,192.65 38.06,199.03C38.16,201.16 38.49,201.45 40.65,201.22C40.85,201.2 41.04,201.14 41.24,201.12C42.87,200.98 44.5,200.65 46.11,200.74C49.41,200.93 52.7,201.47 56.01,201.63C60.19,201.84 64.39,201.9 68.58,201.86C70.18,201.84 71.81,201.48 73.37,201.06C74.55,200.75 75.63,200.05 76.79,199.63C77.54,199.36 77.68,198.93 77.65,198.2C77.37,189.86 77.14,181.52 76.86,173.18C76.79,171.15 76.74,169.1 76.4,167.11C76.09,165.28 75.54,165.1 73.81,165.75C72.36,166.29 70.83,166.77 69.39,166.08C67.93,165.39 66.46,165.36 64.95,165.42C63.12,165.5 61.29,165.67 59.45,165.8C54.12,166.18 48.78,166.56 43.45,166.93C41.44,167.07 39.41,167.17 37.52,167.29ZM30.09,197.26C28.29,181.39 27.6,165.44 27.25,149.44C27.4,150.21 27.65,150.98 27.7,151.75C28.3,161.87 28.85,171.99 29.46,182.11C29.52,183.13 29.88,184.13 30.08,185.14C30.26,186.03 30.49,186.93 30.58,187.83C30.78,190.1 30.96,192.37 31.04,194.64C31.07,195.52 30.82,196.41 30.7,197.3C30.5,197.29 30.29,197.28 30.09,197.26ZM75.55,138.32C75.15,139.01 74.88,139.84 74.31,140.35C73.47,141.12 72.46,141.73 71.45,142.27C70.32,142.87 69.31,142.45 68.65,141.28C67.91,139.99 68.04,139.01 69.16,138.27C70.19,137.59 71.27,136.99 72.35,136.38C73.67,135.65 75.29,136.64 75.55,138.32ZM78.6,138.24C78.6,136.88 78.92,136.6 80.49,136.57C81.87,136.54 82.68,137.38 82.68,138.81C82.68,140.02 81.86,140.94 80.76,140.96C79.43,140.98 78.6,139.93 78.6,138.24ZM55.58,111.14C58.06,111.25 60.56,111.3 63.05,111.51C64.65,111.65 64.97,111.97 65.34,113.19C62.65,111.86 59.99,112.62 57.36,112.96C55.59,113.18 54.92,112.41 55.58,111.14ZM80.85,110.56C80.55,111.85 79.82,112.23 78.63,112C77.46,111.77 76.27,111.68 75.1,111.44C74.82,111.38 74.43,110.98 74.41,110.72C74.4,110.45 74.77,109.92 74.99,109.91C76.97,109.83 78.96,109.79 80.85,110.56ZM59.52,239.02C59.61,238.55 59.72,238 59.84,237.44C59.9,237.13 59.97,236.83 60.06,236.52C60.39,235.27 60.77,234.03 61.05,232.77C61.34,231.45 61.59,230.12 61.75,228.78C61.93,227.24 62.02,225.69 62.1,224.15C62.13,223.57 61.85,223.17 61.15,223.21C60.87,223.23 60.58,223.1 60.22,222.94C63.28,223.08 61.86,220.34 63.03,218.98C63.13,219.9 63.37,220.71 63.28,221.48C62.69,226.39 61.99,231.29 61.41,236.21C60.99,239.81 60.7,243.42 60.34,247.07C65.11,247.29 69.76,245.8 74.4,246.87L74.4,247.22C72.67,247.22 70.94,247.14 69.23,247.24C66.76,247.38 64.3,247.71 61.84,247.86C60.87,247.92 60.63,248.38 60.61,249.2C60.6,249.83 60.53,250.46 60.26,251.14C60.16,250.76 60.05,250.38 59.97,249.99C59.75,248.93 59.82,247.64 57.93,247.8C59.83,247.42 59.87,246.16 59.87,244.82C59.87,243.74 60.06,242.66 60.01,241.59C59.99,240.77 59.72,239.96 59.52,239.02Z" style="fill-rule:nonzero;"/>
            </g>
            <g transform="matrix(4.16667,0,0,4.16667,-1414.8,4066.19)">
                <path d="M69.39,230.12C68.75,229.97 68.11,229.81 67.47,229.66C69.92,230.13 70.05,228.4 70.18,226.63C72.39,227.57 70.71,229.25 71.12,230.56C71.38,230.44 71.63,230.32 71.89,230.21L72.13,230.39C71.63,231.38 69.87,231.61 70.25,233.3C69.94,231.64 69,231.05 67.59,231.02C68.21,230.82 68.83,230.62 69.45,230.41C69.43,230.32 69.41,230.22 69.39,230.12ZM44.85,249.79C45.52,249.07 46.15,248.38 46.83,247.66C46.87,247.99 46.91,248.28 46.95,248.63L51.29,248.63L51.32,248.85C50.5,249 49.69,249.23 48.86,249.29C47.55,249.4 46.79,250.01 46.64,251.33C46.62,251.51 46.53,251.69 46.42,252.02C45.83,251.18 46.38,249.67 44.85,249.79ZM71.45,218.31C73.46,217.88 75.38,217.26 77.35,218.31L71.45,218.31ZM47.09,246.89C46.06,245.05 46.08,244.79 47.45,243.68C47.32,244.81 47.21,245.79 47.09,246.89ZM478.54,71.71C476.35,71.7 474.66,70.85 474.31,69.76C473.91,68.51 474.43,67.08 475.75,66.01C475.75,67.21 475.66,68.34 475.77,69.44C475.92,70.83 477.17,71.12 478.54,71.71ZM504.14,64.71C504.46,65.54 504.74,66.25 505.02,66.96C504.96,67 504.9,67.04 504.84,67.09C504.26,66.66 503.68,66.22 502.99,65.7C503.4,65.35 503.73,65.06 504.14,64.71Z" style="fill-rule:nonzero;"/>
            </g>
        </g>
    </g>
</svg>
